<?xml version="1.0" encoding="UTF-8"?>
<svg id="Capa_2" data-name="Capa 2" xmlns="http://www.w3.org/2000/svg" viewBox="0 0 500 500">
  <defs>
    <style>
      .cls-1 {
        fill: #f2f2fa;
      }
    </style>
  </defs>
  <g id="Capa_1-2" data-name="Capa 1">
    <g>
      <path class="cls-1" d="M250,187.58c-34.42,0-62.42,27.99-62.42,62.42s27.99,62.42,62.42,62.42,62.42-27.99,62.42-62.42-27.99-62.42-62.42-62.42ZM250,283.77c-18.65,0-33.77-15.12-33.77-33.77s15.12-33.77,33.77-33.77,33.77,15.12,33.77,33.77-15.12,33.77-33.77,33.77Z"/>
      <circle class="cls-1" cx="318.17" cy="181.83" r="18.61" transform="translate(-33.26 77.97) rotate(-13.28)"/>
      <path class="cls-1" d="M250,0C111.93,0,0,111.93,0,250s111.93,250,250,250,250-111.93,250-250S388.07,0,250,0ZM366.87,298.68c0,37.59-30.57,68.19-68.15,68.19h-97.39c-37.59,0-68.19-30.57-68.19-68.15v-97.39c0-37.59,30.57-68.19,68.15-68.19h97.39c37.59,0,68.19,30.57,68.19,68.15v97.39Z"/>
    </g>
  </g>
</svg>