<?xml version="1.0" encoding="UTF-8"?>
<svg id="Capa_2" data-name="Capa 2" xmlns="http://www.w3.org/2000/svg" viewBox="0 0 449.86 394.08">
  <defs>
    <style>
      .cls-1 {
        fill: #0077bd;
      }
    </style>
  </defs>
  <g id="Capa_1-2" data-name="Capa 1">
    <path class="cls-1" d="M433.92,277.04L231.54,26.69C217.83,9.73,197.44,0,175.61,0c-16.36,0-32.39,5.67-45.13,15.97-17.82,14.4-25.43,30.6-25.44,54.18,0,13.75,6.34,32.4,7.44,35.55l25.05,98.49h0s0,0,0,0l16.2,63.62s0,0,0,0v.04c.16.61.24,1.24.24,1.9,0,4.2-3.66,7.21-7.86,7.2-3.73-.01-7.74-5-7.74-5l-55.67-68.86c-7.71-9.53-19.16-14.99-31.42-14.99-9.21,0-18.22,3.19-25.37,8.97-11.93,9.62-17.33,24.89-14.12,39.84.01.05,27.44,100.34,27.44,100.34l-6.88-9.63c-6.3-7.8-17.78-9.03-25.59-2.73-3.79,3.06-6.15,7.4-6.67,12.24-.51,4.84.89,9.58,3.95,13.35l29.75,36.81c3.47,4.31,8.63,6.79,14.17,6.79,4.12,0,8.17-1.43,11.41-4.02l.02-.02c4.74-3.83,7.25-9.88,6.66-15.92v-.68l-6.28-23.96h-.02c-.02-.06-.02-.12-.03-.18l-.04-.14s0-.03-.01-.04l-.14-.54h0c-.02-.06-.03-.12-.05-.18l-14.92-56.94c-.04-.15-.08-.29-.13-.44,0-.01,0-.03-.01-.04h0c-.06-.27-.07-.46-.07-.56,0-1.23,1.01-2.23,2.25-2.23.76,0,1.26.33,1.62.69.07.06.17.19.26.33l.26.41,72.3,89.45c6.78,8.39,16.43,13.64,27.16,14.78,1.45.15,2.89.23,4.33.23,9.21,0,18.07-3.12,25.33-8.99,11.02-8.89,16.58-23.06,14.6-37.09v-.47l-21.41-84.06s-.01-.04-.02-.07h0s0-.01,0-.01c0,0,0,0,0,0h0l-16.06-63.09c-.11-.7-.18-1.42-.18-2.16,0-7.39,6.01-13.41,13.41-13.41,3.59,0,6.96,1.4,9.59,4.01.58.58,1.14,1.28,1.72,2.15l.22.33,142.4,176.18c14.18,17.53,34.98,26.64,55.95,26.64,15.87,0,31.83-5.22,45.11-15.94h0c30.8-24.91,35.6-70.24,10.7-101.05Z"/>
  </g>
</svg>