<?xml version="1.0" encoding="UTF-8"?>
<svg id="b" data-name="Capa 2" xmlns="http://www.w3.org/2000/svg" viewBox="0 0 21.3 25.22">
  <g id="c" data-name="Capa 2">
    <g>
      <path d="M18.85,13.46c3.2.8,3.3,5.29.06,6.11-5.08.19-10.2.04-15.29.08-3.64-.45-3.81-5.36-.3-6.24.47-2.5,2.8-4.04,5.3-3.78,3.48-4.54,10.5-1.8,10.24,3.84Z" fill="#858585ff"/>
      <path d="M14.72,6.33c-1.92-.39-3.89-.05-5.5,1.07-.24.16-1.04.93-1.16.96-.23.07-.69.05-.97.09-1.24.21-2.26.69-3.19,1.52-.06.06-.52.59-.56.53-.5-2.95,1.09-5.89,3.92-6.9s6.12.05,7.46,2.71Z" fill="#eb9f13ff"/>
       <path d="M16.23,21.61c.57-.13,1.02.31.87.87-.08.3-.72,1.34-.93,1.67s-.52.99-.91,1.04c-.58.08-.91-.39-.76-.94.06-.23,1.17-2.11,1.36-2.35.09-.11.22-.25.36-.29Z" fill="#3d54a1"/><!--azul -->
      <path d="M1.77,25c-.19-.2-.2-.46-.12-.7.12-.36,1.14-2.15,1.39-2.45.48-.58,1.32-.12,1.23.58-.43.75-.84,1.68-1.34,2.38-.28.39-.77.6-1.15.2Z" fill="#3d54a1"/><!--azul -->
      <path d="M6.56,21.61c.58-.13,1.02.3.87.87-.07.26-1.13,2.14-1.33,2.39-.51.64-1.49.27-1.27-.56.06-.21,1.15-2.11,1.34-2.38.09-.12.24-.29.39-.32Z" fill="#3d54a1"/><!--azul -->
      <path d="M13.05,21.61c.5-.1.97.3.86.8-.05.21-1.26,2.32-1.44,2.52-.56.63-1.47.08-1.15-.73.13-.34,1.11-2.05,1.33-2.32.1-.12.23-.23.39-.26Z" fill="#3d54a1"/><!--azul -->
      <path d="M17.86,25c-.19-.2-.23-.47-.14-.72s1.22-2.21,1.4-2.43c.48-.58,1.35-.15,1.18.65-.05.23-1.11,2.1-1.3,2.35-.27.36-.8.5-1.14.15Z" fill="#3d54a1"/><!--azul -->
      <path d="M9.81,21.61c.61-.12.96.35.81.93-.05.2-1.17,2.2-1.33,2.39-.49.59-1.42.18-1.21-.62.47-.68.86-1.85,1.37-2.46.09-.11.2-.21.35-.24Z" fill="#3d54a1"/><!--azul -->
      <path d="M.61,8.7c.33-.06,1.34-.06,1.61.13.28.21.32.73.11.99-.29.37-1.59.36-1.96.15-.61-.36-.42-1.16.24-1.27Z" fill="#eb9f13ff"/>
      <path d="M15.35,2.57c.51-.13,1.04.28.92.8-.07.3-1.04,1.26-1.35,1.31-.52.07-.9-.38-.76-.88.06-.22.99-1.17,1.19-1.22Z" fill="#eb9f13ff"/>
      <path d="M3.03,2.57c.18-.04.4-.03.57.05.08.04.95.9,1.01,1,.37.59-.22,1.26-.88.99-.23-.1-1.09-.97-1.14-1.22-.07-.32.1-.75.44-.83Z" fill="#eb9f13ff"/>
      <path d="M9.92,2.24c-.31.33-1.02.22-1.15-.2-.1-.33-.1-1.24,0-1.58.16-.59,1.04-.65,1.27-.05.14.36.15,1.53-.12,1.82Z" fill="#eb9f13ff"/>
    </g>
  </g>
</svg>