<?xml version="1.0" encoding="UTF-8"?>
<svg id="b" data-name="Capa 2" xmlns="http://www.w3.org/2000/svg" viewBox="0 0 18.37 13.81">
  <g id="c" data-name="Capa 2">
    <g>
      <g>
        <rect x="11.54" y="2.35" width="1.7" height="4.47" rx=".85" ry=".85" transform="translate(21.57 14.09) rotate(-154.33)" fill="#3d54a1"/>
        <rect x="8.43" y="7.69" width="1.7" height="6.35" rx=".85" ry=".85" transform="translate(12.94 24.68) rotate(-154.33)" fill="#3d54a1"/>
      </g>
      <g>
        <rect x="8.43" y="-.27" width="1.7" height="7.23" rx=".85" ry=".85" transform="translate(16.19 10.37) rotate(-154.33)" fill="#3d54a1"/>
        <rect x="5.34" y="7.33" width="1.7" height="4.47" rx=".85" ry=".85" transform="translate(7.63 20.87) rotate(-154.33)" fill="#3d54a1"/>
        <rect x="3.75" y="11.95" width="1.7" height="1.87" rx=".85" ry=".85" transform="translate(3.16 26.49) rotate(-154.33)" fill="#3d54a1"/>
      </g>
      <g>
        <rect x="1.2" y="6.85" width="1.7" height="7.23" rx=".85" ry=".85" transform="translate(-.64 20.79) rotate(-154.33)" fill="#3d54a1"/>
        <rect x="4.18" y="2.07" width="1.7" height="4.76" rx=".85" ry=".85" transform="translate(7.63 10.65) rotate(-154.33)" fill="#3d54a1"/>
      </g>
      <g>
        <rect x="15.66" y=".53" width="1.7" height="6.35" rx=".85" ry=".85" transform="translate(29.79 14.19) rotate(-154.33)" fill="#3d54a1"/>
        <rect x="13.46" y="7.17" width="1.7" height="1.87" rx=".85" ry=".85" transform="translate(23.68 21.6) rotate(-154.33)" fill="#3d54a1"/>
        <rect x="11.88" y="9.2" width="1.7" height="4.76" rx=".85" ry=".85" transform="translate(19.17 27.53) rotate(-154.33)" fill="#3d54a1"/>
      </g>
    </g>
  </g>
</svg>