<?xml version="1.0" encoding="UTF-8"?>
<svg id="b" data-name="Capa 2" xmlns="http://www.w3.org/2000/svg" viewBox="0 0 19.78 12.24">
  <g id="c" data-name="Capa 2">
    <path d="M.85,3.77c-.25,0-.5-.11-.67-.32-.29-.37-.23-.9.14-1.19C2.23.75,4.16-.03,6.17.01c1.43,0,2.42.42,3.39.82.7.29,1.36.56,2.24.72,2.03.36,4.3-.13,6.73-1.45.41-.22.93-.07,1.15.34.22.41.07.93-.34,1.15-2.78,1.51-5.42,2.06-7.84,1.63-1.06-.19-1.88-.53-2.59-.82-.88-.37-1.65-.68-2.75-.69h-.04c-1.56,0-3.16.63-4.74,1.87-.16.12-.34.18-.52.18Z" fill="#858585ff"/>
    <path d="M.85,8c-.25,0-.5-.11-.67-.32-.29-.37-.23-.9.14-1.19,1.91-1.5,3.91-2.28,5.84-2.24,1.43,0,2.42.42,3.38.82.7.29,1.36.56,2.24.72,2.03.36,4.29-.13,6.73-1.45.41-.22.93-.07,1.15.34.22.41.07.93-.34,1.15-2.78,1.51-5.42,2.06-7.84,1.63-1.06-.19-1.88-.53-2.6-.82-.88-.37-1.65-.68-2.75-.69-1.58.02-3.19.62-4.78,1.87-.16.12-.34.18-.52.18Z" fill="#858585ff"/>
    <path d="M.85,12.24c-.25,0-.5-.11-.67-.32-.29-.37-.23-.9.14-1.19,1.91-1.5,3.91-2.22,5.84-2.24,1.43,0,2.42.42,3.38.82.7.29,1.36.56,2.24.72,2.03.36,4.29-.12,6.73-1.45.41-.22.93-.07,1.15.34.22.41.07.93-.34,1.15-2.78,1.51-5.42,2.06-7.84,1.63-1.06-.19-1.88-.53-2.59-.82-.88-.37-1.65-.68-2.75-.69h-.04c-1.57,0-3.16.63-4.74,1.87-.16.12-.34.18-.52.18Z" fill="#858585ff"/>
  </g>
</svg>