<?xml version="1.0" encoding="UTF-8"?>
<svg id="b" data-name="Capa 2" xmlns="http://www.w3.org/2000/svg" viewBox="0 0 23.9 13.93">
  <g id="c" data-name="Capa 2">
    <g>
      <path d="M22.96,2.36c1.24.31,1.27,2.04.02,2.35-1.96.08-3.93.02-5.89.03-1.4-.17-1.47-2.07-.12-2.41.18-.96,1.08-1.56,2.04-1.46,1.34-1.75,4.05-.69,3.95,1.48Z" fill="#858585ff"/>
      <path d="M2.45,7.72c-3.2.8-3.3,5.29-.06,6.11,5.08.19,10.2.04,15.29.08,3.64-.45,3.81-5.36.3-6.24-.47-2.5-2.8-4.04-5.3-3.78C9.21-.66,2.19,2.09,2.45,7.72Z" fill="#858585ff"/>
    </g>
  </g>
</svg>