<?xml version="1.0" encoding="UTF-8"?>
<svg id="b" data-name="Capa 2" xmlns="http://www.w3.org/2000/svg" viewBox="0 0 23.01 23">
  <g id="c" data-name="Capa 2">
    <g>
      <path d="M7.85,17c-3.81-2.47-3.95-8.15-.28-10.83,4.06-2.96,9.66-.59,10.42,4.35.87,5.63-5.35,9.58-10.14,6.47ZM12.22,7.3c-.63.09-.88.81-.48,1.29.31.37.81.21,1.22.35.44.15.96.7,1.1,1.14.09.28.05.56.13.82.27.85,1.47.67,1.52-.2.09-1.75-1.71-3.65-3.49-3.4Z" fill="#eb9f13ff"/>
      <path d="M19.37,4.82c-.24.26-.94,1.07-1.24,1.14-.27.06-.59,0-.8-.18-.36-.29-.39-.84-.12-1.2.16-.23.98-1.02,1.22-1.22.9-.75,1.98.34,1.2,1.24-.08.09-.19.15-.26.22Z" fill="#eb9f13ff"/>
      <path d="M18.5,17.3c.34.29.86.78,1.14,1.11.74.89-.32,1.95-1.2,1.24-.23-.19-1.09-1.02-1.24-1.24-.24-.33-.24-.78.02-1.1.27-.34.84-.4,1.18-.14.05.04.07.1.1.13Z" fill="#eb9f13ff"/>
      <path d="M5.5,17.08c.06.03.26.19.31.25.25.34.22.76-.03,1.09-.19.25-.94.99-1.2,1.2-.89.74-1.97-.33-1.22-1.22.37-.44.91-.87,1.32-1.29.21-.14.59-.14.82-.04Z" fill="#eb9f13ff"/>
      <path d="M4.66,3.46c.31.28.89.78,1.12,1.09s.27.73.04,1.07c-.27.4-.86.45-1.24.17-.26-.19-.97-.93-1.2-1.2-.78-.9.29-1.98,1.18-1.26.05.04.07.1.1.13Z" fill="#eb9f13ff"/>
      <path d="M11.35,19.64c.41-.08.94.26,1,.68.04.29.05,1.75,0,2.02,0,.05-.11.26-.14.31-.41.6-1.46.38-1.55-.35-.04-.3-.04-1.75.01-2.02s.41-.59.68-.64Z" fill="#eb9f13ff"/>
      <path d="M20.29,10.65c.25-.06,1.74-.05,2.02-.01.23.03.55.27.63.49.19.52-.04,1.02-.55,1.21l-2.17-.02c-.54-.28-.77-.85-.37-1.36.09-.11.31-.27.45-.3Z" fill="#eb9f13ff"/>
      <path d="M3.09,10.92c.14.15.26.31.27.54.02.34-.31.81-.65.87-.24.05-1.86.05-2.1,0-.16-.03-.48-.3-.54-.45-.2-.48.02-1.11.55-1.23.25-.06,1.74-.05,2.02-.01.2.03.32.15.45.28Z" fill="#eb9f13ff"/>
      <path d="M11.31.01c.47-.07.98.16,1.05.67.04.28.04,1.77-.01,2.02-.07.33-.47.63-.8.65-.38.02-.84-.34-.89-.72-.04-.31-.05-1.7,0-1.99S11.01.05,11.31.01Z" fill="#eb9f13ff"/>
      <path d="M8.64,2.59c.23.24.32.47.22.81-.19.66-1.09.88-1.51.3-.64-.88.53-1.91,1.29-1.11Z" fill="#eb9f13ff"/>
      <path d="M20.37,7.34s.2.25.22.3c.2.37.06.85-.28,1.09-.67.48-1.55-.2-1.33-.95.17-.56.91-.82,1.38-.44Z" fill="#eb9f13ff"/>
      <path d="M15.56,19.2c.44.41.35,1.07-.18,1.37-.38.22-.9.09-1.13-.29-.53-.86.56-1.78,1.31-1.08Z" fill="#eb9f13ff"/>
      <path d="M8.61,19.15c.51.36.37,1.24-.2,1.49-.35.15-.86-.01-1.07-.33-.51-.78.43-1.75,1.26-1.16Z" fill="#eb9f13ff"/>
      <path d="M3.85,15.51c-.67.86-2.05-.18-1.35-1.08s2.07.15,1.35,1.08Z" fill="#eb9f13ff"/>
      <path d="M19.16,14.39c.05-.08.23-.2.32-.24.89-.37,1.59.64,1.03,1.32-.69.84-2.02-.13-1.35-1.08Z" fill="#eb9f13ff"/>
      <path d="M15.56,2.59s.07.03.1.09c.48.77-.37,1.68-1.16,1.21-1.1-.65.17-2.3,1.07-1.29Z" fill="#eb9f13ff"/>
      <path d="M3.85,8.6c-.36.51-1.24.38-1.48-.2-.14-.35-.03-.84.3-1.04.85-.53,1.75.44,1.18,1.24Z" fill="#eb9f13ff"/>
    </g>
  </g>
</svg>