<?xml version="1.0" encoding="UTF-8"?>
<svg id="b" data-name="Capa 2" xmlns="http://www.w3.org/2000/svg" viewBox="0 0 20.52 17.53">
  <g id="c" data-name="Capa 2">
    <path d="M17.95,5.87c-.54-2.33-2.72-3.77-5.08-3.6-.11,0-.21-.04-.28-.12C9.12-2.14,2.4.46,2.44,5.86c0,.15-.1.28-.24.33-2.96.96-2.97,5.24.19,6.04,1.9.07,3.81.09,5.71.09.21,0,.37.19.34.39l-.33,2.42c-.03.24.18.43.41.39l1.31-.25c.22-.04.42.13.41.35l-.08,1.91,1.97-3.01c.14-.22,0-.51-.26-.54l-1.56-.14.47-1.3c.05-.14.18-.23.32-.23,2.19-.01,4.37-.03,6.56-.01,3.57-.44,3.8-5.18.49-6.19-.12-.04-.2-.13-.23-.25Z" fill="#858585ff"/>
  </g>
</svg>