<?xml version="1.0" encoding="UTF-8"?>
<svg id="Capa_2" data-name="Capa 2" xmlns="http://www.w3.org/2000/svg" viewBox="0 0 132.54 65.78" >
  <defs>
    <style>
      .cls-1 {
        fill: #1c1917;
      }

      .cls-2 {
        fill: #b19e6e;
      }

      .cls-3 {
        fill: #518ebc;
      }

      .cls-4 {
        fill: #1f1f1f;
      }
    </style>
  </defs>
  <g id="Capa_1-2" data-name="Capa 1">
    <g>
      <path class="cls-1" d="M15.94,54.31c-.68.28-1.22,0-1.82-.15-1.87-.46-3.57.35-4.34,2.1-.55,1.24-.54,2.51-.2,3.79.46,1.69,1.59,2.49,3.36,2.43.85-.03,1.57-.41,2.35-.96v.57c0,1.74-.68,2.4-2.44,2.42-.75,0-1.44-.22-2.15-.39-.14-.04-.28-.2-.43-.04-.28.29.06,1.39.46,1.47,1.03.23,2.08.3,3.12.15,1.38-.22,2.32-.95,2.66-2.36.15-.61.22-1.23.22-1.85,0-2.14-.03-4.28.02-6.43.02-.68-.26-.97-.81-.74v-.02ZM14.81,60.63c-.36.18-.72.35-1.11.44-1.54.37-2.56-.28-2.79-1.83-.11-.73-.12-1.46.09-2.19.35-1.22,1.3-1.88,2.55-1.78.23.02.44.05.66.09,1.07.22,1.08.24,1.08,1.34v1.34c0,.58-.03,1.16,0,1.74.03.42-.14.66-.49.84v.02ZM7.11,56.8c0-1.46-.86-2.4-2.32-2.64-1.07-.18-2.12-.06-3.18.08-.73.1-.91.38-.86,1.06.04.46.1.58.56.4.99-.36,2.02-.5,3.08-.34.73.11,1.15.5,1.28,1.16.08.4.04.58-.46.6-1.2.04-2.41.09-3.54.56-1.23.51-1.8,1.51-1.64,2.82.15,1.18.99,2.06,2.2,2.26,1.27.22,2.36-.23,3.42-1.02.03.16.06.22.06.28-.12.87.55.49.91.57.54.12.49-.24.49-.59v-5.22.03ZM4.61,61.21c-.89.37-1.83.55-2.67-.05-.78-.54-.59-1.86.29-2.36.66-.37,1.4-.41,2.12-.48h.2c.76-.03,1.14.41,1.14,1.3.29.84-.32,1.28-1.09,1.59h0ZM34.04,54.28c-1.19-.34-2.38-.27-3.57-.02-.91.19-.89.2-.89,1.14,0,.43.13.48.49.34.99-.37,2.02-.51,3.08-.37.79.11,1.18.47,1.35,1.17.11.46-.04.56-.48.59-1.11.06-2.23.09-3.29.48-1.53.56-2.16,1.71-1.8,3.24.32,1.34,1.58,2.13,3.07,1.96.91-.11,1.7-.48,2.5-1.07.03.17.05.24.04.29-.13.81.48.5.84.57.53.1.55-.2.54-.61-.02-1.76,0-3.52-.02-5.29,0-1.26-.66-2.09-1.87-2.44h0ZM33.44,61.2c-.89.38-1.82.55-2.67-.03-.77-.52-.61-1.8.23-2.33.61-.38,1.31-.41,1.98-.51.13-.02.27,0,.4-.02.77-.03,1.15.41,1.15,1.3.29.84-.32,1.26-1.09,1.59ZM79.78,54.17c-2.56-.62-4.62.74-5.08,3.35-.48,2.66.75,4.7,3.16,5.17.92.18,1.89.19,2.78-.12,1.69-.57,1.38-.1,1.35-2-1.09.7-2.18,1.06-3.41.97-1.36-.11-2.38-1.1-2.5-2.44-.03-.39.02-.54.47-.53,1.42.03,2.86,0,4.28,0s1.44,0,1.31-1.47c-.15-1.56-.99-2.62-2.37-2.95h0ZM80.19,57.52c-.57-.06-1.16,0-1.73,0h-2c-.28,0-.39-.06-.35-.37.13-1,1.13-1.87,2.24-1.94,1.37-.08,2.16.44,2.42,1.57.11.47.1.81-.57.74h0ZM124.06,56.9c-.42-1.69-1.77-2.81-3.42-2.86-1.96-.05-3.28.85-3.86,2.63-.26.81-.27,1.62-.22,2.45.12,2.08,1.42,3.48,3.43,3.7,1.88.22,3.48-.85,4.02-2.68.17-.56.22-1.13.21-1.55,0-.68-.04-1.19-.16-1.69ZM122.67,59.58c-.26,1.35-1.2,2.11-2.4,2.03-1.25-.08-2.07-.93-2.23-2.32-.03-.3-.03-.62-.05-.91.04-.43.02-.85.13-1.28.33-1.23,1.09-1.87,2.26-1.86,1.14,0,1.91.63,2.22,1.83.23.84.22,1.69.06,2.51h0ZM59.47,54.32c.11.12,0,.25-.04.36-1.37,3.23-2.72,6.46-4.12,9.69-.43.99-1.48,1.43-2.77,1.3-1.2-.13-1.24-.18-1.03-1.46.2.05.38.11.57.16,1.15.3,1.64.03,2.19-1.01.42-.8.43-1.45.05-2.29-.93-2.01-1.73-4.09-2.6-6.13-.2-.47-.26-.67.4-.69.66,0,.96.17,1.21.8.67,1.76,1.42,3.49,2.21,5.36.45-1.06.85-2.01,1.27-2.98.38-.92.77-1.85,1.16-2.76.13-.3,1.3-.58,1.51-.35h0ZM26.55,54.82c-.04,2.39-.02,4.77-.02,7.16,0,.31.12.73-.45.62-.39-.07-1.08.31-.95-.6,0-.06-.03-.12-.06-.22-.69.38-1.3.86-2.09.99-1.96.31-3.33-.72-3.39-2.68-.05-1.81,0-3.62-.02-5.42,0-.27.04-.38.35-.4,1.05-.06,1.04-.07,1.05.98.02,1.56-.07,3.12.06,4.69.1,1.19.76,1.71,1.94,1.54.7-.1,1.31-.42,1.9-.79.28-.18.27-.43.27-.7,0-1.72.04-3.44-.02-5.15-.02-.69.36-.55.75-.56s.7-.08.69.54h0ZM132.04,61.59c-.39.52-.92.85-1.53,1.01-1.42.36-2.83.25-4.18-.34-.28-.13-.54-1.41-.32-1.6.2-.16.32.06.46.15,1.04.63,2.15.94,3.38.75.75-.12,1.15-.47,1.19-1.05.05-.67-.23-1-1.05-1.22-.78-.2-1.57-.31-2.33-.56-1.1-.34-1.58-.97-1.62-1.96-.04-1.05.47-1.91,1.46-2.33,1.46-.63,2.92-.41,4.36.11.26.1.33.25.32.5,0,.35,0,.71,0,1.18-.77-.47-1.47-.78-2.25-.92-.56-.11-1.11-.08-1.65.11-.47.17-.83.46-.84,1.01,0,.54.31.85.8,1.02.72.25,1.47.33,2.21.51,1.9.45,2.66,2.2,1.58,3.63h0ZM73.01,60.69c-.18.99-1.2,1.87-2.48,2.03-1.09.15-2.17.08-3.23-.29-.54-.19-.9-.42-.77-1.07.05-.24,0-.48,0-.85,1.27.84,2.5,1.28,3.89,1.04.45-.08.86-.25,1.07-.69.28-.59.02-1.25-.63-1.44-.74-.23-1.51-.36-2.26-.55-1.36-.33-2.01-1.02-2.04-2.11-.04-1.21.62-2.04,1.94-2.47,1.34-.43,2.63-.19,3.92.28.27.1.32.26.31.51,0,.35,0,.71,0,1.14-.75-.4-1.45-.76-2.25-.89-.56-.1-1.12-.09-1.65.11-.46.17-.82.43-.82,1.01s.31.85.79,1.02c.67.25,1.39.32,2.07.47,1.64.34,2.38,1.32,2.12,2.76h0ZM44.46,61.28c-.49.88-1.34,1.31-2.3,1.43-1.09.15-2.17.06-3.23-.3-.57-.2-.87-.46-.75-1.09.04-.23,0-.47,0-.82.9.52,1.74.98,2.71,1.06.54.04,1.07.03,1.58-.15.48-.17.78-.48.8-1.03,0-.56-.27-.88-.78-1.02-.73-.2-1.47-.34-2.2-.52-1.39-.34-2.02-1.02-2.05-2.18-.04-1.15.69-2.03,1.99-2.43,1.3-.39,2.55-.17,3.79.28.25.09.36.22.35.48-.02.37,0,.75,0,1.21-.73-.46-1.43-.76-2.2-.9-.54-.1-1.06-.09-1.58.08-.5.16-.89.43-.91,1.01s.34.91.84,1.06c.68.2,1.39.32,2.08.46,1.81.37,2.66,1.92,1.86,3.36h0ZM98.33,54.32c-.35.87-.7,1.72-1.04,2.56-.72,1.77-1.46,3.53-2.13,5.31-.25.65-.72.32-1.1.41-.36.08-.54-.1-.68-.44-.97-2.46-1.96-4.9-2.96-7.35-.19-.46-.1-.51.37-.56.75-.07,1.07.2,1.32.9.59,1.7,1.29,3.36,1.95,5.03.07.18.15.35.28.65.74-1.91,1.43-3.66,2.11-5.44q.45-1.18,1.89-1.1v.02ZM106.23,56.09c-.89,1-.94,3.51-.09,4.6.9,1.16,2.29,1.14,4.59-.07.03.03.07.06.07.09.07,1.48-.23,1.8-1.88,2.02-1.98.27-3.56-.4-4.31-1.84-.91-1.74-.69-4.28.53-5.59,1.18-1.26,2.67-1.5,4.24-1.07,1.76.49,1.45.2,1.4,2.06-2.11-1.28-3.56-1.33-4.55-.22h0ZM89.66,55.5c-.07.52-.39.23-.59.19-1.1-.18-2.05.15-2.94.8-.28.2-.26.44-.26.7,0,1.63-.04,3.25.02,4.88.02.62-.3.55-.69.54-.37-.02-.78.16-.77-.54.04-2.41.04-4.81,0-7.22,0-.68.34-.56.75-.58.43-.02.83-.04.7.59-.03.15,0,.31,0,.62,1.03-.82,2.03-1.34,3.27-1.19.53.06.63.31.51,1.22h0ZM114.2,62.11c0,.74-.46.45-.8.5-.41.06-.64,0-.62-.54.05-1.2,0-2.41,0-3.61s.03-2.46,0-3.67c-.02-.51.22-.57.59-.5.31.06.84-.29.83.46-.03,2.45-.03,4.9,0,7.36ZM101.76,62.07c.03.63-.32.55-.7.53-.33-.02-.75.19-.74-.49.04-2.46.04-4.91,0-7.36,0-.63.37-.47.69-.46.33,0,.77-.19.74.49-.05,1.2,0,2.41,0,3.62s-.04,2.46.02,3.68h0ZM114.32,52.2c.03.83-.44.67-.96.66-.63.19-.66-.2-.69-.75-.05-.69.27-.71.81-.74.66-.04.83.15.84.83ZM101.86,52.17c-.03.68-.26.81-.82.67-.55.11-.89.05-.84-.67.04-.55.09-.84.76-.8.57.04.93,0,.89.8Z"/>
      <g>
        <path class="cls-2" d="M91.44,1.89c-.63,1.94-1.71,2.72-1.85,4.61,1.28.23.78-.28,1.06-1.01.57-1.49-.12-2.27,2.41-1.75,1.86.38,1.38,2.4,1.86,3.69,1.32-1.43,4.35-7.11,6.02-7.39.7-.12.81,0,.69.69-1.44,1-6.62,12.05-8.8,9.93l-.46-4.61-2.32,4.61c-3.69-1.45-11.45-.14-14.36,2.77-.3-.66-.61-1.08-1.39-.92l-1.39,4.16c-3.14,3.91-3.48,9.95-4.17,14.77l-3.14-6.33c-5.1-7.78-10.73-9.26-17.25-1.76-2.37,2.73-4.13,5.84-4.63,9.48-1.27-.72-1.43-2.34-2.31-3.46-2.47-3.12-5.8-2.1-9.26-1.62,10.69-6.41,26.78-13.08,38.6-18.09,6.77-2.87,13.85-5.14,20.7-7.77Z"/>
        <path class="cls-2" d="M32.14,27.75c-3.31,1.98-6.57,4.1-8.8,7.39-.07-1.59-2.75-2.37-2.79-3.44-.04-1.4,1.38-2.6,2.79-2.56,3.56.11,5.23-.88,8.8-1.39Z"/>
        <path class="cls-1" d="M23.34,29.13c7.45-3.53,14.84-7.36,22.39-10.7,7.09-3.14,14.92-6.5,22.1-9.37,7.78-3.11,15.71-6.04,23.84-8.1.83.48-.21.88-.23.93-6.85,2.63-13.93,4.9-20.7,7.77-11.82,5.01-27.91,11.68-38.6,18.09-3.57.5-5.24,1.5-8.8,1.39Z"/>
        <path class="cls-1" d="M90.05,10.67c.31.12,4.97,3.34,5.36,3.66,5.95,5.1,9.22,17.42,9.47,24.96-.73.14-1.01-.15-1.28-.79-.76-1.79-.72-5.13-1.26-7.06-2.48-8.89-10.15-23.49-21.66-18.34-7.05,3.15-9.76,12.23-10.54,19.27-.23,2.08-.94,3.88,0,6-1.69.14-.63-.17-1.39-.46-.5-1.43-.6-3.27-1.16-4.63-.34-.84-1.11-1.26-1.16-1.37-1.7-3.91-2.82-7.68-6.51-10.36-6.11-4.44-11.64,5.47-13.87,9.9-.36.72-1.21,1.21-1.54,2.39-.29,1.02-.14,5-1.01,4.99-1.35-.01.23-4.58-2.08-4.61-1.17-7.34-7.2-5.87-11.8-2.3-2.82,2.19-5.13,5.68-7.12,8.62-.26.39-1.22,3.16-1.47.83-.18-1.63,1.38-4.83,2.33-6.23,2.23-3.29,5.49-5.4,8.8-7.39,3.47-.49,6.79-1.51,9.26,1.62.89,1.12,1.05,2.74,2.31,3.46.5-3.63,2.25-6.75,4.63-9.48,6.52-7.5,12.15-6.02,17.25,1.76l3.14,6.33c.7-4.82,1.03-10.86,4.17-14.77.48-.6,2.35-2.8,2.78-3.23,2.91-2.91,10.67-4.22,14.36-2.77Z"/>
        <path class="cls-3" d="M46.04,31.44c-.6,2.75,3.23.6,4.46.5,3.04-.26,5.93.1,8.72.46,2.24.29,4.83-.94,7.2-.49.05.11.82.53,1.16,1.37.56,1.36.65,3.2,1.16,4.63-.54-.2-5.02.96-6.26.96-1.58,0-2.91-.57-4.61-.51-2.13.07-4.86,1.3-6.74,1.39-1.67.08-2.22-.9-3.34-.85-1.7.08-6.17,1.21-8.18,1.63-.82.17-1.73-.2-1.45,1.07-.79.09-1.81.34-2.78.46.3-2.19-2.84-.13-3.71,0-.78.12-5.82.53-6.19.4-.83-.28-1.05-1.72-.72-2.21.35-.51,3.34-.56,4.12-.51.2-.18-1.28-1.85.82-2.65,3.66-.14,8.21-2.94,11.69-2.89,2.32.03.73,4.59,2.08,4.61.87,0,.72-3.96,1.01-4.99.34-1.18,1.18-1.67,1.54-2.39Z"/>
        <path class="cls-4" d="M51.14,40.21c11.83-.81,23.59,0,35.46-.48l28.01,1.87c.16,1.13-.02.73-.65.97-2.22.86-4.73-.41-7-.51-26.22-1.09-52.02-.79-78.08,2.06-2.22.24-4.92,1.16-7.16,1.19-.74,0-1.21-.43-.7-.93.64-.62,9-1.61,10.65-1.85,1.24-.19,2.47-.3,3.71-.46.97-.13,1.99-.37,2.78-.46,4.28-.5,8.8-1.1,12.97-1.39Z"/>
        <path class="cls-3" d="M70.13,32.36l6.95-.46c.51,1.59-1.72,1.33-.69,2.77l15.03-1.84c.34.52.4,2.64.5,2.74.3.3,4.61-.22,5.68.04.33.08.27.75.67.88,1.78.59,3.86-.46,2.63,2.81l-17.13-.45c-4.18-1.77-9.2-.87-13.64-.49-.94-2.13-.23-3.93,0-6ZM85.42,37.9h11.58l-5.3-.94c-1.38.06-2.76-.07-4.14.08-.48.05-2.18.18-2.14.87Z"/>
      </g>
    </g>
  </g>
</svg>