<svg xmlns="http://www.w3.org/2000/svg" id="uuid-f1ceab68-a13b-4a5c-9c63-b236589d9d89" data-name="Capa 2" viewBox="0 0 1387.08 644.94"><g id="uuid-fe5f6f4c-9101-4b6f-a988-1662c2e02b10" data-name="Capa 1"><path d="M232.61 71.82c-1.66-.35-3.36-.39-5.02-.07 1.66-.32 3.37-.29 5.02.07m6.24 21.11c-4.9 4.9-12.84 4.9-17.73 0 4.9 4.89 12.83 4.89 17.74 0 4.28-4.29 4.82-10.91 1.6-15.77 3.22 4.87 2.68 11.49-1.6 15.77m-2.42-19.12c.15.05.32.03.46.09-.15-.06-.31-.04-.46-.09" style="fill:#e0001a"/><path d="M240.19 81.35c.6-1.65.36-3.47-.57-5.01.94 1.54 1.17 3.35.57 5.01m-9.66-6.16a5.87 5.87 0 0 1 4.16-1.72c-1.51 0-3.02.57-4.17 1.72-2.29 2.3-2.29 6.03 0 8.32.58.58 1.24 1.01 1.95 1.29a5.7 5.7 0 0 1-1.94-1.29c-2.29-2.29-2.29-6.02 0-8.32" style="fill:#e0001a"/><path d="M238.85 75.19s-.01 0-.02-.02c-.57-.57-1.22-.99-1.93-1.28-.15-.06-.31-.04-.46-.09-.57-.18-1.15-.34-1.75-.34-1.51 0-3.01.57-4.16 1.72-2.29 2.3-2.29 6.03 0 8.32.57.57 1.24 1.01 1.95 1.29 2.13.86 4.65.43 6.38-1.29.63-.63 1.05-1.37 1.33-2.16.6-1.66.36-3.47-.57-5.01-.24-.39-.43-.81-.77-1.15ZM92.48 129.03l34.5-28.39c7.19-19.77 14.73-39.9 22.65-56.79 3.95 8.98 7.62 17.99 11.57 27.69 18.95-15.54 30.56-24.83 46.22-29.27-9.71-21.21-16.47-35.8-19.71-42.27h-76.55c-6.47 13.66-30.9 64.34-59.29 132.98h27.66c5.03 0 9.35-.72 12.94-3.95" style="fill:#e0001a"/><path d="M203.57 140.28c.31-.04.61 0 .94.16.71.37.81 1.16.45 1.88-5.03 12.22-17.61 37.02-40.61 51.76h30.91c20.17 0 35.67-9.76 42.05-19.76 21.32-34.43 28.75-89.12 28.75-89.14l-8.27-3.59c-1.08-.36-1.43-1.43-.36-2.51l6.11-7.55c-3.95-7.55-17.61-19.76-37.73-19.76-11.96 0-22.39 3.19-31.78 9.31 0 0-13.65 9.27-33.54 26.46-22.91 19.81-54.08 50.14-82.18 88.99-.76 1.08.15 2.46 1.22 2.46h36.3c23.72 0 54.63-4.31 86.61-38.1.39-.39.75-.56 1.12-.6m17.56-65.1a12.47 12.47 0 0 1 6.47-3.44c1.66-.32 3.37-.28 5.02.07 2.28.49 4.46 1.6 6.23 3.37v.01c.61.61 1.14 1.26 1.6 1.95 3.22 4.86 2.69 11.48-1.6 15.77-4.9 4.89-12.84 4.9-17.74 0-4.9-4.89-4.9-12.84 0-17.74M0 283.93h68.29L91.4 211.7H24.9C17 233.26 8.62 256.99 0 283.93m205.99-68.02 24.2 68.02h67.5c-14.01-41.69-29.1-80.86-43.11-116.8-11.69 24.13-22.75 36.25-48.58 48.78" style="fill:#e0001a"/><path d="M238.86 75.2v-.01s0 .01.01.02m-.02-.01h-.02s.02 0 .02.02Zm-1.54 99.12c-6.39 10-21.88 19.76-42.05 19.76h-30.91c-7.91 4.68-10.43 6.12-21.57 10.43-.79.31-1.08 1.08-.71 2.16l27.61 77.27h15.82l-25.35-70.8c16.47 0 55.84-4.38 77.16-38.81m-37.65-26.05c1.69-2.55 3.3-5.16 4.84-7.83-.33-.16-.63-.21-.94-.17-.36.04-.73.22-1.12.61-31.98 33.79-62.89 38.1-86.61 38.1h-36.3c-1.07 0-1.98-1.38-1.23-2.46 28.1-38.85 59.27-69.19 82.18-88.99l-60.82 50.83c-4.68 3.95-10.42 6.47-18.33 6.47H4.79c-2.16 0-1.44 1.79-1.08 2.87 5.39 16.54 19.77 31.28 44.93 31.28l-17.98 18.33c-.72.72-.72 2.51 1.09 2.51h68.28c49.37 0 79.71-21.44 99.64-51.55m58.13-66.7 8.26 3.6 23.35-10.78c1.45-.71 1.08-2.87-.71-2.87h-25.16l-6.1 7.55c-1.08 1.08-.72 2.16.36 2.51" style="fill:#e0001a"/><path d="m178.37 223.55 21.56 60.38h15.82l-22.64-63.25c-4.31 1.08-9.35 2.16-14.74 2.88m56.32-150.09c.59 0 1.17.16 1.75.34-.57-.18-1.15-.34-1.75-.34m4.14 1.7.01.01m-6.36 9.62c2.13.87 4.66.44 6.38-1.29.63-.63 1.05-1.37 1.33-2.16-.28.78-.7 1.53-1.33 2.16a5.87 5.87 0 0 1-6.38 1.29m7.14-8.46c-.24-.39-.42-.8-.75-1.13 0 0 0-.01-.01-.01.34.34.53.76.77 1.15m-36.06 63.93c-.37.05-.73.22-1.12.61.39-.39.76-.56 1.12-.61" style="fill:#e0001a"/><path d="M240.46 77.16c-.46-.69-.99-1.35-1.6-1.95.6.61 1.14 1.26 1.59 1.95m-19.33 15.77c-4.9-4.9-4.9-12.84 0-17.74-4.9 4.9-4.9 12.84 0 17.74m36.31-13.85c-1.07 1.07-.72 2.15.36 2.51l8.27 3.59-8.26-3.6c-1.08-.35-1.43-1.43-.36-2.51l6.1-7.55-6.11 7.55Zm-18.59-3.9a12.47 12.47 0 0 0-6.23-3.37c2.27.49 4.44 1.59 6.22 3.36h.02m0 .03.01.01v-.02m-.03-.01s.01 0 .02.01h-.02m-35.26 349.09c-.37.05-.73.22-1.12.61.39-.39.76-.56 1.12-.61m1095.98-316.53c-56.66 0-87.51 31.57-87.51 89.67s30.85 89.67 87.51 89.67 87.52-31.57 87.52-89.67-30.84-89.67-87.52-89.67m0 132c-20.8 0-29.41-13.99-29.41-42.32s8.61-42.32 29.41-42.32 29.42 14.35 29.42 42.32-8.61 42.32-29.42 42.32m-353.63-132c-27.98 0-44.49 9.69-57.4 23.32-8.59-15.43-24.38-23.32-47.34-23.32-27.98 0-44.12 9.32-56.31 22.6l-3.59-19.01h-45.19v172.17h55.96V164.07c4.66-5.73 15.78-11.84 25.11-11.84 15.42 0 24.02 8.97 24.02 25.11v106.17h55.6V164.07c4.65-5.73 15.77-11.84 25.1-11.84 15.42 0 24.04 8.97 24.04 25.11v106.17h55.59v-113.7c0-41.6-17.92-62.05-55.59-62.05m181.84-.01c-25.46 0-43.04 8.61-52.73 22.6l-2.87-19.01h-45.55v225.97h55.96v-52.36c9.33 1.43 16.13 2.15 22.23 2.15 57.04 0 88.24-32.65 88.24-92.54s-22.24-86.8-65.29-86.8m-21.87 134.86c-10.41 0-15.78-.72-23.31-2.51v-76.04c5.01-5.73 13.26-11.84 26.9-11.84 16.5 0 25.46 15.07 25.46 44.48s-9.68 45.91-29.05 45.91m-559.15-38.74c0 58.11 21.52 83.22 63.13 83.22 25.47 0 43.04-8.61 52.73-22.6l2.87 19.01h45.55v-165c-18.3-5.73-39.1-10.76-78.19-10.76-55.6 0-86.09 34.08-86.09 96.12m108.31 26.91c-5.02 5.75-13.27 11.84-26.9 11.84-15.06 0-23.31-13.99-23.31-40.89 0-33 8.97-49.5 26.9-49.5 10.4 0 15.78.72 23.31 2.52v76.04Zm-343.6-184h55.95v236.73h-55.95zm177.19 192.61c-27.62 0-41.97-17.21-41.97-43.4s14.35-40.53 41.62-40.53c14.69 0 26.54 3.95 36.94 10.76l7.89-46.99c-15.07-6.45-31.2-11.48-58.47-11.48-55.6 0-86.08 31.93-86.08 90.39s28.69 88.95 84.64 88.95c26.91 0 52.73-8.26 63.49-15.42l-7.89-43.76c-12.55 6.45-24.75 11.48-40.17 11.48M367.18 557.73c-8.48 0-16.54-2.44-24.15-7.31-7.62-4.86-13.63-11.78-18.03-20.74-3.46-4.87-5.18-11.39-5.18-19.56q0-8.25 6.36-8.25c.16 0 .86-.07 2.12-.23q1.89-.225 3.54 0c1.1.16 2.12.55 3.06 1.18.32.16.75 1.1 1.3 2.83s1.33 4.4 2.36 8.01c1.02 3.62 1.84 6.44 2.47 8.48 1.57 4.88 4.24 9.55 8.01 14.02 3.77 4.48 8.09 7.58 12.96 9.31 2.51 2.52 6.09 2.68 10.73.47 4.63-2.2 6.95-5.73 6.95-10.61s-1.73-12.41-5.18-22.15c-3.14-9.58-6.91-19.33-11.31-29.23-3.77-9.27-7.54-19.95-11.31-32.05q-4.95-17.445-4.95-29.46c0-11.78 3.61-20.35 10.84-25.69 5.34-4.09 13.75-6.13 25.22-6.13s19.95 3.93 25.46 11.78q8.01 11.55 8.01 28.05 0 11.55-3.54 21.21c-.47 1.26-1.65 1.88-3.54 1.88-2.67 0-5.58-1.1-8.72-3.3q-4.725-3.3-3.54-6.12c.78-6.6 1.18-12.02 1.18-16.26 0-8.49-1.65-15.4-4.95-20.74-2.52-3.93-5.66-5.89-9.43-5.89-2.98 0-6.68 1.49-11.07 4.48-1.89 1.41-3.46 3.3-4.72 5.65-1.26 2.67-1.96 6.99-2.12 12.96-.32 7.23 2.2 17.99 7.54 32.29l16.73 43.6c5.66 14.3 8.49 24.83 8.49 31.58q0 4.005-1.41 6.6c-1.89 5.98-5.58 10.68-11.08 14.14s-11.86 5.18-19.09 5.18m115.72-3.28c-6.91.78-12.77-1.3-17.56-6.25-4.8-4.95-7.51-11.82-8.14-20.62-13.51 14.78-25.14 21.77-34.88 20.98-6.12-.62-10.25-3.02-12.37-7.19-2.12-4.16-2.4-9.11-.83-14.85 1.57-5.73 4.12-11.75 7.66-18.03s7.74-12.1 12.61-17.44c3.77-4.24 7.93-7.78 12.49-10.61 4.55-2.83 9.35-4.6 14.38-5.3 5.03-.71 9.66.43 13.91 3.41q3.06-4.47 11.07 0c5.03 2.52 6.75 5.42 5.19 8.72-4.09 7.39-7.54 15.32-10.37 23.81q-4.71 13.665-4.71 22.62c0 2.99.62 5.23 1.88 6.72 1.25 1.5 3.22 2.17 5.9 2.01 1.09 0 2.43-.19 4.01-.59q2.355-.585 4.71-1.77c1.57-.78 3.22-1.65 4.95-2.59q2.595-1.41 4.83-2.94c1.49-1.02 2.98-2.01 4.47-2.95s2.75-1.81 3.77-2.59c1.02-.79 1.84-1.49 2.47-2.12l1.18-.71q1.65-1.41 1.65 0c-.16 2.67-3.06 7.54-8.72 14.62-6.92 8.48-13.44 13.04-19.57 13.67m-59.61-21.7c-.32 1.26-.35 2.17-.12 2.71.23.55.83.67 1.76.36 4.56-1.41 11.79-7.54 21.68-18.39 10.85-12.09 16.27-20.74 16.27-25.92-1.89-2.36-5.42-1.69-10.6 2.01-5.18 3.69-10.61 9.27-16.27 16.73-5.65 7.46-9.9 14.96-12.73 22.51" style="fill:#e0001a"/><path d="M537.12 554.67q-12.03 0-20.04-4.95c-4.4-2.51-7.35-6.01-8.84-10.49S506 528.66 506 520.96c0-10.37 2.91-24.75 8.72-43.13 3.77-11.63 8.33-23.41 13.67-35.36 5.66-12.1 11.86-23.1 18.62-33q7.08-10.83 14.85-13.2c.94-.31 2.27-.47 4.01-.47 4.55 0 8.72 1.3 12.49 3.89s5.73 5.93 5.89 10.02c.32 12.25-1.96 23.96-6.83 35.12-7.07 16.65-14.77 31.11-23.1 43.37q-19.095 29.46-33 39.36c0 10.85 4.32 16.27 12.96 16.27s17.05-3.85 25.69-11.55c1.1-.78 2.91-2.43 5.42-4.95 2.51-2.36 4.01-3.22 4.48-2.59l.47.94c.32 1.41-.31 3.85-1.88 7.31s-3.38 6.2-5.42 8.25q-13.44 13.44-25.92 13.44m-15.08-43.38c5.65-6.28 10.84-12.88 15.55-19.8q11.07-15.555 16.5-27.81l4.01-8.72 4.72-9.9c5.49-11.15 8.56-21.36 9.19-30.64.16-.47.23-1.33.23-2.59q0-3.06-1.41-3.06c-2.67 0-8.1 7.62-16.27 22.86a507 507 0 0 0-21.21 45.02q-7.32 17.205-11.31 34.65" style="fill:#e0001a"/><path d="M596.04 553.01c-7.7 0-14.7-2.59-20.98-7.78-3.46-2.83-5.73-5.73-6.83-8.72q-1.65-4.485-1.65-11.55c0-12.1 5.1-23.49 15.32-34.17 10.37-10.68 20.11-16.03 29.22-16.03 2.67 0 5.19.71 7.54 2.12 3.3 1.88 5.27 4.8 5.9 8.72.15.63.23 1.96.23 4.01 0 3.62-.63 7.3-1.88 11.08-1.89 5.65-4.91 10.61-9.07 14.85-4.17 4.24-9 6.99-14.5 8.25-.47.15-1.49.23-3.06.23-5.19 0-9.82-1.33-13.91-4.01q-4.005 12.495 1.41 18.15c1.89 2.04 5.18 3.06 9.9 3.06 15.4 0 30.01-6.91 43.84-20.74.16-.15.39.08.71.71.47 3.77-1.26 8.09-5.18 12.96l-.95 1.17c-4.24 4.88-9.82 9.04-16.73 12.49-6.92 3.46-13.36 5.19-19.33 5.19m-8.25-42.88c3.14 1.73 6.99.4 11.55-4.01 2.2-1.57 5.27-4.72 9.19-9.43 4.25-4.86 5.97-8.01 5.19-9.43-.16-1.25-2.01-.74-5.54 1.53q-5.31 3.42-11.55 9.78c-4.17 4.24-7.11 8.09-8.84 11.55" style="fill:#e0001a"/><path d="M663.68 557.49c-1.88 0-3.15-.08-3.77-.23-4.87 0-11.23-3.7-19.09-11.08-7.7-7.54-11.55-13.28-11.55-17.2 0-1.73 1.26-3.3 3.77-4.72.94-.47 1.8-.71 2.59-.71 1.57 0 4.56 3.15 8.96 9.43s7.86 9.98 10.37 11.07c1.41-.94-.63-9.35-6.12-25.22-3.46-9.43-5.19-17.52-5.19-24.28 0-14.14 6.21-22 18.62-23.57 6.44-.62 11.86 1.34 16.26 5.9s6.6 10.29 6.6 17.2c0 7.54-2.12 11.32-6.36 11.32-2.2 0-4.33-1.02-6.36-3.06-1.26-1.25-1.89-2.51-1.89-3.77 0-.15.16-1.1.48-2.83.31-1.73.47-2.99.47-3.77 0-1.26-.23-2.67-.7-4.24q-1.65-4.95-5.19-4.95c-5.19 0-6.76 6.21-4.71 18.62 1.1 5.51 2.98 12.89 5.65 22.15 2.98 14.46 4.48 22.71 4.48 24.75 0 3.46-.55 5.86-1.65 7.19s-2.98 2.01-5.65 2.01m73.99 87.44c-8.8 0-16.06-3.1-21.8-9.31-5.73-6.21-8.6-13.94-8.6-23.21 0-5.65.78-9.74 2.35-12.25.79-1.26 1.42-.94 1.89.94 2.83 9.9 6.25 17.2 10.25 21.92 4.01 4.71 9.23 7.07 15.67 7.07s12.22-2.63 18.26-7.9c6.05-5.26 11.43-12.46 16.15-21.57 9.11-16.97 16.03-34.41 20.74-52.33.62-2.04 1.41-5.1 2.36-9.19 1.25-5.66 2.43-10.29 3.54-13.91.47-1.09 1.18-4.55 2.12-10.37-5.97 8.65-13.28 17.6-21.92 26.88-8.8 8.95-15.71 13.43-20.74 13.43-3.3 0-6.64-1.22-10.02-3.65s-5.54-5.15-6.48-8.13c-.63-1.41-.94-3.54-.94-6.36 0-6.91 2.91-16.11 8.72-27.58 6.91-13.82 15.71-24.12 26.4-30.88 3.77-2.36 7.3-3.53 10.6-3.53 7.23 0 13.98 3.38 20.27 10.14 2.67-2.67 5.26-4.32 7.78-4.95.62-.16 1.88.15 3.77.94 1.88.79 3.3 1.57 4.24 2.36q3.54 2.835 3.54 6.6c0 3.765-1.49 5.98-4.48 10.37-2.83 4.56-4.48 7.47-4.95 8.72-1.89 10.22-4.72 22.71-8.49 37.48-3.3 13.2-5.82 22.31-7.54 27.34-17.13 47.29-38.03 70.95-62.7 70.95m17.92-104.91c3.61 0 10.76-5.81 21.45-17.44 10.84-12.09 18.3-21.52 22.39-28.28-3.46-2.67-5.97-4-7.54-4-4.56 0-11.47 5.65-20.74 16.97l-5.89 8.01c-2.83 3.93-5.27 7.94-7.31 12.02-2.67 4.88-4.01 8.33-4.01 10.37 0 1.57.55 2.36 1.65 2.36m143.77 14.37c-6.91.78-12.77-1.3-17.56-6.25-4.8-4.95-7.51-11.82-8.14-20.62-13.51 14.78-25.14 21.77-34.88 20.98-6.12-.62-10.25-3.02-12.37-7.19-2.12-4.16-2.4-9.11-.83-14.85 1.57-5.73 4.12-11.75 7.66-18.03s7.74-12.1 12.61-17.44c3.77-4.24 7.93-7.78 12.49-10.61s9.35-4.6 14.38-5.3c5.03-.71 9.66.43 13.91 3.41q3.06-4.47 11.07 0c5.03 2.52 6.75 5.42 5.19 8.72-4.09 7.39-7.54 15.32-10.37 23.81q-4.71 13.665-4.71 22.62c0 2.99.62 5.23 1.88 6.72 1.25 1.5 3.22 2.17 5.9 2.01 1.09 0 2.43-.19 4.01-.59q2.355-.585 4.71-1.77c1.57-.78 3.22-1.65 4.95-2.59q2.595-1.41 4.83-2.94c1.49-1.02 2.98-2.01 4.47-2.95s2.75-1.81 3.77-2.59c1.02-.79 1.84-1.49 2.47-2.12l1.18-.71q1.65-1.41 1.65 0c-.16 2.67-3.06 7.54-8.72 14.62-6.92 8.48-13.44 13.04-19.57 13.67m-59.61-21.7c-.32 1.26-.35 2.17-.12 2.71.23.55.83.67 1.77.36 4.56-1.41 11.79-7.54 21.68-18.39 10.85-12.09 16.27-20.74 16.27-25.92-1.89-2.36-5.42-1.69-10.6 2.01-5.18 3.69-10.61 9.27-16.27 16.73-5.65 7.46-9.9 14.96-12.73 22.51" style="fill:#e0001a"/><path d="M995.06 552.31c-3.46 0-6.99-.86-10.61-2.59s-6.36-4.09-8.25-7.07c-5.03-7.85-4.8-21.36.71-40.54l-21.45 21.44c-7.7 7.86-13.36 13.99-16.97 18.39q-7.08 9.66-11.31 9.66c-2.04 0-4.17-1.34-6.36-4.01-2.04-2.67-3.06-5.11-3.06-7.31 0-1.57.7-4.71 2.12-9.43l6.6-22.86 8.96-31.58c.94-3.93 2.16-6.2 3.65-6.84 1.49-.62 3.81.08 6.96 2.12 5.66 2.99 7.62 6.52 5.89 10.6-.15.16-.91 2.16-2.24 6.01-1.34 3.85-3.03 8.64-5.07 14.38-2.05 5.74-3.7 10.33-4.95 13.79l22.39-22.16c2.98-2.98 6.6-5.81 10.84-8.48 4.4-2.98 7.85-4.48 10.37-4.48 2.04 0 4.36 1.1 6.95 3.3s3.89 4.4 3.89 6.6c0 .79-.94 5.65-2.83 14.62-2.04 8.33-3.07 15.16-3.07 20.51 0 10.21 2.75 15.32 8.25 15.32 2.98 0 6.52-1.18 10.6-3.54l9.43-6.13 8.72-5.18c.48-.32.71-.07.71.7 0 2.52-1.81 5.98-5.42 10.37l-1.41 1.65c-6.29 6.75-12.26 10.76-17.91 12.02-1.89.47-3.93.71-6.13.71" style="fill:#e0001a"/><path d="M1087.45 554.43c-6.91.78-12.77-1.3-17.56-6.25-4.8-4.95-7.51-11.82-8.14-20.62-13.51 14.78-25.14 21.77-34.88 20.98-6.12-.62-10.25-3.02-12.37-7.19-2.12-4.16-2.4-9.11-.83-14.85 1.57-5.73 4.12-11.75 7.66-18.03s7.74-12.1 12.61-17.44c3.77-4.24 7.93-7.78 12.49-10.61s9.35-4.6 14.38-5.3c5.03-.71 9.66.43 13.91 3.41q3.06-4.47 11.07 0c5.03 2.52 6.75 5.42 5.19 8.72-4.09 7.39-7.54 15.32-10.37 23.81q-4.71 13.665-4.71 22.62c0 2.99.62 5.23 1.88 6.72 1.25 1.5 3.22 2.17 5.9 2.01 1.09 0 2.43-.19 4.01-.59q2.355-.585 4.71-1.77c1.57-.78 3.22-1.65 4.95-2.59q2.595-1.41 4.83-2.94c1.49-1.02 2.98-2.01 4.47-2.95s2.75-1.81 3.77-2.59c1.02-.79 1.84-1.49 2.47-2.12l1.18-.71q1.65-1.41 1.65 0c-.16 2.67-3.06 7.54-8.72 14.62-6.92 8.48-13.44 13.04-19.57 13.67m-59.61-21.7c-.32 1.26-.35 2.17-.12 2.71.23.55.83.67 1.77.36 4.56-1.41 11.79-7.54 21.68-18.39 10.85-12.09 16.27-20.74 16.27-25.92-1.89-2.36-5.42-1.69-10.6 2.01-5.18 3.69-10.61 9.27-16.27 16.73-5.65 7.46-9.9 14.96-12.73 22.51" style="fill:#e0001a"/><path d="M1183.15 552.31c-3.46 0-6.99-.86-10.61-2.59s-6.36-4.09-8.25-7.07c-5.03-7.85-4.8-21.36.71-40.54l-21.45 21.44c-7.7 7.86-13.36 13.99-16.97 18.39q-7.08 9.66-11.31 9.66c-2.04 0-4.17-1.34-6.36-4.01-2.04-2.67-3.06-5.11-3.06-7.31 0-1.57.7-4.71 2.12-9.43l6.6-22.86 8.96-31.58c.94-3.93 2.16-6.2 3.65-6.84 1.49-.62 3.81.08 6.96 2.12 5.66 2.99 7.62 6.52 5.89 10.6-.15.16-.91 2.16-2.24 6.01-1.34 3.85-3.03 8.64-5.07 14.38-2.05 5.74-3.7 10.33-4.95 13.79l22.39-22.16c2.98-2.98 6.6-5.81 10.84-8.48 4.4-2.98 7.85-4.48 10.37-4.48 2.04 0 4.36 1.1 6.95 3.3s3.89 4.4 3.89 6.6c0 .79-.94 5.65-2.83 14.62-2.04 8.33-3.07 15.16-3.07 20.51 0 10.21 2.75 15.32 8.25 15.32 2.98 0 6.52-1.18 10.6-3.54l9.43-6.13 8.72-5.18c.47-.32.71-.07.71.7 0 2.52-1.81 5.98-5.42 10.37l-1.41 1.65c-6.29 6.75-12.26 10.76-17.91 12.02-1.89.47-3.93.71-6.13.71" style="fill:#e0001a"/><path d="M1282.84 552.31c-7.39.62-13.43-1.77-18.15-7.19s-7.07-13.39-7.07-23.92c-.32.63-2.44 3.77-6.36 9.43-2.05 2.67-5.27 5.97-9.67 9.9-4.56 4.09-9.75 6.13-15.56 6.13-7.54 0-12.96-3.54-16.26-10.6-1.41-2.98-2.12-6.2-2.12-9.66 0-11 5.49-23.18 16.5-36.54 7.54-9.43 14.38-14.14 20.5-14.14 4.4 0 8.8 1.97 13.2 5.89 2.67 2.35 4.16 3.54 4.47 3.54s1.33-2.04 3.07-6.13l8.48-22.39a334 334 0 0 1 6.6-15.56c6.44-14.77 11.08-26.16 13.91-34.18 1.89-5.65 4.16-8.48 6.83-8.48q3.06 0 6.84 5.19c2.98 4.4 2.67 11.16-.94 20.27l-21.92 53.5c-4.09 8.17-7.15 15.56-9.19 22.15-3.62 11.79-5.42 20.98-5.42 27.58s1.49 10.92 4.47 12.02c1.1.63 2.75.94 4.95.94 3.77 0 7.78-1.02 12.02-3.06 2.67-1.1 5.58-2.59 8.72-4.48 3.14-1.88 5.66-3.45 7.54-4.71s2.91-1.89 3.06-1.89q1.65-.705 1.65.24c-.16 2.52-3.38 6.99-9.67 13.44-7.54 7.86-14.38 12.1-20.51 12.73m-60.54-20.53c3.46 0 9.74-5.18 18.86-15.55 9.27-10.53 13.91-17.36 13.91-20.51 0-.78-.55-1.8-1.65-3.07-1.1-1.25-2.04-1.88-2.83-1.88-4.24 0-10.21 5.03-17.91 15.08-7.86 10.22-11.78 17.99-11.78 23.33 0 1.73.47 2.59 1.41 2.59" style="fill:#e0001a"/><path d="M1325.5 549.48c-3.14 0-6.21-.79-9.19-2.36-7.54-2.51-11.31-8.33-11.31-17.44s2.98-19.48 8.96-30.17c0-.15.94-1.96 2.83-5.42 1.89-3.45 3.38-6.12 4.48-8.01 6.6-11.15 11.7-16.89 15.32-17.2 1.73-.15 3.81.67 6.25 2.48 2.43 1.81 4.2 3.57 5.3 5.3.94 2.04 1.41 3.54 1.41 4.48v.48c0 .63.94 1.73 2.83 3.3.94.79 4.56 3.46 10.84 8.02 3.3 2.35 4.94 5.89 4.94 10.61 0 1.73-.08 2.83-.23 3.3-.31 4.25-2.2 8.72-5.65 13.44-1.26 1.57-2.12 2.67-2.59 3.3l-6.36 7.31c-11 12.41-20.27 18.62-27.81 18.62m-4.03-13.71c3.3 0 9.51-4.95 18.62-14.85 9.27-10.06 13.9-16.89 13.9-20.51 0-1.09-.47-2.12-1.41-3.06l-2.83-.71c-5.34-1.41-9.12-1.49-11.31-.23-5.5 3.15-10.84 11.79-16.03 25.92-1.89 4.88-2.83 8.41-2.83 10.61 0 1.88.62 2.83 1.88 2.83" style="fill:#e0001a"/></g></svg>