<?xml version="1.0" encoding="UTF-8"?>
<svg id="Capa_2" data-name="Capa 2" xmlns="http://www.w3.org/2000/svg" viewBox="0 0 143.22 103.57">
  <defs>
    <style>
      .cls-1 {
        fill: #e4041f;
      }

      .cls-2 {
        fill: #fbb900;
      }

      .cls-3 {
        fill: none;
        stroke: #fbb900;
        stroke-miterlimit: 10;
        stroke-width: .41px;
      }

      .cls-4 {
        fill: #002c75;
      }
    </style>
  </defs>
  <g id="Capa_1-2" data-name="Capa 1">
    <g id="Layer_2" data-name="Layer 2">
      <g id="Layer_1-2" data-name="Layer 1-2">
        <g>
          <path class="cls-4" d="M68.06,41.16c-10.88-6.85-21.75-13.69-32.68-20.59.15-.13.28-.23.39-.33,4.06-3.19,8.12-6.4,12.2-9.6,1.33-1.05,2.41-1.08,3.82-.16,1.13.74,2.38.66,3.52-.26,3.57-2.85,7.14-5.7,10.71-8.55.69-.56,1.38-1.1,2.1-1.67,10.89,6.86,21.8,13.71,32.73,20.59-.13.11-.21.21-.33.29-4.16,3.26-8.3,6.52-12.46,9.78-1.1.87-2.36.92-3.49.15-1.29-.87-2.47-.82-3.72.16-4.14,3.29-8.29,6.6-12.43,9.89-.11.1-.25.18-.38.29,0,0,.02,0,.02,0Z"/>
          <path class="cls-2" d="M65.94,32.27c.74.46,1.43.85,2.08,1.28.29.2.51.15.77-.07,2.34-1.87,4.68-3.72,7.03-5.57,1.28-1.02,2.42-1.06,3.78-.15,1.08.72,2.34.67,3.37-.13.67-.52,1.34-1.05,2.01-1.57,3.01-2.39,4.82-5.47,5.47-9.25.05-.29,0-.44-.34-.44-.79,0-1.57-.05-2.36,0-2.9.18-5.47,1.24-7.75,3.01-1.51,1.16-2.98,2.36-4.49,3.54-1.2.93-2.39.97-3.64.11-1.16-.79-2.39-.75-3.49.11-1.08.84-2.15,1.67-3.21,2.54-1.34,1.1-2.82,1.98-4.5,2.44-.38.1-.77.18-1.24.29.1-.26.13-.41.21-.54.69-1,1.24-2.1,2.08-2.93,1.24-1.24,2.67-2.29,4.05-3.41,1.21-.97,2.39-.98,3.67-.1,1.08.72,2.33.69,3.37-.1.67-.51,1.33-1.03,1.98-1.54,3.03-2.38,4.86-5.49,5.52-9.27.05-.31,0-.48-.34-.46-.72,0-1.46-.05-2.18,0-2.95.16-5.57,1.21-7.89,3.01-1.52,1.18-3.01,2.38-4.54,3.55-1.16.92-2.38.95-3.6.13-1.21-.82-2.41-.77-3.55.13-.95.74-1.92,1.47-2.83,2.24-1.64,1.36-3.42,2.44-5.55,2.87-.15.03-.28.03-.49.05.08-.21.11-.34.18-.46.67-.98,1.21-2.1,2.05-2.92,1.39-1.34,2.92-2.54,4.47-3.7.98-.74,2.1-.64,3.13.03,1.41.9,2.49.87,3.78-.16,1.7-1.34,3.41-2.67,5.11-4.01.77-.61,1.54-1.23,2.38-1.88-.75-.46-1.46-.88-2.15-1.33-.26-.16-.43-.11-.66.07-2.42,1.92-4.86,3.83-7.31,5.75-1.18.92-2.39.97-3.64.13-1.15-.77-2.39-.74-3.49.13-.43.33-.84.69-1.28,1-2.29,1.69-4.09,3.77-5.18,6.42-.49,1.2-.84,2.42-1,3.73.26.05.49.1.7.11,3.55.16,6.76-.77,9.6-2.93,1.56-1.2,3.1-2.42,4.64-3.64,1.2-.93,2.38-.97,3.64-.13,1.15.77,2.39.72,3.49-.13.9-.7,1.82-1.41,2.7-2.13,1.38-1.1,2.77-2.15,4.47-2.67.56-.18,1.11-.31,1.79-.49-.1.25-.13.38-.18.51-.66,1.39-1.54,2.62-2.7,3.62-1.11.95-2.26,1.83-3.41,2.74-1.21.97-2.41,1.02-3.72.15-1.11-.75-2.34-.7-3.41.11-.57.43-1.11.88-1.69,1.31-3.16,2.41-5.11,5.54-5.78,9.47-.05.31-.03.48.33.48.85,0,1.7.05,2.54-.02,2.75-.2,5.21-1.2,7.39-2.87,1.61-1.23,3.16-2.49,4.75-3.73,1.08-.84,2.31-.87,3.46-.11,1.31.85,2.46.82,3.67-.13.9-.7,1.82-1.39,2.7-2.13,1.59-1.31,3.31-2.41,5.34-2.88.25-.05.49-.1.84-.15-.51,1.23-1.1,2.31-1.98,3.13-1.41,1.31-2.9,2.51-4.39,3.73-1.16.95-2.39.97-3.64.11-1.13-.75-2.38-.72-3.46.11-1.49,1.18-2.98,2.36-4.49,3.54-1,.79-1.98,1.57-3.06,2.42h.07,0Z"/>
          <path class="cls-4" d="M94.02,56.23h-2.16v-5.06s-.07,0-.1-.02c-.07.2-.15.38-.21.57-.44,1.36-.9,2.74-1.33,4.09-.1.31-.23.48-.57.44-.52-.03-1.18.15-1.54-.1-.34-.25-.39-.93-.56-1.43-.41-1.23-.8-2.46-1.29-3.69v5.16h-2.18v-8.98c1.02,0,2,0,2.98.02.1,0,.25.23.29.38.51,1.57,1,3.16,1.49,4.73.05.15.1.31.26.46.13-.43.28-.85.41-1.29.41-1.29.82-2.59,1.21-3.9.08-.29.2-.43.54-.41.92.03,1.82,0,2.75,0v8.99h0v.02Z"/>
          <path class="cls-1" d="M53.07,81.95c1.74.74,3.39,1.43,5.04,2.13,2.6,1.1,5.21,2.19,7.81,3.31.28.11.51.13.79,0,.97-.44,1.95-.85,3.03-1.33-2.41-1.1-4.72-2.15-7.16-3.24.82-.25,1.51-.48,2.21-.67.13-.03.29.07.43.13,2.1.88,4.19,1.77,6.27,2.67.29.13.54.13.84,0,.74-.38,1.51-.72,2.36-1.11-2.34-.97-4.6-1.9-6.94-2.87.79-.25,1.46-.46,2.13-.66.15-.03.33.03.48.08,1.97.77,3.95,1.54,5.91,2.33.39.16.72.16,1.1,0,.56-.23,1.13-.43,1.79-.67v1.46c0,.1-.16.2-.28.26-.56.28-1.11.56-1.67.79-.18.07-.43.07-.61,0-.54-.18-1.05-.43-1.65-.67v1.31c0,.25-.07.39-.29.51-.79.39-1.56.82-2.36,1.21-.16.08-.41.08-.59,0-.61-.23-1.18-.51-1.83-.8v1.38c0,.26-.07.43-.33.54-.95.44-1.88.92-2.85,1.36-.16.07-.39.08-.56,0-4.26-1.85-8.5-3.7-12.76-5.55-.21-.1-.31-.2-.31-.44v-1.46h0l.02.02Z"/>
          <path class="cls-4" d="M28.71,73.68h-5.45v-15.74c0-.26-.05-.56.44-.43v15.13c0,.41.2.61.59.61h3.93v-7.49c.82.07,1.59.07,2.33.18.67.11,1.2.56,1.49,1.16.46.97.85,1.95,1.21,2.95.34.93.59,1.88.92,2.82.05.13.23.33.34.33h4.41c-.03-.15-.05-.28-.08-.38-.79-2.19-1.59-4.39-2.39-6.58-.28-.77-.64-1.47-1.49-1.8-.08-.03-.16-.18-.16-.28s.1-.18.18-.26c.03-.03.08-.03.13-.05,2.33-.72,3.18-2.52,3.06-4.77-.03-.54-.2-1.08-.31-1.65.26-.1.43,0,.52.33.61,1.93.28,5.18-2.6,6.32-.05,0-.1.07-.18.11,1.33,1.1,1.54,2.75,2.13,4.21.59,1.47,1.08,3,1.65,4.59.11-.26.18-.41.25-.59,1.83-4.85,3.65-9.7,5.49-14.55.1-.28.18-.59.64-.39-1.97,5.21-3.93,10.43-5.93,15.72h4.11c.36,0,.51-.13.62-.44.38-1.06.79-2.11,1.15-3.18.1-.26.21-.39.52-.39h6.6c.28,0,.41.1.49.36.36,1.08.75,2.16,1.11,3.24.1.29.21.43.54.41h4.55c-2.01-5.27-4.03-10.5-6.03-15.72.33-.11.48-.03.57.25,2,5.21,4,10.43,5.98,15.64.03.08.03.18.07.29h-5.14c-.51,0-.84-.25-1-.72-.34-.98-.69-1.95-1.02-2.93-.08-.26-.23-.34-.49-.34h-5.95c-.31,0-.43.13-.52.39-.43,1.21-.88,2.41-1.33,3.62h-10.34c-.31,0-.46-.08-.56-.39-.46-1.49-.95-2.98-1.44-4.46-.13-.41-.33-.8-.51-1.2-.46-.97-1.24-1.43-2.31-1.39h-.8s0,7.45,0,7.45Z"/>
          <path class="cls-4" d="M19.84,59.51c-1.02-.34-1.97-.75-2.96-.98-1.79-.41-3.57-.28-5.31.33-2.05.72-3.29,2.15-3.54,4.34-.25,2.13.2,4.06,1.98,5.44,1.49,1.13,3.21,1.38,5.03,1.1.34-.05.49-.2.49-.57-.03-.93,0-1.88,0-2.88h-2.88v-3.96h8.12c0,.15.02.29.02.44v9.89c0,.38-.13.51-.46.59-2.7.66-5.44.9-8.21.74-1.98-.13-3.87-.67-5.57-1.74-2.56-1.61-3.87-3.98-4.13-6.94-.13-1.52-.03-3.03.39-4.5.82-2.78,2.65-4.67,5.36-5.62,3.8-1.34,7.65-1.29,11.51-.31.48.11.61.33.54.8-.16,1.31-.28,2.62-.41,3.87h0l.02-.02ZM20.33,62.77h-7.24v3.08h2.87v3.44c0,.72,0,.75-.7.88-2.01.36-3.9.08-5.54-1.2-1.7-1.31-2.29-3.13-2.18-5.21.11-2.44,1.24-4.21,3.52-5.16,1.92-.79,3.91-.93,5.93-.51.82.16,1.62.48,2.44.74,0,0,.03,0,.03-.05.11-1.06.23-2.13.33-3.18,0-.1-.18-.28-.29-.31-.77-.18-1.54-.38-2.31-.48-2.7-.33-5.39-.28-8.01.51-2.87.87-5.01,2.57-5.85,5.55-.29,1.05-.41,2.16-.44,3.24-.07,2.46.61,4.68,2.39,6.47,1.95,1.95,4.41,2.77,7.09,2.95,2.51.16,5.01-.07,7.47-.62.41-.1.54-.25.54-.67-.02-2.98,0-5.98,0-8.96v-.49s-.05-.03-.05-.03Z"/>
          <path class="cls-4" d="M46.5,56.26v-6.76h1.93c.02.11.05.25.1.46.88-1.06,2.03-.38,3.08-.51.02-.1.05-.16.05-.25.02-.62.33-1.03.93-1.21.36-.11.7-.23,1.06-.33h.16v1.82h1.43v1.75c-.34,0-.67.02-1,0-.33-.03-.43.11-.43.43v2.15c0,.84.39,1.03,1.15.64.1-.05.18-.08.33-.16.03.66.07,1.28.1,1.93-.9.26-1.77.39-2.62,0-.7-.34-1.05-.97-1.08-1.72-.03-.88-.02-1.77-.02-2.65v-.54h-.92c-.03.15-.05.29-.08.43h-.1c-1.11-.56-1.79-.18-1.85,1.11-.05.98-.05,1.98-.03,2.98,0,.39-.11.52-.49.49-.54-.03-1.08,0-1.67,0l-.03-.03v-.02Z"/>
          <path class="cls-4" d="M72.76,56.2c-1.08.16-2,.08-2.1-.08-.69.1-1.34.28-1.98.26-1.2-.03-2.06-.88-2.39-2.18-.23-.9-.23-1.82,0-2.7.48-1.85,2.26-2.7,4-1.88.08.03.16.07.33.15v-3.11h2.15v9.57h0v-.02ZM70.71,52.87c-.16-.44-.25-.92-.49-1.31-.39-.64-1.26-.56-1.57.11-.38.8-.38,1.62.03,2.41.34.66,1.2.69,1.59.05.21-.36.29-.8.46-1.26h-.02Z"/>
          <path class="cls-4" d="M27.94,53.1v3.13h-2.21v-9.07c1.36.1,2.72.08,4.03.29,1.51.26,2.19,1.33,2.11,2.92-.07,1.39-.97,2.36-2.46,2.59-.46.07-.92.08-1.47.15ZM27.98,49.17v1.95c.56.03,1.15.11,1.43-.41.15-.28.15-.79,0-1.08-.28-.54-.87-.48-1.43-.46Z"/>
          <path class="cls-4" d="M115.1,103.42v-7.19h2.13c.08,0,.2.2.25.33.48,1.51.95,3.01,1.41,4.52.05.16.1.31.2.59.1-.25.15-.38.2-.51.48-1.49.95-2.98,1.39-4.47.11-.39.29-.51.67-.48.56.03,1.11,0,1.7,0v7.17h-1.26v-5.63s-.08,0-.13-.03c-.05.15-.11.29-.16.44-.52,1.61-1.06,3.19-1.56,4.82-.11.34-.25.46-.61.46q-.9,0-1.18-.87c-.52-1.62-1.05-3.23-1.67-4.85,0,.15-.02.31-.02.46v4.78c0,.38-.1.51-.48.48-.28-.03-.56,0-.87,0h-.02v-.02Z"/>
          <path class="cls-4" d="M141.45,73.69h-5.91c-.41-1.16-.82-2.33-1.21-3.51-.11-.36-.28-.51-.67-.51-1.92.03-3.83,0-5.77,0-.33,0-.48.1-.59.41-.41,1.2-.87,2.38-1.31,3.57h-5.54c.36-.97.7-1.9,1.06-2.83,2-5.31,4.01-10.61,6.01-15.92.11-.31.25-.46.62-.46h5.57c.25,0,.41.03.52.31,2.38,6.24,4.77,12.46,7.16,18.71,0,.05.02.08.05.2v.03ZM140.81,73.25c-.07-.2-.1-.31-.15-.43-2.24-5.85-4.49-11.69-6.72-17.54-.1-.28-.25-.36-.54-.36h-4.96c-.31,0-.46.08-.57.39-2.18,5.81-4.39,11.63-6.58,17.44-.05.15-.1.31-.16.51h4.29c.11,0,.29-.18.36-.33.41-1.08.82-2.16,1.2-3.26.1-.28.23-.41.56-.41h6.55c.29,0,.43.1.52.38.36,1.1.75,2.19,1.15,3.28.05.15.23.33.34.33h4.72Z"/>
          <path class="cls-4" d="M94.9,52.86c0-2.11,1.46-3.55,3.54-3.52,2.11.02,3.52,1.47,3.51,3.62,0,2.08-1.47,3.49-3.6,3.47-2.06,0-3.47-1.46-3.46-3.55h.02v-.02ZM99.7,52.82h-.03v-.38c-.07-.75-.52-1.28-1.2-1.31-.64-.03-1.18.39-1.28,1.15-.07.46,0,.95.08,1.41.13.61.54.87,1.15.87s.97-.28,1.15-.88c.08-.28.1-.57.15-.87h-.02v.02Z"/>
          <path class="cls-4" d="M62.46,52.92c0,2.1-1.43,3.51-3.54,3.49-2.06,0-3.51-1.44-3.51-3.51s1.44-3.59,3.54-3.57c2.11,0,3.52,1.44,3.51,3.59ZM57.66,52.87c.03.23.03.46.1.69.16.72.54,1.03,1.21,1.02.66,0,1.06-.36,1.16-1.08.07-.46.08-.93,0-1.38-.16-.77-.88-1.15-1.61-.9-.56.2-.87.8-.87,1.65Z"/>
          <path class="cls-4" d="M38.61,56.26h-1.75c-.15,0-.28-.16-.49-.29-.49.33-1.15.51-1.87.46-.98-.08-1.83-.67-1.95-1.69-.18-1.72-.16-3.47-.23-5.24h2.23c0,.16.02.33.02.49v3.11c0,.26.03.52.07.79.03.33.15.62.51.69.38.08.75,0,.93-.34s.34-.74.36-1.13c.05-1.02.03-2.05.03-3.06v-.52h2.15v6.76h0v-.02Z"/>
          <path class="cls-4" d="M45.72,53.64h-4.14c.08.62.56,1.05,1.26,1,.62-.05,1.21-.29,1.82-.46.18-.05.36-.18.61-.31v1.83s-.13.2-.23.25c-1.31.59-2.64.7-3.95.08-1.28-.59-1.69-1.74-1.72-3.06,0-.36.03-.75.11-1.1.48-2.15,2.57-3.19,4.55-2.23.44.21.87.62,1.13,1.03.56.87.61,1.88.56,2.96ZM43.57,51.96c-.16-.69-.43-.88-1.05-.87-.59.02-.87.28-.97.87h2.01Z"/>
          <path class="cls-4" d="M79.82,53.64h-4.18c.13.54.44.8.9.93.74.21,1.41-.03,2.06-.33.25-.11.49-.25.8-.39v1.79c0,.11-.16.26-.28.31-1.24.57-2.51.66-3.78.15-1.23-.49-1.92-1.74-1.83-3.31,0-.38.07-.77.16-1.15.56-2.13,3.05-3.05,4.86-1.83.9.61,1.18,1.56,1.29,2.56.05.39,0,.8,0,1.26h-.02v.02ZM77.69,51.94c-.15-.66-.39-.87-.98-.87-.62,0-.9.25-1.02.87h2.01-.02Z"/>
          <path class="cls-4" d="M61.19,57.49h.41v15.71h4.13v-.52c-.05-3.83-.08-7.65-.13-11.48v-.38c0-.08.1-.2.18-.21.1,0,.23.03.31.1.08.08.11.21.18.33,2.01,3.93,4.03,7.85,6.03,11.78.16.31.33.44.7.44,1.61-.03,3.23,0,4.83,0h.49v-15.72c.16,0,.29-.03.44-.05v16.23h-6.09c-.33,0-.49-.1-.64-.39-1.85-3.64-3.72-7.27-5.59-10.91-.1-.2-.2-.38-.34-.64v11.89h-4.93v-16.17h.02Z"/>
          <path class="cls-4" d="M79.8,73.69c.54-1.41,1.03-2.74,1.54-4.06,1.47-3.91,2.96-7.85,4.44-11.76.1-.26.18-.51.61-.34-1.97,5.23-3.95,10.45-5.93,15.72h4.39c.1,0,.25-.2.29-.33.41-1.1.82-2.19,1.21-3.31.1-.26.21-.34.49-.34h6.6c.31,0,.43.11.51.39.36,1.08.74,2.16,1.11,3.24.07.21.13.38.43.38h4.42s.11,0,.23-.05c-2-5.23-4-10.43-5.99-15.64.29-.08.51.03.62.34,1.83,4.78,3.67,9.57,5.49,14.33.18.48.36.95.56,1.47h-5.72c-.11,0-.28-.2-.33-.34-.39-1.08-.77-2.16-1.13-3.24-.1-.29-.21-.41-.54-.41h-5.9c-.29,0-.43.1-.52.38-.38,1.1-.79,2.18-1.2,3.26-.07.15-.25.34-.38.34h-5.29v-.03h-.02Z"/>
          <path class="cls-4" d="M106.83,54.25v1.97c-.74.23-1.51.31-2.28.07-.82-.26-1.34-1.02-1.36-1.97v-3.08h-1.18v-1.75h1.15c0-.18.03-.31.03-.44,0-.49.25-.82.74-.98.43-.13.85-.28,1.28-.41.03,0,.07,0,.15.02v1.79h1.41v1.75h-1.36c0,1.03-.02,2,0,2.98,0,.38.33.51.79.38.2-.07.39-.18.64-.29h0v-.02Z"/>
          <path class="cls-4" d="M0,103.42c.95-2.47,1.87-4.83,2.78-7.19h1.62c.92,2.34,1.83,4.72,2.8,7.17h-1.44s-.13-.08-.16-.13c-.05-.07-.07-.15-.08-.21-.16-.41-.21-1-.52-1.2-.34-.21-.92-.1-1.39-.1s-1.06-.15-1.41.07c-.33.21-.43.82-.59,1.26-.08.25-.21.34-.48.33H0ZM4.62,100.62c-.34-1-.69-1.95-1.05-3.03-.38,1.08-.7,2.03-1.05,3.03h2.11-.02Z"/>
          <path class="cls-4" d="M34.97,98.69v-2.98h1.33v7.68h-1.23c-.02-.16-.03-.33-.05-.48-.36.18-.69.43-1.05.52-1.21.34-2.24-.23-2.62-1.43-.25-.77-.25-1.56-.07-2.34.44-1.92,2.56-2.13,3.7-.98h-.02ZM32.5,100.78c.13.39.2.84.39,1.2.36.66,1.24.67,1.7.08.51-.66.49-1.92,0-2.57-.51-.66-1.43-.61-1.79.15-.16.34-.2.74-.31,1.15Z"/>
          <path class="cls-4" d="M104.89,103.4h-1.23c-.03-.16-.05-.33-.08-.49-.34.18-.66.41-1,.52-1.23.36-2.29-.21-2.65-1.43-.26-.84-.26-1.69,0-2.52.46-1.49,2.13-2,3.36-1.03.07.05.11.1.26.21v-2.96h1.34v7.7ZM103.67,100.73c-.15-.41-.23-.85-.46-1.21-.46-.72-1.44-.64-1.8.13-.34.74-.33,1.49,0,2.23.18.38.49.59.92.59s.77-.16.93-.56c.16-.36.25-.75.38-1.18h.03Z"/>
          <path class="cls-4" d="M48.29,103.4h-1.23c-.02-.16-.05-.33-.08-.52-.23.16-.43.33-.64.44-1.21.62-2.6.03-3.01-1.29-.23-.75-.25-1.52-.07-2.29.43-1.95,2.52-2.19,3.69-1.06v-2.96h1.34v7.7ZM44.5,100.77c.13.41.2.85.41,1.23.34.64,1.23.66,1.69.08.52-.66.52-2-.02-2.65-.49-.59-1.39-.52-1.74.18-.16.33-.21.72-.33,1.15h-.02v.02Z"/>
          <path class="cls-4" d="M101.78,73.66v-16.12c.28-.05.43.07.43.36v15.3c.11,0,.2.05.29.05,2.7-.03,5.42,0,8.12-.1,1.59-.05,3.13-.44,4.57-1.13,2-.98,3.34-2.54,3.95-4.67.66-2.31.62-4.65-.05-6.96-.31-1.06-.87-2.01-1.64-2.83.33-.08.59,0,.79.25.95,1.2,1.44,2.59,1.65,4.08.25,1.79.23,3.55-.21,5.31-.84,3.24-3.01,5.14-6.18,5.96-1.1.28-2.24.49-3.39.52-2.75.07-5.5,0-8.32,0v-.03l-.02.02Z"/>
          <path class="cls-4" d="M115.38,56.23v-9.11c0-.41.1-.56.51-.52.54.03,1.08,0,1.65,0v9.61h-2.16v.02Z"/>
          <path class="cls-4" d="M52.64,103.42v-7.21c1.16.03,2.33-.15,3.44.25.87.29,1.29.9,1.33,1.82.03,1.02-.36,1.77-1.21,2.1-.39.16-.84.21-1.26.28-.26.03-.56,0-.9,0v2.11c0,.44-.21.66-.64.66h-.77.02ZM54.07,99.55c.67,0,1.33.1,1.74-.52.25-.36.2-.95-.08-1.26-.44-.51-1.03-.44-1.64-.43v2.23h-.02v-.02Z"/>
          <path class="cls-4" d="M107.4,49.48h1.92c.03.13.05.26.1.48.52-.52,1.13-.7,1.8-.57.13.03.33.18.33.28.03.67,0,1.36,0,2.08-.18-.08-.28-.13-.39-.18-.72-.31-1.31-.05-1.51.7-.05.23-.1.46-.1.69-.02.95-.05,1.88-.03,2.83,0,.39-.13.51-.51.49-.54-.03-1.08,0-1.65,0v-6.78h.05v-.02Z"/>
          <path class="cls-4" d="M60.77,103.53c-1.64,0-2.77-1.1-2.77-2.72s1.11-2.82,2.74-2.82,2.8,1.15,2.8,2.82-1.13,2.74-2.77,2.74h0v-.02ZM62.13,100.85c0-.28,0-.46-.03-.62-.11-.7-.62-1.16-1.29-1.16s-1.21.39-1.29,1.08c-.07.49,0,1.02.08,1.51.13.57.57.84,1.18.84s1.02-.28,1.2-.84c.1-.29.11-.61.15-.8,0,0,.02,0,.02,0Z"/>
          <path class="cls-4" d="M23.5,100.82c0,1.64-1.11,2.72-2.75,2.72s-2.74-1.1-2.74-2.74,1.11-2.8,2.74-2.8,2.77,1.13,2.77,2.83h-.02v-.02ZM22.13,100.78c-.03-.23-.03-.36-.05-.49-.15-.8-.62-1.24-1.33-1.24s-1.23.48-1.31,1.24c-.05.44.02.93.13,1.36.15.57.56.8,1.15.82.61,0,1.02-.25,1.2-.82.1-.31.13-.62.2-.87,0,0,.02,0,.02,0Z"/>
          <path class="cls-4" d="M129.84,100.82c0,1.62-1.11,2.72-2.77,2.72s-2.75-1.11-2.75-2.74,1.13-2.8,2.75-2.82c1.65,0,2.78,1.13,2.77,2.82h0v.02ZM125.7,100.72c.08.34.08.72.26,1.02.16.28.46.57.75.67.8.26,1.47-.18,1.65-1.02.26-1.15-.15-2.15-.95-2.33h-.13c-.93-.1-1.52.54-1.57,1.65h-.02Z"/>
          <path class="cls-4" d="M77.48,98.15v5.24h-1.23c0-.18-.03-.38-.07-.64-.18.15-.31.26-.46.36-.64.46-1.34.57-2.06.28-.7-.29-.97-.9-1-1.61-.03-1.11,0-2.23-.03-3.34,0-.23.07-.34.31-.34h1.03v1.88c0,.56.03,1.11.07,1.67.03.38.2.7.61.79.44.1.88,0,1.1-.39.2-.41.34-.87.38-1.31.05-.85,0-1.7,0-2.59h1.36Z"/>
          <path class="cls-4" d="M111,101.18h-3.59c-.16,1.26,1.03,1.61,3.18.9,0,.26.03.52,0,.79-.02.13-.13.33-.25.38-.97.39-1.97.46-2.93.03-1.06-.46-1.54-1.59-1.33-3.08.15-1.15.88-1.95,1.93-2.15,1.49-.28,2.6.48,2.87,1.98.07.36.08.74.13,1.18v-.03h-.02ZM109.66,100.21c0-.8-.38-1.23-1.08-1.23-.75,0-1.18.43-1.21,1.23h2.29Z"/>
          <path class="cls-4" d="M8.06,98.13h1.33v2.11c0,.46.02.93.07,1.39.03.39.2.74.62.82.44.08.88,0,1.08-.43.18-.38.33-.8.34-1.23.05-.88,0-1.75,0-2.67h1.34v5.24h-1.23c-.02-.2-.03-.38-.07-.64-.16.13-.28.23-.41.33-.66.49-1.39.62-2.15.28-.7-.31-.95-.95-.95-1.67-.02-1.18,0-2.34,0-3.55h0l.02.02Z"/>
          <path class="cls-4" d="M42.08,103.4h-1.05c-.03-.21-.07-.43-.1-.69-.11.1-.2.16-.26.23-.61.59-1.44.77-2.23.44-.66-.28-.98-.75-1-1.43,0-.72.29-1.29.98-1.52.54-.18,1.11-.21,1.69-.28.25-.03.49,0,.72,0,.03-.75-.26-1.11-.93-1.15-.33,0-.66,0-.97.1-.29.08-.56.23-.92.39,0-.33-.03-.62,0-.9,0-.11.15-.26.26-.31.82-.31,1.65-.39,2.51-.18.75.2,1.23.74,1.26,1.59.05,1.21,0,2.44,0,3.72h.03v-.02ZM40.83,100.88c-.54.08-1.08.11-1.61.26-.39.11-.56.48-.48.88.08.39.39.48.74.51.9.05,1.46-.57,1.34-1.65Z"/>
          <path class="cls-4" d="M95.82,103.4h-1.05c-.03-.21-.07-.43-.1-.69-.11.1-.2.16-.26.23-.59.59-1.44.77-2.23.44-.66-.28-1-.75-1-1.43,0-.72.29-1.29.98-1.52.54-.18,1.11-.21,1.67-.29.25-.03.49,0,.72,0,.07-.74-.25-1.16-.92-1.13-.61,0-1.21.21-1.9.33v-.82c0-.08.13-.2.23-.23.85-.31,1.7-.41,2.59-.18.77.21,1.18.77,1.21,1.52.05,1.23,0,2.47,0,3.75h.05v.02ZM94.56,100.88c-.54.08-1.08.13-1.61.28-.38.1-.54.46-.48.85s.36.51.7.52c.92.07,1.52-.61,1.36-1.65h.02Z"/>
          <path class="cls-4" d="M82,100.14c.03-.77-.26-1.16-.93-1.13-.61.03-1.21.21-1.88.34.05.08.03.07.03.03-.07-1.13-.05-1.15,1.08-1.33.43-.07.87-.08,1.29,0,1.08.15,1.61.69,1.65,1.79.05,1.18,0,2.34,0,3.57h-1.05c-.05-.2-.1-.43-.15-.69-.62.74-1.38,1-2.28.74-.7-.2-1.15-.72-1.18-1.39-.05-.8.28-1.41,1.02-1.64.54-.16,1.11-.2,1.69-.28.23-.03.46,0,.67,0h.03v-.02ZM81.98,100.88c-.54.08-1.1.13-1.61.28-.38.11-.52.46-.46.87s.38.49.72.52c.92.07,1.46-.56,1.34-1.65h0v-.02Z"/>
          <path class="cls-4" d="M106.75,70.02v-11.84c1.67,0,3.33-.18,4.91.46,2.05.84,3.01,2.44,3.19,4.55.07.87.03,1.77-.15,2.62-.48,2.33-2.08,3.77-4.44,4.03-1.15.13-2.31.11-3.52.16h0v.02ZM107.2,69.53c1.26,0,2.47.08,3.69-.23,1.83-.48,3.01-1.62,3.37-3.49.16-.8.21-1.67.15-2.49-.13-1.88-.95-3.39-2.77-4.18-1.43-.62-2.93-.51-4.46-.49v10.88h.02Z"/>
          <path class="cls-4" d="M112.07,49.48h2.11v6.73h-2.11v-6.73Z"/>
          <path class="cls-4" d="M16.15,96.59v1.49h1.16v.98h-1.15c0,1-.02,1.95,0,2.9,0,.33.28.51.62.49.18,0,.36-.03.59-.05v1.03c-.39,0-.79.08-1.18.07-.88-.05-1.43-.66-1.44-1.62-.02-.92,0-1.82,0-2.78-.34,0-.66-.03-1-.07v-.93h.9s.08-.11.08-.16c.03-.31-.07-.77.08-.88.34-.25.82-.33,1.29-.49,0,0,.03.03.03.03Z"/>
          <path class="cls-4" d="M70.45,96.59v1.49h1.18v1h-1.16c0,.97-.03,1.88,0,2.78,0,.46.29.62.77.59.13,0,.28-.03.46-.05v1c-.52.16-1.1.21-1.64,0-.74-.26-.95-.88-.97-1.59v-2.7c-.36,0-.66-.03-.95-.05-.12-.59.18-.92.9-1,.03-.34-.05-.82.15-.98.29-.26.79-.31,1.26-.49Z"/>
          <path class="cls-4" d="M134.02,102.4v.95c-1.15.51-2.38,0-2.56-1.03-.07-.38-.05-.77-.05-1.16,0-.51-.03-1.02,0-1.52.03-.46-.15-.62-.57-.56h-.41v-.95c.31,0,.61-.03.92-.03.05-.38,0-.84.18-1.03.28-.26.75-.29,1.21-.46v1.51h.74c.39-.05.54.11.49.49-.02.13,0,.28-.02.49-.23,0-.44.03-.64,0-.49-.08-.61.15-.57.59.03.56,0,1.11,0,1.67,0,1.02.21,1.21,1.28,1.06h0v-.02Z"/>
          <path class="cls-4" d="M141.9,95.71h1.29c0,.18.03.33.03.48v6.73c0,.39-.08.57-.51.52-.26-.03-.52,0-.82,0v-7.71h0v-.02Z"/>
          <path class="cls-4" d="M73.86,66.37v-3.46c0-1.69,0-3.37-.03-5.06,0-.29.07-.46.46-.33v9.91c-.18.11-.36.15-.52-.18-1.59-3.19-3.18-6.37-4.77-9.55-.03-.05-.05-.11-.07-.18.34-.13.49,0,.64.29,1.33,2.67,2.67,5.34,4,8.01.07.15.15.28.29.54Z"/>
          <path class="cls-4" d="M27.75,99.33c-1.26-.11-1.65.26-1.74,1.56-.03.41,0,.84,0,1.24v1.24h-1.33v-5.24h1.15v1.05c.18-.28.26-.44.38-.56.25-.21.49-.44.77-.56.61-.25.77-.1.77.54,0,.23,0,.46,0,.72Z"/>
          <path class="cls-4" d="M135,98.13h1.16v1c.21-.28.33-.51.52-.69.18-.18.41-.33.66-.41.57-.2.72-.08.72.51v.7s-.1.07-.11.07c-.98-.13-1.41.13-1.52,1.11-.1.75-.07,1.51-.08,2.26v.67h-1.34v-5.26s0,.03,0,.03Z"/>
          <path class="cls-4" d="M85.88,98.13v1c.2-.28.31-.51.51-.67.2-.18.44-.34.7-.43.56-.18.69-.07.69.51v.79c-1.2-.13-1.64.25-1.69,1.43-.03.75-.03,1.52,0,2.28,0,.26-.07.41-.36.39h-.97v-5.29h1.15-.03Z"/>
          <path class="cls-4" d="M92.79,66.12h-5.29c.9-2.75,1.79-5.45,2.72-8.29.87,2.82,1.72,5.54,2.57,8.29ZM92.17,65.67c-.66-2.1-1.28-4.14-1.92-6.19h-.1c-.67,2.05-1.34,4.09-2.03,6.19h4.05Z"/>
          <path class="cls-4" d="M52.12,66.12h-5.29c.9-2.74,1.79-5.44,2.67-8.14h.1c.84,2.69,1.67,5.39,2.52,8.16h0v-.02ZM49.6,59.52h-.13c-.67,2.03-1.33,4.06-2,6.13h4.03c-.64-2.08-1.28-4.11-1.9-6.13Z"/>
          <path class="cls-4" d="M65.89,99.13c.44-.79.93-1.26,1.82-1.1v1.31c-.1,0-.21-.03-.31-.03-.64-.08-1.1.18-1.23.8-.11.61-.13,1.23-.16,1.83-.03.48,0,.95,0,1.46h-1.29v-5.26h1.13c0,.29.03.59.05,1h0v-.02Z"/>
          <path class="cls-4" d="M28.27,62.72v-4.68c1.41,0,2.85-.18,4.19.43.84.38,1.21,1.06,1.18,1.98-.03.9-.41,1.61-1.28,1.92-.51.18-1.05.29-1.57.33-.82.05-1.64,0-2.51,0v.03h-.02ZM28.71,62.23c.75,0,1.47.03,2.19,0,.46-.03.92-.13,1.34-.29.69-.26.92-.87.93-1.57,0-.69-.28-1.21-.92-1.47-1.15-.49-2.34-.41-3.55-.39v3.75h0v-.02Z"/>
          <path class="cls-4" d="M140.32,98.15v5.24h-1.31v-5.24h1.31Z"/>
          <path class="cls-4" d="M29.96,103.37s-.08.03-.11.05c-.8.07-1.21-.29-1.21-1.1v-3.8c0-.33.1-.44.43-.43h.9v5.26h0v.02Z"/>
          <path class="cls-4" d="M88.71,98.13h1.29c0,.16.03.29.03.43v4.46c0,.33-.1.44-.43.43h-.9v-5.29h0v-.02Z"/>
          <path class="cls-4" d="M112.05,48.84v-2.05h2.13v2.05h-2.13Z"/>
          <path class="cls-4" d="M88.71,95.85h1.29v1.23h-1.29v-1.23Z"/>
          <path class="cls-4" d="M29.96,97.11h-1.28v-1.24h1.28v1.24Z"/>
          <path class="cls-4" d="M140.31,97.11h-1.28v-1.24h1.28v1.24Z"/>
          <path class="cls-4" d="M130.92,58c.84,2.69,1.67,5.39,2.51,8.12h-5.27c.9-2.74,1.77-5.42,2.65-8.12h.11ZM132.82,65.67c-.66-2.1-1.28-4.14-1.92-6.19h-.11c-.67,2.05-1.34,4.09-2.01,6.18h4.05v.02Z"/>
          <line class="cls-3" x1="53.05" y1="83.39" y2="83.39"/>
          <line class="cls-3" x1="143.22" y1="83.39" x2="79.15" y2="83.39"/>
        </g>
      </g>
    </g>
  </g>
</svg>