<?xml version="1.0" encoding="UTF-8"?>
<svg id="Capa_2" data-name="Capa 2" xmlns="http://www.w3.org/2000/svg" viewBox="0 0 217.81 36.21">
  <defs>
    <style>
      .cls-1 {
        fill: #c3b59a;
      }

      .cls-2 {
        fill: #353535;
      }
    </style>
  </defs>
  <g id="Capa_1-2" data-name="Capa 1">
    <g id="Layer_1-2" data-name="Layer 1-2">
      <g>
        <path class="cls-2" d="M.01,36.1c.37-.22.69-.41,1.01-.59,3.86-2.14,7.69-4.3,11.43-6.65.86-.54,1.62-1.22,2.46-1.78,1.76-1.16,3.63-2.1,5.76-2.26,1.99-.16,3.28.72,3.89,2.61.18.55.22,1.13.34,1.7.38,1.9,1.78,2.65,3.57,2.48,1.62-.16,3.11-.72,4.58-1.38,2.44-1.1,4.74-2.46,7.03-3.85,1.72-1.04,3.52-1.95,5.47-2.49,2.08-.59,4.2-.8,6.36-.5,2.41.32,4.52,1.28,6.38,2.83,1.38,1.14,2.72,2.35,4.2,3.37,1.46,1.01,3.03,1.78,4.8,2.07,1.8.29,3.55.1,5.28-.43,2.17-.65,4.08-1.8,6.04-2.91,3.16-1.81,6.49-3.27,9.99-4.34,1.89-.57,3.82-1.02,5.76-1.33,2.11-.34,4.24-.5,6.37-.37,1.83.12,3.57.65,5.25,1.39,2.91,1.29,5.53,3.07,8.11,4.92,1.31.95,2.5,2.04,3.89,2.87,1.57.93,3.26,1.45,5.08,1.65,1.43.17,2.84.08,4.24-.13,1.76-.26,3.47-.75,5.14-1.4,4.07-1.59,7.75-3.87,11.19-6.54.47-.36.97-.62,1.55-.77.36-.1.71.02.92.32.23.31.18.61,0,.91-.38.57-.92.98-1.45,1.4-.77.62-1.53,1.25-2.11,2.07-.36.52-.66,1.07-.74,1.7-.07.6.14.97.68,1.2.85.37,1.66.17,2.43-.23,1.5-.77,2.72-1.86,3.68-3.23.32-.46.53-.97.57-1.53.06-.66-.13-1.05-.71-1.37-.49-.26-.87-.61-.92-1.2-.08-1.09.9-1.95,2.01-1.78.92.14,1.62.67,2.23,1.32,1.88,2.01,3.68,4.11,5.68,6.01.91.86,1.82,1.74,3.03,2.17.8.29,1.63.52,2.47.69,1.37.28,2.73.43,4.12.4,3.19-.07,6.12-.95,8.71-2.85,1.72-1.27,3.45-2.55,5.17-3.82.28-.2.52-.43.74-.68.46-.5.49-1.17.08-1.72-.25-.34-.36-.71-.29-1.11.08-.48.47-.75.95-.66.81.16,1.51.54,2.16,1.04.26.22.35.49.3.84-.12.84.22,1.28,1.04,1.49.44.11.87.13,1.33.13,1.56,0,3.1.12,4.65.22.36.02.57.24.67.56.12.42.14.85.14,1.28,0,.85.04,1.7.25,2.54.43,1.63,1.51,2.6,3.07,3.13,1.41.48,2.87.5,4.35.46,1.1-.04,2.19-.11,3.27-.26,1.26-.18,2.52-.4,3.76-.69,2.48-.6,4.7-1.77,6.92-2.96.79-.43,1.57-.89,2.36-1.33.16-.08.32-.16.5-.2.18-.06.38-.12.53.08.14.19.01.38-.1.53-.28.37-.61.68-.98.96-1.05.77-2.23,1.34-3.39,1.92-2.62,1.29-5.33,2.36-8.15,3.13-1.86.5-3.75.87-5.69.86-1.44,0-2.87-.04-4.29-.25-1.69-.26-3.33-.66-4.79-1.59-1.39-.89-2.25-2.11-2.34-3.81,0-.16.02-.31.08-.46.14-.36.08-.5-.28-.68-.41-.19-.87-.18-1.31-.28-1.15-.24-2.17-.69-3.03-1.52-.04-.04-.07-.07-.11-.1-.52-.44-.77-.46-1.31-.04-.56.44-1.09.91-1.65,1.34-2.62,1.98-5.38,3.74-8.38,5.09-1.71.77-3.5,1.19-5.35,1.38-1.99.2-3.98.44-5.98.4-2.1-.05-4.06-.49-5.8-1.71-1.05-.74-2.19-1.35-3.08-2.32-.2-.23-.28-.04-.37.11-.86,1.33-2.02,2.32-3.45,2.98-1.75.8-3.59,1.01-5.47.63-1.63-.32-2.58-1.78-2.36-3.45.12-.9.47-1.71.86-2.52.06-.12.16-.24.05-.36-.11-.12-.25-.05-.37,0-.68.26-1.25.73-1.86,1.11-2.26,1.41-4.68,2.53-7.19,3.45-2,.74-4.05,1.34-6.14,1.72-2.47.46-4.95.53-7.45.29-2.47-.24-4.83-.86-7.07-1.92-2.48-1.17-4.61-2.81-6.61-4.66-2.16-1.96-4.62-3.41-7.46-4.16-1.9-.5-3.81-.56-5.71-.1-1.81.44-3.55,1.09-5.26,1.8-2.78,1.15-5.46,2.47-8.1,3.92-1.44.79-2.83,1.65-4.28,2.41-2.42,1.26-4.96,2.23-7.68,2.65-2.26.36-4.46.1-6.56-.84-2.25-.99-4.23-2.38-6.09-3.96-1.19-1.01-2.25-2.13-3.35-3.23-1.19-1.17-2.65-1.58-4.26-1.49-2.22.13-4.16,1.04-6.01,2.19-1.55.96-2.99,2.06-4.54,3.02-2.53,1.57-5.13,3.03-7.93,4.05-1.15.42-2.34.75-3.59.75-.91,0-1.61-.36-2.12-1.09-.81-1.14-1.23-2.42-1.39-3.79-.08-.67-.11-1.34-.2-2.01-.11-.8-.66-1.26-1.49-1.29-.86-.04-1.64.24-2.4.6-1.62.77-3.08,1.8-4.62,2.68-2.92,1.69-5.87,3.32-9.01,4.59-.6.24-1.22.43-1.84.63-.13.05-.26.08-.5,0v-.06Z"/>
        <path class="cls-1" d="M61.17,4.63c.6.17.97.54,1.17,1.07.52,1.38.24,3.19-1.7,3.63-.42.1-.85.17-1.28.17h-5.88c-.07,0-.14-.02-.16-.11,0-.07.04-.12.1-.14.28-.12.29-.36.29-.61V1.19c0-.25-.02-.47-.29-.61-.17-.1-.1-.2.06-.24.11-.02.22-.01.32-.01h5.64c.59,0,1.15.11,1.68.36,1.26.59,1.65,2.3.8,3.38-.19.24-.48.31-.73.56h-.02ZM57.68,8.19h0c.68,0,1.38.02,2.06,0,1.2-.05,1.68-.96,1.38-1.98-.18-.62-.74-.97-1.57-.97-1.33-.01-2.65,0-3.98,0-.31,0-.43.11-.43.42.01.69.01,1.4,0,2.1,0,.35.14.47.48.46.68-.01,1.38,0,2.06,0v-.02ZM57.54,1.61h-1.99c-.29,0-.42.11-.41.41,0,.5.01,1.01,0,1.51-.01.34.11.47.46.47,1.16-.01,2.34,0,3.5,0,.4,0,.79-.05,1.17-.19.18-.07.35-.17.44-.35.42-.73.07-1.55-.73-1.76-.2-.05-.4-.08-.61-.07h-1.84.01Z"/>
        <path class="cls-1" d="M90.28,9.49h-2.92c-.12,0-.26.05-.32-.08-.06-.14.11-.16.18-.23.14-.13.18-.31.18-.49V1.1c0-.22-.05-.41-.26-.52-.06-.04-.13-.08-.11-.17.02-.08.11-.1.18-.1,2.02.04,4.06-.16,6.06.08,2.28.28,3.75,2.07,3.75,4.36,0,1.03-.14,2.01-.71,2.9-.74,1.16-1.83,1.72-3.16,1.8-.95.06-1.9,0-2.85,0h0v.02ZM91.05,8.33h0c.57,0,1.16.02,1.74,0,.97-.06,1.8-.41,2.32-1.29.47-.79.5-1.65.47-2.52-.07-1.65-1.03-2.73-2.67-2.96-1.25-.17-2.5-.05-3.75-.07-.28,0-.3.19-.3.4v6.04c0,.32.13.42.43.42.59-.01,1.19,0,1.77,0h-.01Z"/>
        <path class="cls-1" d="M74.92,9.56c-1.15.05-2.17-.16-3.1-.68-1.32-.73-2.05-1.88-2.19-3.37-.13-1.39.12-2.7,1.13-3.75.84-.89,1.9-1.33,3.1-1.47,1.46-.17,2.89-.06,4.18.73,1.32.81,1.98,2.02,2.06,3.56.04.77-.04,1.51-.35,2.23-.56,1.33-1.59,2.11-2.95,2.52-.63.19-1.29.29-1.88.24ZM74.84,1.46h-.47c-1.43.02-2.58.85-3.04,2.19-.19.55-.17,1.11-.13,1.68.07,1.28.71,2.2,1.88,2.72.96.43,1.98.43,2.97.19,1.21-.3,2.04-1.04,2.36-2.29.08-.3.1-.6.11-.89.06-1.03-.2-1.95-.96-2.7-.75-.74-1.7-.96-2.72-.91h0Z"/>
        <path class="cls-1" d="M126.68,6.03h-.79c-.24,0-.46.05-.6.26-.07.11-.22.2-.24-.01-.05-.56-.11-1.13,0-1.69,0-.06.04-.12.08-.14.07-.04.11.02.13.08.14.32.43.35.73.35h3.1c.11,0,.22,0,.32.02.13.04.2.13.07.23-.18.13-.17.31-.17.49v1.45c0,.14,0,.3.11.41.25.24.12.4-.1.55-.99.71-2.07,1.23-3.28,1.45-1.62.29-3.19.18-4.65-.69-2.32-1.38-2.77-4.3-1.29-6.41.98-1.4,2.38-2.05,4.07-2.11,1.47-.06,2.87.19,4.14.99.2.12.41.22.65.07.07-.04.14-.04.19.04s.01.13-.02.2c-.31.46-.62.92-.93,1.37-.08.11-.25.23-.3.02-.13-.61-.63-.8-1.09-1.01-1.21-.54-2.48-.67-3.76-.3-1.53.43-2.47,1.94-2.3,3.52.12,1.1.55,1.98,1.46,2.61.74.52,1.56.65,2.43.61,1.01-.05,1.95-.28,2.83-.78.35-.2.56-1.1.36-1.44-.07-.11-.18-.12-.29-.12h-.86v-.04Z"/>
        <path class="cls-1" d="M157.1,9.56c-1.19.08-2.34-.26-3.44-.81-.29-.14-.55-.28-.89-.13-.19.08-.24-.07-.17-.22.24-.54.49-1.07.74-1.61.02-.06.06-.14.16-.13.07,0,.11.06.11.12.06.62.54.86,1.01,1.07,1.58.67,3.19.83,4.79.1.5-.23.8-.66.83-1.22.01-.61-.49-1.07-1.21-1.15-.99-.11-1.99-.14-2.99-.14-.48,0-.96-.07-1.43-.19-.98-.23-1.59-.81-1.75-1.82s.29-1.75,1.08-2.31c.79-.55,1.7-.79,2.65-.87,1.26-.11,2.48.05,3.65.5.28.11.53.16.79,0,.06-.04.13-.07.2,0,.06.06.05.13.01.2-.24.53-.49,1.04-.74,1.57-.04.07-.1.16-.19.13-.08-.01-.1-.1-.12-.17-.07-.32-.31-.49-.57-.61-1.38-.61-2.79-.67-4.23-.17-.35.12-.63.35-.87.62-.48.56-.23,1.32.48,1.5.42.11.85.17,1.28.17,1.08,0,2.17,0,3.23.22,1.8.35,2.34,1.43,2.07,3.03-.1.59-.52,1.05-1.01,1.4-1.03.73-2.19.97-3.5.91l.02.02Z"/>
        <path class="cls-1" d="M108.03.31h3.37c.26,0,.5-.02.69-.23.14-.16.24-.08.24.1v1.52c0,.08-.01.18-.11.2-.08.02-.13-.05-.17-.11-.14-.26-.4-.32-.67-.32h-4.95c-.32,0-.46.08-.44.43.02.63,0,1.27,0,1.92,0,.29.11.41.41.4,1.05-.01,2.12,0,3.19,0,.28,0,.49-.1.63-.32.04-.05.07-.11.14-.1.08.02.1.1.1.17v1.66s-.04.13-.07.16c-.08.05-.13-.02-.17-.08-.17-.28-.42-.32-.72-.31h-3.03c-.28,0-.43.08-.46.37-.06.77-.02,1.55-.01,2.31,0,.28.23.28.42.28h5.32c.34,0,.66-.02.79-.42.02-.06.06-.11.13-.08.07.01.11.07.11.13,0,.56.01,1.13,0,1.69,0,.16-.13.23-.24.08-.19-.24-.46-.23-.72-.23h-7.4c-.07,0-.16,0-.18-.08-.04-.08.04-.13.1-.17.23-.11.24-.32.24-.53V1.16c0-.22-.01-.44-.25-.55-.05-.02-.11-.07-.1-.14.02-.08.1-.1.17-.11h3.69l-.05-.05Z"/>
        <path class="cls-1" d="M140.99,7.04h-2.02c-.29,0-.47.08-.57.37-.16.43-.36.84-.54,1.26-.08.2-.19.41.04.62.13.12-.01.19-.13.19h-1.7c-.07,0-.16-.02-.17-.11-.02-.08.05-.13.11-.17.23-.11.34-.31.42-.52.81-1.83,1.64-3.67,2.46-5.5.32-.72.65-1.43.97-2.13.08-.18.12-.32-.06-.48-.19-.17-.07-.25.12-.26h2.1c.17,0,.26.08.1.24s-.12.32-.04.49c.72,1.5,1.45,2.99,2.17,4.48.49,1.03.98,2.06,1.49,3.09.12.26.23.54.55.62.06.01.12.06.11.13,0,.07-.07.1-.13.1h-2.06c-.06,0-.13-.01-.14-.08-.04-.08.04-.13.1-.17.23-.13.18-.32.11-.5-.22-.48-.46-.96-.67-1.44-.1-.22-.26-.25-.48-.25h-2.1,0ZM140.97,5.88h1.47c.26,0,.35-.1.23-.35-.54-1.1-1.07-2.2-1.59-3.31-.05-.08-.07-.24-.19-.23-.12,0-.13.16-.18.25-.48,1.09-.95,2.18-1.44,3.26-.12.28-.06.38.23.38h1.47,0Z"/>
        <path class="cls-1" d="M44.57,5.81c-.47,0-.84-.4-.85-.89,0-.43.42-.84.86-.84.5,0,.92.41.91.89-.01.5-.4.86-.93.85h.01Z"/>
        <path class="cls-1" d="M169.88,5.81c-.47,0-.85-.42-.84-.91,0-.43.44-.83.9-.83.48,0,.86.4.87.89,0,.49-.4.85-.93.85Z"/>
      </g>
    </g>
  </g>
</svg>