<?xml version="1.0" encoding="UTF-8"?>
<svg id="Capa_2" data-name="Capa 2" xmlns="http://www.w3.org/2000/svg" viewBox="0 0 102.53 67.01">
  <defs>
    <style>
      .cls-1 {
        fill: #3642b8;
      }
    </style>
  </defs>
  <g id="Capa_1-2" data-name="Capa 1">
    <g id="Layer_1-2" data-name="Layer 1-2">
      <g>
        <path class="cls-1" d="M58.52,9.5c.25.33.17.62.17.88,0,9.91,0,19.81.02,29.72,0,.81-.21,1.3-.96,1.72-5.44,3.05-11.17,5.26-17.42,5.85-3.53.34-7.03.1-10.33-1.43-4.16-1.93-6.44-5.18-6.78-9.76-.37-5.09,1.42-9.58,4.05-13.77,4.65-7.38,11.07-12.87,18.61-17.13,4.37-2.47,9-4.28,13.96-5.11,4.11-.7,8.19-.72,12.2.74,4.7,1.72,7.62,5.82,7.73,10.83.1,4.79-1.68,8.99-4.08,12.96-2.69,4.48-6.24,8.23-10.26,11.56-.2.17-.39.5-.69.37-.3-.13-.17-.49-.17-.75,0-2.69,0-5.37-.02-8.05,0-.63.2-1.09.63-1.54,2.69-2.82,5.04-5.88,6.58-9.49.81-1.9,1.36-3.85,1.31-5.95-.07-3.17-1.72-5.55-4.71-6.63-2.74-1-5.54-.96-8.35-.5-5.88.96-11.11,3.49-16.02,6.75-4.83,3.21-9.14,6.98-12.53,11.74-1.89,2.67-3.38,5.52-3.95,8.78-.17,1.02-.2,2.04-.08,3.06.31,2.59,2.35,3.98,5.03,3.48,2.64-.49,4.73-1.99,6.63-3.75,4.73-4.35,8.62-9.41,12.44-14.55,2.31-3.11,4.51-6.29,6.59-9.56.09-.14.2-.26.35-.45h.03Z"/>
        <path class="cls-1" d="M43.24,59.87c0,1.96-.02,3.93,0,5.89,0,.63-.21.92-.86.9-.66-.03-1.33-.03-1.99,0-.66.03-.86-.28-.85-.9.02-1.69.22-1.58-1.63-1.58-.22,0-.44.02-.66,0-1.45-.14-2.6.22-3.79,1.25-2.91,2.55-8.07,1.89-10.26-1.09-1.87-2.53-1.82-7.8,1-10.21,3.53-3.03,9.11-1.31,10.14,3.21.16.68-.06.93-.73.9-.33-.02-.67-.03-.99,0-1.03.1-1.78.03-2.33-1.16-.68-1.47-2.81-1.39-3.93-.03-1.17,1.42-.98,4.68.36,5.95,1.23,1.16,3.42,1.08,4.85-.2.6-.54,1.1-1.16,1.54-1.84,1.55-2.39,3.11-4.77,4.64-7.17.34-.53.74-.75,1.36-.73,1.05.03,2.1.03,3.16,0,.76-.03,1.02.29,1,1.03-.03,1.94,0,3.87,0,5.81h-.03ZM39.39,57.28c-.07-.03-.15-.04-.22-.07-.52.83-1.07,1.65-1.55,2.51-.3.54-1.08,1.1-.76,1.59.27.43,1.18.1,1.81.14h.17c.37,0,.56-.19.56-.56v-3.62h0Z"/>
        <path class="cls-1" d="M94.37,59.64c0,2.04-.03,4.09.02,6.12.02.84-.26,1.1-1.1,1.09-2.47-.03-2.47,0-2.47-2.43,0-3.4.03-6.81-.02-10.2,0-.83.25-1.18,1.1-1.08.3.03.63.07.91,0,1.4-.37,2.09.37,2.71,1.51,1.01,1.86,2.16,3.65,3.27,5.5.27-.26.17-.52.17-.76,0-1.83.02-3.65,0-5.48,0-.59.22-.87.82-.87,3.33.03,2.69-.38,2.72,2.51.03,3.4-.02,6.81.03,10.2,0,.83-.25,1.11-1.1,1.09-3.03-.1-2.14.43-3.72-2.1-1.06-1.71-2.09-3.44-3.13-5.16-.07.02-.14.04-.21.06h0Z"/>
        <path class="cls-1" d="M83.17,52.81c4.29,0,6.91,2.72,6.9,7.15,0,4.23-2.71,7.05-6.8,7.04-4.25,0-7.04-2.81-7.03-7.09,0-4.3,2.74-7.11,6.92-7.11h0ZM86.38,59.95c0-.52-.02-1.04-.17-1.56-.38-1.4-1.41-2.28-2.76-2.35-1.6-.08-2.71.6-3.23,2.05-.45,1.24-.43,2.5.04,3.73.57,1.52,2.1,2.28,3.69,1.88,1.64-.41,2.42-1.62,2.43-3.75h0Z"/>
        <path class="cls-1" d="M66.98,59.99c0,1.96-.03,3.93,0,5.89.02.73-.24,1.01-.96.96-.61-.04-1.22-.03-1.83,0-.68.04-.95-.23-.93-.91.03-1.22-.02-2.43.02-3.65.02-.66-.18-.96-.9-.93-.94.04-1.89.04-2.82,0-.71-.03-.9.26-.89.92.03,1.24,0,2.49.02,3.74,0,.61-.23.86-.83.83-.58-.03-1.16,0-1.74,0-1.1,0-1.13-.03-1.13-1.1v-8.38c0-1.13.02-2.27,0-3.4,0-.63.27-.92.9-.9.72.03,1.43.09,2.16.07.53,0,.66.24.66.71-.02,1.16.03,2.32,0,3.49-.02.65.23.9.87.88.96-.03,1.94-.03,2.9,0,.61.02.83-.24.83-.84-.03-1.13.02-2.27,0-3.4-.02-.63.23-.92.87-.9.66.02,1.33.03,1.99,0s.86.27.85.9c-.03,2.02,0,4.04,0,6.06l-.02-.03Z"/>
        <path class="cls-1" d="M0,59.91C0,57.92,0,55.93,0,53.94c0-.56.15-.91.77-.9,1.85.04,3.7-.13,5.55.12,3.25.45,5.37,2.76,5.54,6.04.05,1.03.03,2.03-.28,3.04-.84,2.79-2.98,4.49-5.91,4.57-1.6.04-3.21,0-4.81.03-.65,0-.87-.24-.86-.88.03-2.02,0-4.03,0-6.05H0ZM3.55,59.88v2.98c0,.33,0,.65.44.76,1.89.49,3.54-.46,4.04-2.34.84-3.12-.66-5.22-3.64-5.13-.66.02-.87.27-.85.9.03.94,0,1.88,0,2.82h0Z"/>
        <path class="cls-1" d="M12.62,59.92c0-1.96.03-3.93,0-5.89-.02-.71.23-1,.95-1,2.49.02,4.98.02,7.47,0,.65,0,.96.23.95.91-.03,2.56.23,2.2-2.12,2.23-.91,0-1.83.02-2.74,0-.56,0-.83.21-.8.78,0,.25.02.5,0,.75-.03.57.23.78.8.77,1.13-.02,2.27,0,3.4,0,.55,0,.82.18.81.76-.02,2.57.22,2.09-2.01,2.13-.75.02-1.5.02-2.24,0-.52-.02-.78.18-.76.72,0,.25.02.5,0,.75-.04.61.24.83.84.83,1.27-.02,2.55.03,3.82,0,.76-.03,1.02.29,1.01,1.03-.04,2.55.24,2.13-2.08,2.16-2.08.02-4.15-.03-6.22.02-.77.02-1.08-.22-1.06-1.03.04-1.96.02-3.93.02-5.89h-.02Z"/>
        <path class="cls-1" d="M50.95,61.49c0,1.52-.02,3.04,0,4.56,0,.59-.22.8-.77.78-.7-.02-1.38-.03-2.08,0-.7.04-.91-.27-.91-.93.02-2.79,0-5.59,0-8.38q0-1.35-1.38-1.36c-2.29-.02-1.96.23-1.97-2,0-1.07.05-1.13,1.12-1.13,2.79,0,5.59.02,8.38,0,.72,0,1.04.2,1.03.99-.07,2.49.32,2.13-2.16,2.16-1.3.02-1.3,0-1.3,1.33v3.98s.03,0,.05,0Z"/>
        <path class="cls-1" d="M71.47,58.4c0,1.47.03,2.93,0,4.4-.02.65.23.89.87.87,1.19-.03,2.38,0,3.56,0,.59,0,.86.23.85.83-.03,2.84.3,2.3-2.22,2.34-1.94.03-3.87-.02-5.81.02-.73.02-.96-.25-.96-.96.03-3.95.03-7.91,0-11.86,0-.72.3-1,.98-.98.58.02,1.16.03,1.74,0,.7-.03,1,.23.98.96-.03,1.46,0,2.93,0,4.4h0l.02-.02Z"/>
      </g>
    </g>
  </g>
</svg>