<?xml version="1.0" encoding="UTF-8"?>
<svg id="Capa_2" data-name="Capa 2" xmlns="http://www.w3.org/2000/svg" viewBox="0 0 85.04 23.12">
  <defs>
    <style>
      .cls-1 {
        fill: #00384e;
      }

      .cls-2 {
        fill: #9fc63e;
      }
    </style>
  </defs>
  <g id="Capa_2-2" data-name="Capa 2">
    <g>
      <path class="cls-2" d="M21.35,0l-9.85,9.85,3.83,3.83,2.19-2.19-1.62-1.62,5.47-5.47,3.28,3.28-10.95,10.95L4.38,9.31l1.52-1.52c.47-.47,1.1-.73,1.76-.73s1.29.26,1.76.73l.43.43,2.19-2.19-.43-.43c-1.05-1.05-2.46-1.64-3.95-1.64s-2.89.58-3.95,1.64l-3.71,3.71,13.7,13.7,15.33-15.33L21.35,0Z"/>
      <path class="cls-1" d="M37.16,8.13c.51.26.9.63,1.17,1.12.27.49.4,1.08.4,1.76v.02c0,.69-.13,1.27-.4,1.76-.27.49-.66.86-1.17,1.12-.51.26-1.13.39-1.84.39h-3.15v-6.56h3.15c.72,0,1.33.13,1.84.39ZM35.17,13.15c.61,0,1.07-.17,1.4-.5s.49-.81.49-1.43v-.41c0-.62-.16-1.09-.49-1.43s-.79-.5-1.4-.5h-1.48v4.26h1.48Z"/>
      <path class="cls-1" d="M39.59,7.74h1.47v1.25h-1.47v-1.25ZM39.61,9.61h1.41v4.69h-1.41v-4.69Z"/>
      <path class="cls-1" d="M42.2,9.61h1.32v1.05c.15-.36.37-.65.67-.85.3-.2.65-.3,1.04-.3s.76.1,1.07.3c.31.2.54.48.71.85.17.37.25.8.25,1.29v.02c0,.49-.08.92-.25,1.29-.17.37-.4.65-.71.85-.31.2-.66.3-1.07.3-.37,0-.69-.08-.97-.25-.28-.17-.49-.41-.64-.72v2.65h-1.41v-6.47ZM43.73,12.72c.1.22.23.38.41.5s.38.18.62.18c.32,0,.57-.1.75-.3.18-.2.27-.49.27-.86v-.6c0-.37-.09-.65-.27-.85-.18-.2-.43-.3-.75-.3-.23,0-.44.06-.62.18-.18.12-.31.29-.41.51-.1.22-.15.47-.15.76v.02c0,.29.05.54.15.76h0Z"/>
      <path class="cls-1" d="M52.73,14.3h-1.32v-1.05c-.07.23-.18.44-.35.61-.16.18-.37.31-.6.41-.24.1-.5.15-.78.15-.31,0-.59-.06-.82-.19-.23-.13-.42-.31-.54-.54-.13-.24-.19-.51-.19-.83v-3.25h1.41v2.88c0,.24.07.43.21.57.14.14.34.2.59.2.3,0,.54-.09.72-.26.18-.17.27-.41.27-.71v-2.69h1.41v4.69h0Z"/>
      <path class="cls-1" d="M54.61,13.99c-.21-.21-.31-.5-.31-.88v-2.6h-.83v-.91h.49c.1,0,.18-.01.24-.04.06-.02.1-.07.12-.14.03-.07.04-.16.04-.29v-1.02h1.35v1.48h1.12v.91h-1.12v2.4c0,.13.04.22.11.3s.17.11.3.11h.75v.97h-1.38c-.38,0-.67-.1-.88-.31h0Z"/>
      <path class="cls-1" d="M58.17,14.24c-.23-.11-.41-.26-.53-.46-.13-.2-.19-.43-.19-.7h0c0-.34.1-.62.31-.85.21-.23.5-.38.89-.45l1.69-.32c.1-.02.17-.05.22-.09.05-.04.07-.1.07-.17h0c0-.25-.07-.43-.22-.55-.15-.13-.36-.19-.63-.19s-.51.07-.68.2c-.17.13-.27.32-.29.56h-1.23c.03-.54.24-.96.62-1.26.39-.3.93-.45,1.63-.45.46,0,.85.06,1.18.19.33.13.58.32.75.56.17.24.26.53.26.86v1.97c0,.1.02.16.05.2s.1.05.19.05h.27v.97h-.77c-.33,0-.58-.07-.75-.21s-.27-.36-.31-.65c-.07.19-.18.36-.35.51-.16.15-.36.26-.6.34-.23.08-.49.12-.77.12-.31,0-.58-.05-.81-.16h0ZM59.03,13.39c.13.1.31.15.55.15.2,0,.38-.04.54-.11.16-.08.28-.18.37-.32.09-.14.13-.3.13-.48v-.62c-.05.07-.14.11-.27.14l-.93.2c-.2.04-.35.12-.45.22-.1.1-.15.23-.15.39h0c0,.19.06.34.19.44h0Z"/>
      <path class="cls-1" d="M64.24,14.11c-.39-.2-.7-.49-.92-.86-.22-.37-.33-.8-.33-1.28v-.02c0-.48.11-.91.32-1.28.22-.37.52-.66.91-.86.39-.2.84-.31,1.35-.31.46,0,.86.07,1.2.22.34.15.62.36.82.65.2.29.33.63.37,1.03h-1.26c-.06-.32-.18-.55-.36-.7-.18-.15-.42-.23-.73-.23-.36,0-.64.11-.83.32-.2.21-.29.51-.29.9v.51c0,.39.1.69.3.91.2.22.48.32.84.32.31,0,.56-.08.74-.23.18-.15.3-.39.36-.7h1.26c-.04.4-.17.75-.38,1.04-.21.29-.48.51-.82.66-.34.15-.74.23-1.18.23-.52,0-.97-.1-1.37-.3h0Z"/>
      <path class="cls-1" d="M68.82,7.74h1.47v1.25h-1.47v-1.25ZM68.85,9.61h1.41v4.69h-1.41v-4.69Z"/>
      <path class="cls-1" d="M72.38,14.1c-.39-.2-.69-.49-.91-.86-.22-.37-.32-.8-.32-1.28v-.02c0-.48.11-.91.32-1.28s.52-.66.91-.86c.39-.2.84-.31,1.35-.31s.96.1,1.35.31c.39.2.69.49.91.86.22.37.32.8.32,1.28v.02c0,.48-.11.91-.32,1.28-.22.37-.52.66-.91.86-.39.2-.84.31-1.35.31s-.96-.1-1.35-.31ZM72.93,13.1c.19.22.46.32.8.32s.61-.11.8-.32.28-.52.28-.91v-.49c0-.39-.09-.69-.28-.9s-.45-.32-.8-.32-.61.11-.8.32c-.19.21-.29.52-.29.91v.49c0,.39.09.69.29.91ZM73.78,7.41h1.4l-.95,1.69h-1.03l.58-1.69h0Z"/>
      <path class="cls-1" d="M77.2,9.61h1.32v1.05c.07-.23.19-.44.35-.61.17-.17.37-.31.61-.41.24-.1.5-.15.78-.15.31,0,.59.06.82.19.23.13.41.3.54.54.13.23.19.51.19.83v3.25h-1.41v-2.88c0-.24-.07-.43-.21-.57-.14-.14-.34-.21-.59-.21-.3,0-.54.09-.72.26-.18.17-.27.41-.27.71v2.69h-1.41v-4.69h0Z"/>
      <path class="cls-1" d="M35.51,21.96c-.15.36-.37.65-.67.85-.3.2-.65.3-1.04.3s-.76-.1-1.07-.3c-.31-.2-.54-.48-.71-.85-.17-.37-.25-.8-.25-1.29v-.02c0-.49.08-.92.25-1.29.17-.37.4-.65.71-.85.31-.2.66-.3,1.07-.3.37,0,.69.08.97.26.28.17.49.41.65.72v-2.83h1.41v6.65h-1.32v-1.05h0ZM33.52,21.82c.18.2.43.3.75.3.23,0,.44-.06.62-.18.18-.12.31-.29.41-.51.1-.22.15-.47.15-.76v-.02c0-.29-.05-.54-.15-.76s-.23-.38-.41-.5-.38-.18-.62-.18c-.32,0-.57.1-.75.3-.18.2-.27.49-.27.86v.6c0,.36.09.65.27.85h0Z"/>
      <path class="cls-1" d="M38.96,22.81c-.4-.2-.7-.49-.92-.86-.22-.37-.33-.8-.33-1.28v-.02c0-.48.11-.91.32-1.28.21-.37.51-.66.9-.86.39-.2.83-.31,1.33-.31s.92.1,1.29.3c.37.2.66.48.86.85.2.36.3.79.3,1.27v.31h-3.56c.01.39.12.69.33.9.21.21.49.32.85.32.26,0,.49-.06.68-.17.19-.11.32-.27.39-.47h1.23c-.08.34-.22.63-.43.87s-.48.42-.8.55c-.32.13-.68.19-1.09.19-.51,0-.97-.1-1.36-.31h0ZM41.35,20.2c-.03-.35-.13-.61-.31-.8-.18-.19-.44-.28-.75-.28s-.6.09-.79.28-.3.45-.33.8h2.19Z"/>
      <path class="cls-1" d="M45.5,19.72c0-.66.15-1.25.46-1.76.31-.51.73-.91,1.28-1.19.55-.28,1.18-.43,1.89-.43.62,0,1.17.11,1.65.32.48.22.86.51,1.14.88.28.37.46.78.54,1.23h-1.49c-.11-.42-.32-.74-.65-.95s-.73-.32-1.19-.32c-.41,0-.76.08-1.05.23-.29.16-.52.38-.68.68-.16.3-.24.65-.24,1.07v.51c0,.42.08.77.24,1.07.16.3.39.52.69.68.3.16.67.23,1.09.23.37,0,.69-.06.97-.18s.5-.29.66-.5c.16-.22.26-.48.29-.77h-2.28v-.97h3.74v3.47h-1.12v-1.03c-.22.37-.54.65-.95.85-.41.19-.89.29-1.45.29-.68,0-1.29-.14-1.83-.42-.54-.28-.96-.68-1.26-1.19-.3-.51-.45-1.1-.45-1.77v-.02h0Z"/>
      <path class="cls-1" d="M56.69,19.61h-.73c-.3,0-.53.07-.68.21-.15.14-.23.36-.23.65v2.54h-1.41v-4.69h1.32v1.12c.11-.36.28-.64.53-.83.25-.19.55-.29.9-.29h.3v1.29Z"/>
      <path class="cls-1" d="M57.77,22.95c-.23-.11-.41-.26-.53-.46-.13-.2-.19-.43-.19-.7h0c0-.34.1-.62.31-.85.21-.23.5-.38.89-.45l1.69-.32c.1-.02.17-.05.22-.09.05-.04.07-.1.07-.17h0c0-.25-.07-.43-.22-.55-.15-.13-.36-.19-.63-.19s-.51.07-.68.2c-.17.13-.27.32-.29.56h-1.23c.03-.54.24-.96.62-1.26.39-.3.93-.45,1.63-.45.46,0,.85.06,1.18.19.33.13.58.32.75.56.17.24.26.53.26.86v1.97c0,.1.02.16.05.2s.1.05.19.05h.27v.97h-.77c-.33,0-.58-.07-.75-.21-.17-.14-.27-.36-.31-.65-.07.19-.19.36-.35.51-.16.15-.36.26-.6.34-.23.08-.49.12-.77.12-.31,0-.58-.05-.81-.16h0ZM58.63,22.1c.13.1.31.15.55.15.2,0,.38-.04.54-.11.16-.08.28-.18.37-.32.09-.14.13-.3.13-.48v-.62c-.05.07-.14.11-.27.14l-.93.2c-.2.04-.35.12-.45.22-.1.1-.15.23-.15.39h0c0,.19.06.34.19.44h0Z"/>
      <path class="cls-1" d="M62.94,18.32h1.32v1.05c.07-.23.19-.44.35-.61.17-.17.37-.31.61-.41.24-.1.5-.15.78-.15.31,0,.59.06.82.19s.41.3.54.54c.13.23.19.51.19.83v3.25h-1.41v-2.88c0-.24-.07-.43-.21-.57-.14-.14-.34-.21-.59-.21-.3,0-.54.09-.72.26-.18.17-.27.41-.27.71v2.69h-1.41v-4.69h0Z"/>
      <path class="cls-1" d="M69.13,22.95c-.23-.11-.41-.26-.53-.46-.13-.2-.19-.43-.19-.7h0c0-.34.1-.62.31-.85.21-.23.5-.38.89-.45l1.69-.32c.1-.02.17-.05.22-.09.05-.04.07-.1.07-.17h0c0-.25-.07-.43-.22-.55-.15-.13-.36-.19-.63-.19s-.51.07-.68.2c-.17.13-.27.32-.29.56h-1.23c.03-.54.24-.96.62-1.26.39-.3.93-.45,1.63-.45.46,0,.85.06,1.18.19s.58.32.75.56c.17.24.26.53.26.86v1.97c0,.1.02.16.05.2s.1.05.19.05h.27v.97h-.77c-.33,0-.58-.07-.75-.21-.17-.14-.27-.36-.31-.65-.07.19-.18.36-.35.51-.16.15-.36.26-.6.34-.23.08-.49.12-.77.12-.31,0-.58-.05-.81-.16h0ZM69.99,22.1c.13.1.31.15.55.15.2,0,.38-.04.54-.11.16-.08.28-.18.37-.32.09-.14.13-.3.13-.48v-.62c-.05.07-.14.11-.27.14l-.93.2c-.2.04-.35.12-.45.22-.1.1-.15.23-.15.39h0c0,.19.06.34.19.44h0Z"/>
      <path class="cls-1" d="M77.75,21.96c-.15.36-.37.65-.67.85-.3.2-.65.3-1.04.3s-.76-.1-1.07-.3c-.31-.2-.54-.48-.71-.85-.17-.37-.25-.8-.25-1.29v-.02c0-.49.08-.92.25-1.29.17-.37.4-.65.71-.85.31-.2.66-.3,1.07-.3.37,0,.69.08.97.26.28.17.49.41.65.72v-2.83h1.41v6.65h-1.32v-1.05h0ZM75.76,21.82c.18.2.43.3.75.3.23,0,.44-.06.62-.18.18-.12.31-.29.41-.51.1-.22.15-.47.15-.76v-.02c0-.29-.05-.54-.15-.76s-.23-.38-.41-.5-.38-.18-.62-.18c-.32,0-.57.1-.75.3-.18.2-.27.49-.27.86v.6c0,.36.09.65.27.85h0Z"/>
      <path class="cls-1" d="M80.69,22.95c-.23-.11-.41-.26-.53-.46-.13-.2-.19-.43-.19-.7h0c0-.34.1-.62.31-.85.21-.23.5-.38.89-.45l1.69-.32c.1-.02.17-.05.22-.09.05-.04.07-.1.07-.17h0c0-.25-.07-.43-.22-.55-.15-.13-.36-.19-.63-.19s-.51.07-.68.2c-.17.13-.27.32-.29.56h-1.23c.03-.54.24-.96.62-1.26.39-.3.93-.45,1.63-.45.46,0,.85.06,1.18.19.33.13.58.32.75.56.17.24.26.53.26.86v1.97c0,.1.02.16.05.2s.1.05.19.05h.27v.97h-.77c-.33,0-.58-.07-.75-.21s-.27-.36-.31-.65c-.07.19-.19.36-.35.51-.16.15-.36.26-.6.34-.23.08-.49.12-.77.12-.31,0-.58-.05-.81-.16h0ZM81.55,22.1c.13.1.31.15.55.15.2,0,.38-.04.54-.11.16-.08.28-.18.37-.32.09-.14.13-.3.13-.48v-.62c-.05.07-.14.11-.27.14l-.93.2c-.2.04-.35.12-.45.22-.1.1-.15.23-.15.39h0c0,.19.06.34.19.44h0Z"/>
    </g>
  </g>
</svg>