<?xml version="1.0" encoding="UTF-8"?>
<svg id="Capa_2" data-name="Capa 2" xmlns="http://www.w3.org/2000/svg" viewBox="0 0 148.96 91.59">
  <defs>
    <style>
      .cls-1 {
        fill: #e99d47;
      }

      .cls-2 {
        fill: #00284c;
      }
    </style>
  </defs>
  <g id="Capa_1-2" data-name="Capa 1">
    <g id="Capa_1-2" data-name="Capa 1-2">
      <path class="cls-1" d="M55.5,91.59L18.7,26.67h73.61l-36.81,64.92ZM21.78,28.47l33.72,59.48,33.72-59.48H21.78Z"/>
      <path class="cls-1" d="M130.38,64.92H56.76L93.57,0l36.81,64.92h0ZM59.85,63.12h67.44L93.57,3.64l-33.72,59.48Z"/>
      <g>
        <path class="cls-2" d="M1.77,71.42c.22-.24.52-.36.91-.36.2,0,.38.05.54.14s.3.22.41.39.2.38.25.63h1.44c-.09-.54-.26-1-.5-1.38-.24-.38-.54-.67-.9-.87-.36-.2-.78-.3-1.25-.3-.57,0-1.05.11-1.45.33-.4.22-.7.53-.91.94s-.32.91-.32,1.49v2.03c0,.58.11,1.08.32,1.49.21.41.51.72.91.94.4.22.88.32,1.45.32.47,0,.88-.1,1.25-.3s.66-.49.9-.87.41-.84.5-1.38h-1.44c-.08.37-.22.65-.43.86-.21.2-.47.3-.77.3-.39,0-.69-.12-.91-.36s-.32-.57-.32-1.01v-2.03c0-.43.11-.77.32-1.01h0Z"/>
        <path class="cls-2" d="M10.45,69.74l-2.83,7.39h1.5l.42-1.18h2.71l.42,1.18h1.5l-2.83-7.39h-.89ZM10.01,74.61l.88-2.52.88,2.52s-1.77,0-1.77,0Z"/>
        <path class="cls-2" d="M21.44,73.89c.31-.18.54-.44.71-.77s.26-.72.26-1.16-.08-.83-.25-1.16c-.17-.33-.41-.59-.71-.77-.31-.18-.67-.27-1.08-.27h-3.24v7.4h1.39v-2.97h.85l1.67,2.97h1.69l-1.77-3.05c.17-.05.34-.11.49-.2h0ZM18.52,71.08h1.73c.22,0,.4.08.53.24s.2.37.2.63c0,.26-.07.47-.2.63s-.3.24-.52.24h-1.73s0-1.74,0-1.74Z"/>
        <path class="cls-2" d="M30.16,70.02c-.35-.19-.76-.28-1.22-.28h-2.96v7.39h1.39v-2.87h1.57c.46,0,.87-.09,1.22-.28s.62-.45.81-.79.29-.73.29-1.19-.1-.86-.29-1.19-.46-.6-.81-.79ZM29.58,72.68c-.16.17-.36.25-.61.25h-1.61v-1.84h1.61c.25,0,.46.08.61.25.15.17.23.39.23.67s-.08.5-.23.66h0Z"/>
        <rect class="cls-2" x="34.3" y="69.74" width="1.44" height="7.39"/>
        <polygon class="cls-2" points="43.65 75.16 41.02 69.74 39.32 69.74 39.32 77.13 40.65 77.13 40.65 71.8 43.27 77.13 44.98 77.13 44.98 69.74 43.65 69.74 43.65 75.16"/>
        <polygon class="cls-2" points="48.05 71.09 50.07 71.09 50.07 77.14 51.46 77.14 51.46 71.09 53.47 71.09 53.47 69.74 48.05 69.74 48.05 71.09"/>
        <polygon class="cls-2" points="56.84 69.74 56.34 69.74 56.34 77.14 56.84 77.14 57.73 77.14 61.29 77.14 61.29 75.79 57.73 75.79 57.73 74.14 60.73 74.14 60.73 72.79 57.73 72.79 57.73 71.09 61.29 71.09 61.29 69.74 57.73 69.74 56.84 69.74"/>
        <path class="cls-2" d="M68.92,73.89c.31-.18.54-.44.71-.77s.26-.72.26-1.16-.08-.83-.25-1.16-.41-.59-.71-.77c-.31-.18-.67-.27-1.08-.27h-3.24v7.4h1.39v-2.97h.85l1.67,2.97h1.69l-1.77-3.05c.17-.05.34-.11.49-.2h0ZM66,71.08h1.73c.22,0,.4.08.53.24.13.16.2.37.2.63,0,.26-.07.47-.2.63s-.3.24-.52.24h-1.73v-1.74Z"/>
        <polygon class="cls-2" points="73.44 68.43 74.27 69.29 75.77 68.14 74.84 67.19 73.44 68.43"/>
        <rect class="cls-2" x="73.35" y="69.74" width="1.44" height="7.39"/>
        <path class="cls-2" d="M80.38,69.74l-2.83,7.39h1.5l.42-1.18h2.71l.42,1.18h1.5l-2.83-7.39h-.89ZM79.94,74.61l.88-2.52.88,2.52h-1.77Z"/>
        <polygon class="cls-2" points="93.71 72.93 92.3 69.74 90.84 69.74 93.01 74.28 93.01 77.14 94.41 77.14 94.41 74.28 96.58 69.74 95.12 69.74 93.71 72.93"/>
        <path class="cls-2" d="M106.49,69.74h-2.45v7.39h2.44c.65,0,1.19-.11,1.62-.33.43-.22.76-.53.97-.93s.33-.86.33-1.38v-2.09c0-.84-.25-1.49-.76-1.95s-1.23-.69-2.15-.69h0ZM107.95,74.53c0,.4-.13.71-.38.93s-.61.33-1.06.33h-1.08v-4.71h1.08c.46,0,.81.11,1.06.33.25.22.38.53.38.93v2.18h0Z"/>
        <rect class="cls-2" x="112.72" y="69.74" width="1.44" height="7.39"/>
        <path class="cls-2" d="M122.11,73.33c-.23-.15-.49-.26-.77-.34s-.57-.15-.85-.2c-.26-.05-.5-.11-.72-.16s-.41-.15-.54-.27-.21-.3-.21-.54h0c0-.26.12-.46.35-.6s.57-.21.99-.21c.29,0,.58.05.89.16s.61.26.89.46l.59-1.18c-.36-.25-.74-.44-1.15-.57-.41-.13-.82-.2-1.22-.2-.87,0-1.54.2-2.01.59s-.71.95-.71,1.67h0c0,.45.07.81.23,1.08.15.27.35.47.6.62.25.14.52.25.81.32.3.07.59.12.87.16.24.04.46.08.67.14.21.05.37.14.5.25s.19.28.19.49h0c0,.29-.13.5-.38.66s-.6.23-1.06.23c-.39,0-.78-.06-1.15-.19-.37-.13-.7-.31-.99-.54l-.64,1.15c.24.19.5.36.8.5s.61.24.95.31.68.11,1.04.11c.89,0,1.59-.2,2.08-.59s.74-.94.74-1.65h0c0-.43-.07-.77-.21-1.03s-.33-.46-.56-.62h0Z"/>
        <polygon class="cls-2" points="126.61 69.74 126.1 69.74 126.1 77.14 126.61 77.14 127.49 77.14 131.05 77.14 131.05 75.79 127.49 75.79 127.49 74.14 130.49 74.14 130.49 72.79 127.49 72.79 127.49 71.09 131.05 71.09 131.05 69.74 127.49 69.74 126.61 69.74"/>
        <path class="cls-2" d="M136.37,69.09c0-.24.12-.36.36-.36.11,0,.21.03.32.07s.22.1.33.16c.12.06.25.12.38.17.14.05.29.08.45.08.35,0,.6-.14.78-.41s.26-.69.26-1.24v-.12h-1.06v.1c0,.26-.12.39-.36.39-.07,0-.16-.02-.25-.07s-.21-.09-.33-.15c-.14-.06-.28-.12-.43-.18s-.31-.08-.47-.08c-.35,0-.61.13-.78.4s-.26.68-.26,1.22v.13h1.06v-.11h0Z"/>
        <polygon class="cls-2" points="138.71 75.16 136.08 69.74 134.38 69.74 134.38 77.13 135.71 77.13 135.71 71.8 138.33 77.13 140.04 77.13 140.04 69.74 138.71 69.74 138.71 75.16"/>
        <path class="cls-2" d="M148.63,70.96c-.22-.41-.54-.72-.94-.95-.41-.23-.88-.34-1.42-.34s-1.02.11-1.42.34c-.41.23-.72.54-.94.95-.22.41-.34.89-.34,1.44v2.09c0,.54.11,1.02.34,1.43.22.41.54.73.94.95.41.23.88.34,1.42.34s1.02-.11,1.42-.34c.41-.23.72-.54.94-.95s.34-.89.34-1.43v-2.09c0-.55-.11-1.03-.34-1.44ZM147.52,74.52c0,.39-.12.7-.34.94s-.53.36-.91.36-.68-.12-.91-.36-.34-.55-.34-.94v-2.17c0-.39.12-.71.34-.94s.53-.35.91-.35.68.12.91.35.34.55.34.94v2.17Z"/>
      </g>
      <g>
        <path class="cls-2" d="M44.64,11.49h6.12c4.15,0,7,2.72,7,7.17s-2.86,7.17-7,7.17h-6.12v-14.34h0ZM50.58,22.06c1.75,0,2.96-1.21,2.96-3.4s-1.21-3.4-2.96-3.4h-1.76v6.8h1.76Z"/>
        <path class="cls-2" d="M77.12,25.82l-.04-6.53-2.7,5.24h-1.84l-2.7-5.02v6.31h-3.81v-14.34h3.44l4.04,7.64,3.94-7.64h3.44l.04,14.34h-3.81,0Z"/>
        <path class="cls-2" d="M98.15,23.33h-4.72l-.83,2.5h-4.26l5.43-14.34h4.11l5.43,14.34h-4.33l-.83-2.5h0ZM97,19.84l-1.21-3.6-1.21,3.6h2.41Z"/>
      </g>
      <g>
        <path class="cls-2" d="M46.26,39.95h6.12c4.15,0,7,2.72,7,7.17s-2.86,7.17-7,7.17h-6.12v-14.34h0ZM52.2,50.52c1.75,0,2.96-1.21,2.96-3.4s-1.21-3.4-2.96-3.4h-1.76v6.8h1.76Z"/>
        <path class="cls-2" d="M73.23,50.69h-1.14v3.6h-4.18v-14.34h5.98c3.46,0,5.66,2.09,5.66,5.41,0,2.07-.85,3.62-2.34,4.51l2.61,4.42h-4.47l-2.11-3.6h0ZM73.62,43.68h-1.53v3.36h1.53c1.15,0,1.7-.63,1.7-1.68s-.55-1.68-1.7-1.68h0Z"/>
        <path class="cls-2" d="M96.59,51.79h-4.72l-.83,2.5h-4.26l5.43-14.34h4.11l5.43,14.34h-4.33l-.83-2.5h0ZM95.44,48.31l-1.21-3.6-1.21,3.6h2.41Z"/>
      </g>
    </g>
  </g>
</svg>