<?xml version="1.0" encoding="UTF-8"?>
<svg id="Capa_2" data-name="Capa 2" xmlns="http://www.w3.org/2000/svg" viewBox="0 0 663.16 399.32">
  <defs>
    <style>
      .cls-1 {
        fill: #e80026;
      }
    </style>
  </defs>
  <g id="Capa_1-2" data-name="Capa 1">
    <g>
      <g>
        <path class="cls-1" d="M106.16,397.87l7.46-101.04c12.19-4.08,29.81-7.04,36.56,6.51,8.36,16.77,13.37,42.65,18.96,61.05.43,1.42-.63,1.77,2.01,1.48.68-4.98,2.07-10.2,3.51-15,3.45-11.53,10.48-40.59,15.64-49.36,6.38-10.84,27.28-9.07,36.89-3.97l4.96,100.32h-25l-3.01-78.99-25.49,76c-1.37,1.65-19.9,1.56-21.03.02l-22.98-76.03-4.5,79.01h-24Z"/>
        <path class="cls-1" d="M598.16,335.87h41v-40c5.89-1.68,15.17-3.89,20.52-.02.82.59,3.48,3.92,3.48,4.52v96.5h-24v-40.5l-1.5-1.5h-39.5v42h-25v-101c6.21-1.84,17.31-4.35,22.03,1.47.66.81,2.97,5.45,2.97,6.03v32.5Z"/>
        <path class="cls-1" d="M70.16,357.87h-16v-17h38v53c-36.99,12.38-88.66,4.52-91.98-42.52-2.96-41.81,30.87-60.15,68.47-57.47,18.96,1.35,23.98,6.47,14.53,24.56-16.46-7.5-39.66-10.29-51.46,6.49-8.67,12.34-7.34,36.48,3.94,46.93,7.57,7.01,25.63,11.53,34.49,5.51v-19.5Z"/>
        <path class="cls-1" d="M477.16,396.87h-26l-7.98-24.52-36.06-.02-7.96,24.54h-24l32.22-97.28c10.45-9.76,33.06-8.12,39.17,6.4l30.61,90.89ZM412.16,353.87h23.5c.25,0,.77,1.22,1.5.53l.81-2.82c-3.19-4.18-10.43-37.13-12.32-37.72s-1.51.91-1.94,2.01c-4.59,11.87-7.06,25.94-11.55,38Z"/>
        <path class="cls-1" d="M552.15,318.87c-7.76-3.69-17.7-7.3-26.44-7.02s-22.01,4.56-16.33,15.3c2.63,4.98,22.81,10.01,29.02,12.98,35.97,17.16,22.84,55.64-13.75,58.72-8.97.76-35.5-.27-41.48-7.49-3.29-3.98.55-13.84,2.09-18.4,2.17-1.53,9.31,3.5,11.93,4.38,11.56,3.89,41.86,7.14,35.53-13.53-2.33-7.62-26.1-12.54-33.59-16.4-24.2-12.48-21.22-43.06,4.76-51.32,10.87-3.46,37.32-3.46,47.2,2.36,8.05,4.74,3.51,13.77,1.06,20.42Z"/>
        <path class="cls-1" d="M362.03,320.73c-6.15-1.16-10.62-6.84-17.45-7.78-42.76-5.86-45.08,54.51-17.7,64.7,12.94,4.82,25.84.65,37.28-5.79,6.4,15.69,5.59,21.88-11.79,25.7-34.03,7.48-67.08-9.16-69.19-46.21-2.18-38.51,22.93-60.21,60.52-57.53,17.9,1.28,33.07,7.99,18.33,26.9Z"/>
      </g>
      <g>
        <path class="cls-1" d="M462.57,47.03l.17,2.79-61.76,16.76c-17.78,3.37-35.51,7.55-53.67,8.33-6.12.27-20.48.88-25.79-.31-4.42-.99-8.37-12.42-13.51-15.68-12.75-8.1-40.96-6.83-56.7-7.09-5.39-.09-27.65-.95-30.9.17-2.68.93-2.67,5.47-.69,7.4,9.51,9.26,55.26,6.4,70.48,9.54,5.7,1.18,10.8,3.96,14.55,8.45,5.48,6.59,7.74,17.46,17.52,18.47,13.19,1.36,31.04-4.77,44.06-6.94,31.19-5.21,63.1-8.66,93.21-18.79,5.72-1.92,11.54-4.14,16.74-7.21.89,0,4.52,8.45,4.35,9.32-.77,4.05-36.19,19.73-41.9,22.1-77.43,32.15-165.41,42.47-248.44,30.5l-2.35-1.65c-6.78-29.42-15.3-80.96,5.79-105.84C205.73,3.21,231.03,2.01,248.26.86c53.34-3.57,116.56,3.99,167.03,22,16.78,5.99,33,13.49,47.28,24.18ZM292.62,87.73c2.01-3.24-.52-7.19-4.42-7.79-12.2-1.87-30.82-.17-43.97-1.03-5-.33-23.66-6-24.47,1.5-.77,7.09,10.4,6.87,15.52,7.45,14.97,1.7,37,2.14,52.03,1.05,1.17-.08,4.86-.46,5.31-1.19ZM298.53,97.07c-3.19.44-7.46,2.89-10.53,3.52-14.13,2.89-36.26,3.42-50.71,2.26-5.08-.41-15.96-4.58-19.59-1.56-3.43,2.86-1.72,5.58,1.84,7.3s15.62,4.27,20.03,4.98c16.18,2.57,43.7,2.11,59.23-3.18,9.82-3.35,8.63-14.56-.26-13.32Z"/>
        <path class="cls-1" d="M482.76,86.88c.33,7.85-2.26,16.18-4.97,23.52-23.93,64.84-140.72,144.81-210.05,127-28.49-7.32-53.41-46.03-64.87-71.33-2.19-4.84-8.04-19.21-9-23.82-.41-1.99.92-1.66,2.33-1.32,10.08,2.41,22.67,8.5,33.55,11.45,20.01,5.44,71.04,16.68,89.55,10.57.4-.13,6.82-4.13,7.12-4.42,7.25-6.83.03-13.99,16.96-16.54,50.92-7.68,98.13-16.78,136.41-53.54.96-.92,1.17-2.01,2.96-1.58Z"/>
      </g>
    </g>
  </g>
</svg>