<?xml version="1.0" encoding="UTF-8"?>
<svg id="Capa_2" data-name="Capa 2" xmlns="http://www.w3.org/2000/svg" viewBox="0 0 155.7 79.89">
  <defs>
    <style>
      .cls-1 {
        fill: #103073;
      }

      .cls-2 {
        fill: #e2051a;
      }
    </style>
  </defs>
  <g id="Capa_1-2" data-name="Capa 1">
    <g id="Layer_2" data-name="Layer 2">
      <g>
        <g>
          <path class="cls-1" d="M21.66,79.77c-3.89-.39-8.1-2.45-12.23-2.77-3.12-.25-6.33.07-9.43.3,3.88-9.36,5.55-19.49,8.44-29.09,1.72-5.72,4.91-13.3,12.29-12.13-2.3,2.48-3.43,5.39-4.41,8.57-2.69,8.7-3.62,17.99-7.03,26.49,5.93-.6,11.42,2.92,17.18,3.39,3.8.31,7.26-.54,10.98-.92-1.13,2.82-4.04,4.48-6.82,5.39-.62.2-2.25.72-2.77.79-1.46.17-4.7.15-6.19,0h0Z"/>
          <path class="cls-1" d="M155.64,50.43c-.12,1.8.17,3.79,0,5.56-.2,2.12-1.13,4.64-1.25,6.94s.22,3.97.94,6.03h-4.49c-2.34,0-2.1-5.78-2.01-7.25.41-6.17,4.26-11.86-5.88-10.65-.7,4.3-.78,8.8-1.59,13.08-.78,4.12-2.09,5.22-6.46,4.82l2.61-21.95c.13-.4.2-1.02.68-1.17.29-.1,2.78-.31,3.37-.35,5-.32,11.88-.51,14.08,4.94h0Z"/>
          <path class="cls-1" d="M122.46,44.95c17.4-2.36,14.38,27.77-2.79,24.24-12.02-2.47-9.21-22.62,2.79-24.24ZM120.15,63.92c.38.34,1.4.71,1.92.73,5.7.26,7.26-13.67,2.95-15.01-5.86-1.83-8.16,11.31-4.87,14.28h0Z"/>
          <path class="cls-1" d="M38.06,68.96h-4.49c-1.17,0-2.19-2.07-2.33-2.16-.23-.15-2.36,1.62-3.18,1.92-3.38,1.22-7.97-.22-9.56-3.56-3.67-7.74,2.07-17.76,10.2-19.58,1.64-.37,9.68-.9,10.24.73-.31,5.14-1.58,10.25-1.83,15.38-.07,1.33-.16,3.7.03,4.93.14.9.87,1.45.91,2.34h0ZM33.11,49.82c-5.47-.34-9.32,4.48-9.16,9.68.1,3.35,2.6,5.73,5.87,3.87,2.87-1.63,2.5-10.45,3.29-13.55Z"/>
          <path class="cls-1" d="M93.14,68.96c-2.71.02-5.78.53-6.96-2.47-3.38,4.71-11.24,2.87-12.93-2.53-2.27-7.22,2.27-15.65,9.39-17.99,3.52-1.16,8.14-1.18,11.62.13l-2.05,17.14c-.24,2.1.3,3.79.94,5.72h0ZM88.19,49.81c-5.79-.33-9.68,5.16-8.95,10.63.46,3.46,3.99,4.77,6.48,2.2,1.45-1.49,1.49-4.21,1.8-6.23.13-.83.9-6.36.66-6.6h0Z"/>
          <path class="cls-1" d="M53.53,68.96c.18-4.19,1.22-8.35,1.54-12.51.46-6.01-1.21-5.53-6.77-5.36-.9,4.26-.83,8.77-1.62,13.05-.76,4.11-2.12,5.23-6.46,4.82l2.84-22.65c.08-.23.22-.39.46-.47.31-.11,3.3-.33,3.97-.36,5.48-.3,12.94-.25,13.75,6.68.28,2.41-.84,12.02-1.68,14.32-1.08,2.99-3.31,2.49-6.03,2.48h0Z"/>
          <path class="cls-1" d="M53.22,72.67h4.8c.4,0,2.82-1.34,3.22-1.73,1.21-1.16,1.85-3.35,2.16-4.95.97-5.02,1.06-10.31,1.94-15.36.38-2.19.35-4.05,2.62-5.1.75-.35,3.84-1.25,4.1-.16-1.32,6.84-1.55,14.12-2.79,20.93-.74,4.04-2.39,8.14-6.75,9.32-3.18.86-7.35-.19-9.3-2.95h0Z"/>
          <path class="cls-1" d="M100.46,67.93c-1.35,1.4-3.4,1-5.15,1.03l2.81-22.82c1.21-.5,4.96-1.07,5.49.48.2.58-.29,1.8.36,1.96,3.64-5.85,14.38-3.76,7.57,3.71-3.45-3.29-7.75,1.18-8.72,4.57-.81,2.81-.46,9.11-2.36,11.08h0Z"/>
          <path class="cls-1" d="M131.5,37.16c-.75,7.22-8.37,3.54-12.68,6.48.86-6.02,8.36-4.81,12.68-6.48Z"/>
          <path class="cls-1" d="M71.99,37.88c2.77,2.76-1.85,7.75-4.7,5.15-3.09-2.82,1.83-8.01,4.7-5.15Z"/>
          <g>
            <path class="cls-2" d="M73.98,73.75c-.25,0-.42.14-.42.5v.55h-.76v-.5c0-.82.41-1.28,1.19-1.28s1.19.46,1.19,1.28c0,1.6-1.59,2.2-1.59,3.03,0,.04,0,.07,0,.11h1.51v.73h-2.32v-.63c0-1.5,1.59-1.75,1.59-3.22,0-.46-.16-.58-.42-.58h0Z"/>
            <path class="cls-2" d="M75.63,74.31c0-.82.43-1.28,1.21-1.28s1.21.46,1.21,1.28v2.65c0,.82-.43,1.28-1.21,1.28s-1.21-.46-1.21-1.28v-2.65ZM76.43,77.01c0,.36.16.5.42.5s.42-.14.42-.5v-2.75c0-.36-.16-.5-.42-.5s-.42.14-.42.5v2.75Z"/>
            <path class="cls-2" d="M78.51,74.31c0-.82.43-1.28,1.21-1.28s1.21.46,1.21,1.28v2.65c0,.82-.43,1.28-1.21,1.28s-1.21-.46-1.21-1.28v-2.65h0ZM79.31,77.01c0,.36.16.5.42.5s.42-.14.42-.5v-2.75c0-.36-.16-.5-.42-.5s-.42.14-.42.5v2.75Z"/>
            <path class="cls-2" d="M85.17,78.18h-.81l-.14-.92h-.98l-.14.92h-.73l.82-5.1h1.17l.82,5.1h0ZM83.35,76.57h.77l-.39-2.58-.38,2.58Z"/>
            <path class="cls-2" d="M86.26,74.49v3.69h-.72v-5.1h1l.82,3.05v-3.05h.71v5.1h-.82l-1-3.69h0ZM87.41,72.05l.38.27c-.14.37-.36.5-.62.5-.31,0-.44-.18-.65-.18-.13,0-.23.03-.31.21l-.38-.27c.14-.37.36-.5.62-.5.31,0,.44.18.65.18.13,0,.23-.03.31-.21Z"/>
            <path class="cls-2" d="M88.59,74.31c0-.82.43-1.28,1.21-1.28s1.21.46,1.21,1.28v2.65c0,.82-.43,1.28-1.21,1.28s-1.21-.46-1.21-1.28v-2.65ZM89.39,77.01c0,.36.16.5.42.5s.42-.14.42-.5v-2.75c0-.36-.16-.5-.42-.5s-.42.14-.42.5v2.75Z"/>
            <path class="cls-2" d="M92.61,73.03c.78,0,1.18.46,1.18,1.28v.16h-.76v-.21c0-.36-.15-.5-.4-.5s-.4.14-.4.5c0,1.05,1.57,1.25,1.57,2.7,0,.82-.41,1.28-1.19,1.28s-1.19-.46-1.19-1.28v-.31h.76v.36c0,.36.16.5.42.5s.42-.13.42-.5c0-1.05-1.57-1.25-1.57-2.7,0-.82.4-1.28,1.18-1.28h0Z"/>
            <path class="cls-1" d="M95.39,73.09h1.27c.8,0,1.19.44,1.19,1.26v2.58c0,.82-.39,1.26-1.19,1.26h-1.27v-5.1h0ZM96.19,73.81v3.64h.45c.25,0,.41-.13.41-.5v-2.65c0-.36-.15-.5-.41-.5h-.45Z"/>
            <path class="cls-1" d="M99.16,75.23h1.1v.73h-1.1v1.49h1.38v.73h-2.18v-5.1h2.18v.73h-1.38v1.42h0Z"/>
            <path class="cls-1" d="M104.75,78.18h-.81l-.14-.92h-.98l-.14.92h-.73l.82-5.1h1.17l.82,5.1h0ZM102.92,76.57h.77l-.39-2.58-.38,2.58Z"/>
            <path class="cls-1" d="M106.32,75.34h1.12v1.61c0,.82-.41,1.28-1.19,1.28s-1.19-.46-1.19-1.28v-2.65c0-.82.41-1.28,1.19-1.28s1.19.46,1.19,1.28v.5h-.76v-.55c0-.36-.16-.5-.42-.5s-.42.14-.42.5v2.75c0,.36.16.5.42.5s.42-.13.42-.5v-.94h-.36v-.73h0Z"/>
            <path class="cls-1" d="M108.72,73.09v3.93c0,.36.16.5.42.5s.42-.13.42-.5v-3.93h.76v3.88c0,.82-.41,1.28-1.19,1.28s-1.19-.46-1.19-1.28v-3.88h.8Z"/>
            <path class="cls-1" d="M113.45,78.18h-.81l-.14-.92h-.98l-.14.92h-.73l.82-5.1h1.17l.82,5.1h0ZM111.62,76.57h.77l-.39-2.58-.38,2.58Z"/>
            <path class="cls-1" d="M114.95,73.09h1.27c.8,0,1.19.44,1.19,1.26v2.58c0,.82-.39,1.26-1.19,1.26h-1.27v-5.1h0ZM115.74,73.81v3.64h.45c.25,0,.41-.13.41-.5v-2.65c0-.36-.15-.5-.41-.5h-.45Z"/>
            <path class="cls-1" d="M118.71,75.23h1.1v.73h-1.1v1.49h1.38v.73h-2.18v-5.1h2.18v.73h-1.38v1.42h0Z"/>
            <path class="cls-1" d="M122.8,73.03c.78,0,1.18.46,1.18,1.28v.16h-.76v-.21c0-.36-.15-.5-.4-.5s-.4.14-.4.5c0,1.05,1.57,1.25,1.57,2.7,0,.82-.41,1.28-1.19,1.28s-1.19-.46-1.19-1.28v-.31h.76v.36c0,.36.16.5.42.5s.42-.13.42-.5c0-1.05-1.57-1.25-1.57-2.7,0-.82.4-1.28,1.18-1.28h0Z"/>
            <path class="cls-1" d="M124.44,73.09h.8v5.1h-.8v-5.1Z"/>
            <path class="cls-1" d="M126.62,75.23h1.1v.73h-1.1v1.49h1.38v.73h-2.18v-5.1h2.18v.73h-1.38v1.42h0Z"/>
            <path class="cls-1" d="M130.17,78.18c-.04-.13-.07-.21-.07-.63v-.8c0-.47-.16-.65-.52-.65h-.28v2.07h-.8v-5.1h1.21c.83,0,1.19.39,1.19,1.17v.4c0,.52-.17.86-.52,1.03.4.17.53.55.53,1.08v.79c0,.25,0,.43.09.62h-.82,0ZM129.3,73.81v1.57h.31c.3,0,.48-.13.48-.54v-.5c0-.36-.12-.52-.41-.52h-.39Z"/>
            <path class="cls-1" d="M133.1,78.18c-.04-.13-.07-.21-.07-.63v-.8c0-.47-.16-.65-.52-.65h-.28v2.07h-.8v-5.1h1.21c.83,0,1.19.39,1.19,1.17v.4c0,.52-.17.86-.52,1.03.4.17.53.55.53,1.08v.79c0,.25,0,.43.09.62h-.82,0ZM132.23,73.81v1.57h.31c.3,0,.48-.13.48-.54v-.5c0-.36-.12-.52-.41-.52h-.39Z"/>
            <path class="cls-1" d="M136.94,78.18h-.81l-.14-.92h-.98l-.14.92h-.73l.82-5.1h1.17l.82,5.1h0ZM135.12,76.57h.77l-.39-2.58-.38,2.58Z"/>
            <path class="cls-1" d="M139.16,74.49v3.69h-.72v-5.1h1l.82,3.05v-3.05h.71v5.1h-.82l-1-3.69h0Z"/>
            <path class="cls-1" d="M142.35,75.23h1.1v.73h-1.1v1.49h1.38v.73h-2.18v-5.1h2.18v.73h-1.38v1.42h0Z"/>
            <path class="cls-1" d="M145.44,77.24l.61-4.16h.73l-.79,5.1h-1.19l-.79-5.1h.81l.61,4.16h0Z"/>
            <path class="cls-1" d="M149.56,78.18h-.81l-.14-.92h-.98l-.14.92h-.73l.82-5.1h1.17l.82,5.1h0ZM147.73,76.57h.77l-.39-2.58-.38,2.58Z"/>
            <path class="cls-1" d="M149.93,73.09h1.27c.8,0,1.19.44,1.19,1.26v2.58c0,.82-.39,1.26-1.19,1.26h-1.27v-5.1h0ZM150.73,73.81v3.64h.45c.25,0,.41-.13.41-.5v-2.65c0-.36-.15-.5-.41-.5h-.45Z"/>
            <path class="cls-1" d="M155.49,78.18h-.81l-.14-.92h-.98l-.14.92h-.73l.82-5.1h1.17l.82,5.1h0ZM153.66,76.57h.77l-.39-2.58-.38,2.58Z"/>
          </g>
        </g>
        <g>
          <path class="cls-1" d="M79.52,6.58c.39.1.84-.24,1.15-.22,1.7.1,2.47.51,3.78,1,1.26.48,4.46-.07,4.63.63.05.22-.65,2.62-.88,2.77-.82.54-1.76-.83-3.12,1.21-.55.82-.26,1.96-1.83,2.19-.26.04-1.87-.89-2.01-1.11-.29-.43-.18-1.21-.49-1.67-.37-.53-1.12-.45-1.39-.79-.13-.17.22-1.35-.6-1.54-.72-.16-.99,2.12-1.44,2.88-.29.49-1.06.96-1.16,1.35-.32,1.23,2.3,2.97,2.4,3.39.16.67-.45,4.21-.89,5.04,2.84,1.21,1.8-1.54,2.66-1.83,1.3-.44,1.26.81,1.38.9.92.64,2.03-2.36,2.26-2.67.32-.42,1.28-1.01,1.64-1.41.12-.14-.08-1.5,1.35-1.16,1.13.79-1.44,4.1-2.03,4.92-.84,1.15-2.45,2.57-3.18,3.62-.43.61-1.17,2.23-1.6,3.04-.17.33-.49.21.02.62.91.74,4.1,1.38,4.98.34.39-.46.35-1.48.67-2.11.22-.42,1.52-2.87,1.63-3,.36-.42,1.11-.25,1.47-1,.67-1.39.78-5.01,1.35-6.35.2-.46.78-.48.88-.67.1-.17-.21-1.18.13-2.05.24-.61.8-.95,1.03-1.45.37-.83.1-2.54,1.32-2.71.55-.08.37.48.7.6,2.6.96,6.28,3.82,7.63,6.24,1.27,2.28,4.16,6.74,5.93,8.9.8.96,2.06,1.38,2.29,2.5-.39.37-4.35-1.97-5.6-.49-1.09,1.3.5,1.09.96,1.57,1.08,1.11-.48,1.16-.59,1.57-.14.55,1,2.72-.34,3.38-1.47.72-4.88-.73-6.33-.46-.73.14-1.12.92-1.8,1.3-2.95,1.61-4.15-.79-6.92-.96-1.2-.07-2.25.45-3.29.22-.72-.16-1.35-1.04-1.97-1.1-.75-.08-3.94,1.29-4.93,1.46-.92.16-2.66.13-4.02.3-3.59.45-6.23-1.37-9.29-2.43-1.71-.59-3.31-.53-5.08-.34.82-2.71,1.2-5.63,2.01-8.34,1.06-3.57,2.79-6.85,2.95-10.67.03-.66-.4-1.4-.34-1.79.04-.24.97-.35,1.2-1.35.37-1.62.28-3.26.39-4.85.2-2.86,2.91-.42,3.53-.47.95-.09.94-1.18,1.32-1.27,2.45-.57,3.76,1.96,5.03,2.35,1.55.47,3.46-.64,2.49,1.99h0ZM75.5,20.79c-1.92.16-2.18,2.26-3.09,3.55-.75,1.08-3.29,2.75-3.41,3.41-.08.47-.12,1.19.31,1.54.09.07,1.97.99,2.08,1.02,1.08.23,2.42-1.26,2.56.99.3.22,3.87-2.52,3.98-2.99s-.31-.99-.27-1.48c.06-.66,1-1.03.47-2.02-.33-.63-3.53-1.5-3.57-1.7-.18-.83,1.04-1.45.93-2.31h0Z"/>
          <path class="cls-1" d="M55.46,19.79c.11.19,1.11.43,1.06,1.16-.02.24-1.41,2.62-1.14,3.55,4.32-.59-.1,2.16-.17,3.68-.02.44,1.07,3,.77,3.4-1.77.78-3.5.67-5.4.64-5.32,1.29-10.63-.62-15.94-1.24,1.94-5.85,6.66-.21,10.08-2.14.16-.09,2.68-2.33,2.76-2.49.96-2.11.49-5.4,2.97-7.24.3-.22.84-.07,1.13-.26.62-.4.33-1.24,2.06-1.13,2.3.14,1.37,1.28,1.82,2.08h0Z"/>
          <path class="cls-1" d="M104.28,13.68l7.89,5.55c1.24-2.13,3.26-.68,4.71.55,1.81,1.52-1.05,1.32-2.3,1.86-.51.22-.99,1.05-1.44.97-2.62-2.73-5.9-4.87-8.34-7.76-.32-.38-.73-.34-.52-1.17h0Z"/>
          <path class="cls-1" d="M79.37.09c.18.06.37.75.86,1.02,1.67.93,4.44.33,5.79,1.92-.89.38-2.62.83-3.55.79-1.16-.05-1.69-.86-2.57-1.17-.99-.33-5.2-1.19-5.64-1.48-.62-.4-.05-1.08.16-1.08,1.05,0,4.27-.22,4.95,0h0Z"/>
          <path class="cls-1" d="M96.23,7.19c.41.23,2.89-.07,3.1,1.39-.9.06-2.24-.06-3.1-.3-1-.29-1.74-1.09-2.39-1.32-1.14-.4-3.12.07-3.49-1.61.21-.16,4.42.28,4.96.44,1.53.45.83,1.36.91,1.4h0Z"/>
        </g>
      </g>
    </g>
  </g>
</svg>