<?xml version="1.0" encoding="UTF-8"?>
<svg id="Capa_2" data-name="Capa 2" xmlns="http://www.w3.org/2000/svg" viewBox="0 0 76.28 68.57">
  <defs>
    <style>
      .cls-1 {
        fill: #1d1d1b;
      }

      .cls-2 {
        fill: #e2211c;
      }
    </style>
  </defs>
  <g id="Capa_1-2" data-name="Capa 1">
    <g id="Layer_1-2" data-name="Layer 1-2">
      <g>
        <path class="cls-2" d="M28.52,0c.74.11,1.49.16,2.24.3,3.04.61,5.72,1.94,8.05,4,.6.53,1.17,1.09,1.66,1.71.18.23.33.26.58.11,2-1.21,4.14-2.1,6.44-2.62,4.87-1.12,9.62-.72,14.21,1.25,1.59.68,3.06,1.55,4.45,2.56,1.21.9,1.08,2.47-.27,3.15-3.32,1.65-6.62,3.32-9.94,4.97-.72.36-1.53.26-2.06-.26-.55-.52-.7-1.34-.38-2.05.19-.43.55-.69.95-.9,2.24-1.12,4.46-2.22,6.68-3.34.07-.04.15-.07.22-.11.19-.09.19-.17,0-.27-.57-.29-1.17-.56-1.77-.79-2.6-1.02-5.31-1.43-8.09-1.25-3.63.23-6.94,1.41-9.89,3.53-.87.63-1.6.69-2.34.19-.19-.12-.33-.29-.46-.49-2.19-3.24-5.19-5.26-9.04-5.98-2.37-.44-4.68-.19-6.94.62-.33.12-.19.22-.04.35,1.19.96,2.37,1.93,3.56,2.89,2.25,1.83,4.49,3.67,6.74,5.5.22.18.44.27.73.23,1.34-.18,2.68-.29,4.04-.27,4.87.09,9.45,1.26,13.71,3.66,2.64,1.48,4.98,3.33,7.03,5.54,2.6,2.82,4.57,6.01,5.88,9.62,1.06,2.92,1.65,5.93,1.7,9.03.01.89-.52,1.54-1.36,1.72-.61.13-1.13-.04-1.6-.43-1.45-1.18-2.89-2.37-4.34-3.55-3.62-2.95-7.25-5.9-10.87-8.86-3.87-3.16-7.74-6.32-11.61-9.46-1.2-.98-2.41-1.96-3.61-2.94-.24-.19-.46-.26-.77-.18-3.96.9-7.51,2.65-10.62,5.25-2.5,2.09-4.52,4.58-6.04,7.46-.38.72-.72,1.45-1.03,2.21.18.06.29-.05.4-.11,3.58-1.82,7.15-3.66,10.74-5.48,2.45-1.25,4.92-2.51,7.37-3.78.63-.33,1.26-.35,1.88.02,1.12.68,1.08,2.39-.07,3.01-1.2.64-2.43,1.25-3.63,1.87-4.29,2.19-8.58,4.39-12.88,6.57-1.98,1.01-3.96,2.03-5.93,3.04-.67.34-1.34.33-1.93-.12-.61-.46-.81-1.09-.66-1.85.7-3.18,1.96-6.15,3.68-8.92,1.15-1.85,2.49-3.53,4.04-5.05,3.21-3.15,6.94-5.44,11.21-6.84.13-.05.27-.09.46-.16-.52-.43-.98-.83-1.47-1.21-2.49-2.03-4.99-4.07-7.49-6.1-.61-.49-1.2-.98-1.8-1.47-1.03-.83-.96-2.27.16-2.98C20.83,1.11,23.43.26,26.24.05c.09,0,.16-.04.24-.05h2.04ZM37.44,16.6c8.28,6.75,16.5,13.45,24.76,20.18-2.11-11.31-12.5-20.32-24.76-20.18Z"/>
        <path class="cls-1" d="M76.28,62.13c-.45,0-.89,0-1.34-.04-.38-.02-.67-.22-.83-.57-.1-.24-.21-.21-.4-.11-3.12,1.76-6.89.01-7.58-3.51-.46-2.34.91-4.82,3.12-5.66,2.39-.9,5-.02,6.27,2.09.4.67.61,1.4.74,2.15v5.65h.01ZM74,56.99c0-1.57-1.25-2.82-2.82-2.82s-2.85,1.24-2.85,2.82,1.28,2.85,2.84,2.85,2.83-1.29,2.83-2.87h0Z"/>
        <path class="cls-1" d="M64.17,59.08v2.65c0,.32-.12.41-.41.4-.51-.01-1.01-.01-1.52,0-.29,0-.36-.11-.35-.38v-4.54c0-1.2-.4-2.2-1.52-2.77-1.74-.9-3.84.21-4.11,2.15-.11.77-.05,1.53-.06,2.28v2.85c0,.27-.09.38-.36.36-.57-.01-1.15-.02-1.72,0-.34.01-.43-.12-.43-.44,0-1.55.02-3.1,0-4.65-.01-1.03-.43-1.89-1.32-2.47-1.7-1.07-3.97-.02-4.29,1.97-.07.45-.06.89-.06,1.34v3.87c0,.32-.11.41-.4.41-.52-.01-1.03,0-1.55,0-.23,0-.35-.07-.34-.33.04-1.86-.09-3.72.06-5.56.18-2.33,1.72-3.92,4.03-4.26,1.43-.21,2.77-.02,3.94.91.36.29.67.63.95.98q.27.33.52,0c.72-.92,1.6-1.64,2.78-1.86,1.7-.3,3.32-.07,4.66,1.12,1.01.89,1.45,2.08,1.49,3.39.04.86,0,1.71,0,2.58h.01Z"/>
        <path class="cls-1" d="M16.17,62.4c0-1.77-.01-3.55,0-5.32.02-2.15.98-3.77,2.93-4.68,1.92-.9,3.77-.64,5.43.66,1.62,1.26,2.25,3.52,1.6,5.58-.58,1.88-2.41,3.3-4.39,3.46-.96.09-1.87-.09-2.73-.51-.32-.16-.34-.05-.34.23v6.24c0,.33-.17.5-.51.51-.53,0-1.06-.01-1.59,0-.33.01-.43-.11-.43-.43v-5.75h.02ZM21.26,54.18c-1.55,0-2.83,1.26-2.83,2.82s1.28,2.87,2.83,2.87,2.84-1.29,2.87-2.85c.01-1.53-1.3-2.83-2.87-2.83Z"/>
        <path class="cls-1" d="M14.01,59.47v2.3c0,.28-.1.39-.36.38-.34-.01-.68,0-1.02-.02-.38-.02-.66-.23-.79-.56-.1-.26-.19-.24-.4-.12-1.74.96-3.49.95-5.2-.04-2.68-1.54-3.32-5.34-1.26-7.66,1.42-1.62,3.22-2.19,5.28-1.62,2.1.58,3.33,2.05,3.68,4.2.17,1.04.07,2.11.1,3.17l-.02-.02ZM6.02,57.02c0,1.54,1.3,2.83,2.83,2.83s2.87-1.31,2.87-2.84-1.3-2.84-2.85-2.83c-1.58,0-2.83,1.26-2.83,2.84h-.01Z"/>
        <path class="cls-1" d="M38.06,59.9v1.91c0,.22-.06.34-.29.34-.36,0-.73,0-1.09-.02-.39-.02-.68-.23-.81-.58-.11-.27-.22-.19-.39-.1-1.85,1.01-3.68.96-5.43-.18-2.47-1.62-3-5.1-1.14-7.4,1.38-1.7,3.22-2.31,5.32-1.75,2.14.56,3.4,2.05,3.72,4.23.17,1.18.12,2.39.1,3.58l.02-.02ZM30.08,56.99c-.01,1.54,1.26,2.85,2.79,2.87,1.54.01,2.87-1.26,2.9-2.82.02-1.51-1.26-2.85-2.76-2.87-1.65-.01-2.92,1.2-2.93,2.82h-.01Z"/>
        <path class="cls-1" d="M.01,54.66v-6.95q0-.47.46-.49h1.76c.24,0,.34.1.33.34v13.96c0,.4-.21.61-.62.61-.51,0-1.01-.01-1.52,0-.32,0-.43-.11-.43-.43v-7.05h.01Z"/>
        <path class="cls-1" d="M40.56,54.69v-6.98q0-.47.46-.47c.55,0,1.11.02,1.65,0,.35-.01.44.13.44.45v13.96c0,.49,0,.5-.49.5h-1.65c-.32,0-.43-.11-.43-.43.01-2.34,0-4.68,0-7.02h.01Z"/>
      </g>
    </g>
  </g>
</svg>