<?xml version="1.0" encoding="UTF-8"?>
<svg id="Capa_2" data-name="Capa 2" xmlns="http://www.w3.org/2000/svg" viewBox="0 0 121.6 114.03">
  <defs>
    <style>
      .cls-1 {
        fill: #cbb36d;
      }

      .cls-2 {
        fill: #a89148;
      }
    </style>
  </defs>
  <g id="Capa_1-2" data-name="Capa 1">
    <g id="Layer_2" data-name="Layer 2">
      <g id="Layer_1-2" data-name="Layer 1-2">
        <g>
          <path class="cls-2" d="M121.6,79.58c-.37.1-.66.34-.98.55-15.29,9.79-30.6,19.58-45.87,29.41-3.29,2.11-6.81,3.62-10.67,4.24-4.31.69-8.43-.04-12.43-1.65-2.57-1.03-4.84-2.61-7.15-4.09-14.53-9.3-29.05-18.62-43.58-27.93-.29-.2-.56-.43-.92-.52v-9.98c.59,0,1.19.04,1.78,0,.56-.04.76.14.75.73-.03,2.31,0,4.62-.03,6.95,0,.62.2.96.72,1.28,15.09,9.65,30.17,19.31,45.23,28.97,2.94,1.88,6.1,3.17,9.55,3.73,3.8.62,7.44-.1,10.97-1.51,2.66-1.06,4.95-2.71,7.34-4.24,14.01-8.97,28.03-17.96,42.04-26.92.55-.34.78-.72.76-1.38-.04-2.3,0-4.59-.03-6.89,0-.57.19-.76.75-.73.59.04,1.19,0,1.78,0v9.98Z"/>
          <path class="cls-2" d="M0,34.45c.32-.07.56-.29.83-.45C16.22,24.14,31.62,14.28,46.99,4.4c3.29-2.11,6.82-3.58,10.7-4.16,4.22-.65,8.27.07,12.19,1.67,1.82.73,3.5,1.72,5.15,2.79,15.22,9.76,30.44,19.53,45.67,29.28.29.19.55.4.88.49v9.98c-.59,0-1.19-.04-1.78,0-.56.04-.76-.14-.75-.73.03-2.31,0-4.62.03-6.95,0-.62-.2-.96-.72-1.28-15.09-9.65-30.17-19.31-45.23-28.97-2.97-1.91-6.16-3.22-9.66-3.73-4.19-.63-8.14.26-11.93,2.01-2.4,1.11-4.54,2.67-6.75,4.08C30.96,17.7,17.11,26.57,3.26,35.43c-.55.34-.78.72-.76,1.38.04,2.3,0,4.59.03,6.89,0,.57-.19.76-.75.73-.59-.04-1.19,0-1.78,0v-9.98Z"/>
          <path class="cls-1" d="M47.81,22.42c-.06.56.1,1.09.23,1.62.88,3.39,2.68,6.27,4.97,8.87,2.35,2.68,5.14,4.85,8.14,6.76.16.1.37.14.45.42-.5.1-.99-.03-1.46-.07-3.85-.33-7.6-1.11-11.07-2.89-2.7-1.38-4.94-3.29-6.29-6.07-1.11-2.27-1.36-4.7-1.19-7.18.26-3.53,1.29-6.83,3.13-9.86.1-.17.16-.49.4-.45.2.03.16.33.23.5.96,2.68,2.94,4.35,5.48,5.41,2.01.85,4.01,1.72,5.73,3.07,2.79,2.18,4.29,5.11,4.92,8.54.22,1.19.27,2.4.34,3.6.03.37-.04.66-.53.42-4.97-2.34-9.33-5.41-12.25-10.22-.49-.79-.85-1.65-1.25-2.51v.03h.01Z"/>
          <path class="cls-2" d="M64.14,84.66v-14.24c0-.54.27-.8.82-.8.49,0,.99.03,1.48,0,.52-.04.78.16,1.02.6,1.88,3.58,3.78,7.14,5.67,10.7,1.97,3.7,3.95,7.39,5.92,11.1.24.45.13.78-.32.99-4.62,2.15-9.25,4.32-13.87,6.48-.47.22-.71.08-.72-.43,0,0,0-14.39,0-14.39Z"/>
          <path class="cls-2" d="M57.48,84.71v14.3c0,.53-.23.68-.69.47-4.64-2.17-9.29-4.34-13.93-6.49-.47-.22-.6-.4-.33-.92,3.91-7.29,7.78-14.59,11.66-21.9.23-.43.49-.6.98-.57.57.04,1.15.03,1.72,0,.47-.03.62.16.62.62v14.49s-.03,0-.03,0Z"/>
          <path class="cls-2" d="M45.39,69.61c-.04.3-.22.4-.33.52-4.64,4.68-9.29,9.35-13.93,14.03-.65.65-1.29,1.29-1.91,1.95-.24.26-.46.29-.78.14-3.14-1.48-6.3-2.94-9.46-4.42-.11-.06-.32-.07-.3-.24,0-.2.24-.24.39-.32,4.91-2.81,9.82-5.61,14.75-8.43,1.72-.98,3.43-1.97,5.15-2.96.32-.19.63-.27,1.01-.27h5.44-.03Z"/>
          <path class="cls-2" d="M76.16,69.61h5.82c.23,0,.42.11.6.23,6.66,3.8,13.34,7.62,20,11.43.14.09.39.11.37.33,0,.17-.23.19-.37.26-3.1,1.45-6.2,2.89-9.3,4.35-.42.2-.66.11-.98-.2-5.1-5.15-10.19-10.28-15.31-15.43-.27-.27-.59-.52-.85-.96h.01Z"/>
          <path class="cls-1" d="M77.59,21c.66,1.35,1.16,2.7,1.59,4.06.47,1.49.9,3,.95,4.58.1,3.5-1.42,6.13-4.41,7.91-2.27,1.36-4.77,2-7.35,2.34-.83.11-1.68.16-2.51.24,0-.04-.04-.1-.06-.14.24-.17.49-.36.73-.53,2.38-1.72,4.61-3.6,6.42-5.94,1.16-1.49,2.11-3.1,2.5-5,.07-.37.11-.73.06-1.12-.23,0-.24.2-.32.32-1.91,3.35-4.52,5.97-7.93,7.8-.36.2-.75.36-1.12.53-.3.14-.52.11-.47-.29.23-2.5.67-4.94,2.21-7.04.82-1.12,2.05-1.65,3.24-2.21.85-.39,1.71-.73,2.56-1.12,1.78-.82,3.03-2.13,3.63-4.01.03-.1.07-.19.11-.27,0-.03.06-.04.16-.13h0Z"/>
          <path class="cls-1" d="M71.46,69.61c.55-.13,1.01.16,1.44.63,5.04,5.41,10.09,10.8,15.15,16.2.34.37.7.75,1.08,1.11.29.29.29.47-.1.65-2.08.96-4.16,1.92-6.25,2.9-.43.2-.56-.06-.72-.34-1.85-3.33-3.72-6.66-5.59-9.99-1.92-3.45-3.86-6.91-5.79-10.35-.43-.78-.42-.79.49-.79,0,0,.29,0,.29,0Z"/>
          <path class="cls-1" d="M50.14,69.61c1.23,0,1.26-.1.69.95-3.43,6.15-6.88,12.29-10.31,18.42-.34.6-.69,1.21-1.01,1.82-.17.34-.36.46-.75.27-2.04-.96-4.08-1.91-6.13-2.84-.46-.2-.43-.39-.11-.73,3.04-3.23,6.09-6.48,9.13-9.72,2.34-2.5,4.68-4.98,7.01-7.49.45-.49.9-.82,1.48-.67Z"/>
          <path class="cls-1" d="M32.75,69.76c-.53.29-1.06.59-1.59.88-5.34,2.83-10.7,5.67-16.05,8.5-.58.32-.88.13-.88-.55v-8.31c0-.46.11-.67.63-.67h17.57c.1,0,.19,0,.29.03.01.04.03.09.04.13,0,0-.01,0-.01,0Z"/>
          <path class="cls-1" d="M88.82,69.73c.24-.17.45-.11.63-.11h17.09c.56,0,.83.27.83.82v8.49c0,.62-.06.65-.59.36-5.89-3.12-11.77-6.25-17.67-9.36-.09-.04-.16-.1-.3-.19,0,0,.01,0,.01,0Z"/>
          <path d="M11.97,51.65c-.7,1.19-1.42,2.37-2.13,3.56-.42.69-1.08.7-1.51,0-.7-1.16-1.42-2.33-2.13-3.49-.23.13-.14.32-.14.45,0,1.32-.01,2.66,0,3.98,0,.34-.09.47-.46.49-.98.03-1.46-.45-1.46-1.44v-6.88c0-.45.13-.53.56-.57.83-.07,1.32.19,1.72.95.82,1.51,1.75,2.94,2.64,4.42.29-.1.33-.33.43-.5.88-1.46,1.74-2.93,2.6-4.38.23-.37,1.52-.66,1.85-.4.17.13.1.33.1.5v4.62c0,1.06,0,2.14.04,3.2,0,.34-.09.49-.46.5-1.49.04-1.49.06-1.49-1.42v-3.53l-.16-.03v-.03h-.01Z"/>
          <path d="M84.9,52.2v-3.98c0-.24-.04-.49.34-.47,1.51.06,3.02-.11,4.51.11,2.05.32,3.19,2.01,2.7,3.96-.19.73-.57,1.32-1.23,1.68-.43.24-.39.43-.13.76.46.6.88,1.22,1.29,1.85.09.13.26.24.2.4-.07.17-.27.1-.43.1-1.08.03-1.92-.4-2.54-1.31-.92-1.35-.11-.13-.13-.2-.4-1.08-1.28-1.05-2.2-.98-.32.03-.34.19-.33.43v1.61c0,.33-.09.45-.43.46-1.07.05-1.61-.46-1.61-1.52v-2.91h-.01ZM88.07,52.5c.37-.03.8.04,1.23-.09.79-.23,1.15-.69,1.12-1.52-.03-.75-.43-1.21-1.23-1.36-.52-.1-1.03-.03-1.54-.07-.55-.06-.8.1-.73.7.06.4,0,.83,0,1.25,0,.73.37,1.09,1.13,1.09h.01Z"/>
          <path d="M42.59,52.14v-3.8c0-.42.09-.6.55-.59,1.88.03,3.76,0,5.64,0,.4,0,.52.13.5.52-.03,1.42.16,1.15-1.15,1.16h-2.97c-.39,0-.52.11-.52.5-.01,1.38-.03,1.38,1.35,1.38h2.25c.33,0,.45.11.46.45.04,1.19.06,1.19-1.13,1.19h-2.44c-.4,0-.5.13-.5.52-.01,1.52-.03,1.52,1.45,1.52h2.84c.34,0,.47.09.49.46,0,1.21.03,1.21-1.16,1.21h-5.11c-.45,0-.59-.13-.57-.57.03-1.31,0-2.61,0-3.92h.03Z"/>
          <path d="M29.45,53.88c0,.3-.04.6,0,.89.14.78-.26,1.15-.92,1.42-1.68.7-3.37.86-5.04.03-1.87-.93-2.76-2.91-2.34-5.04.39-1.92,2.14-3.39,4.25-3.53,1.41-.1,2.71.2,3.82,1.12.34.29.39.5,0,.78-.09.06-.16.13-.22.2-.42.52-.76.63-1.41.16-1.32-.98-3.35-.49-4.11.86-.8,1.41-.29,3.23,1.12,3.93.82.4,1.67.4,2.53.1.3-.1.4-.26.39-.56-.01-.57,0-1.15,0-1.72,0-.85.66-.4,1.01-.43.32-.03.9-.33.89.45v1.36h.03,0Z"/>
          <path d="M72.05,53.86c0,.32-.04.65,0,.95.11.69-.22,1.06-.82,1.32-1.71.75-3.43.93-5.15.09-1.87-.92-2.74-2.89-2.33-5.05.37-1.91,2.08-3.35,4.21-3.5,1.44-.11,2.76.17,3.88,1.13.3.26.4.47,0,.72-.03,0-.06.06-.09.09-.26.24-.49.57-.8.69-.37.13-.56-.33-.88-.5-1.29-.7-3.02-.4-3.82.7-.83,1.15-.67,2.84.34,3.79.8.73,2.27.95,3.23.47.24-.11.29-.29.29-.52v-1.78c0-.3.09-.4.4-.42,1.49-.07,1.49-.09,1.49,1.42v.42h.04Z"/>
          <path d="M82.2,56.62c-.69,0-1.16-.32-1.44-.96s-.73-.95-1.38-.92h-2.61c-.32,0-.53.07-.62.4,0,.04-.03.07-.04.11-.59,1.41-.59,1.39-2.1,1.39-.49,0-.57-.11-.37-.56.98-2.15,1.94-4.32,2.91-6.49.09-.2.22-.39.26-.6.22-1.03.83-1.36,1.87-1.25.53.06.79.17,1.01.66,1.09,2.5,2.21,4.98,3.33,7.47.23.5.07.76-.46.76h-.36ZM78.35,49.84c-.46,1.12-.86,2.07-1.25,3.03-.09.2,0,.3.22.3h2.07c.2,0,.3-.07.2-.29-.4-.96-.79-1.92-1.25-3.03h.01Z"/>
          <path d="M31.92,50.81c0-.85.01-1.69,0-2.56,0-.39.13-.5.52-.5,1.55,0,1.55-.03,1.55,1.54,0,1.22-.03,2.46,0,3.68.04,1.55,1.19,2.37,2.61,1.92.65-.2,1.01-.66,1.16-1.31.17-.66.1-1.34.1-2.01,0-1.11.01-2.21,0-3.32,0-.39.13-.5.5-.5,1.54,0,1.54-.03,1.54,1.49v3.56c0,2.8-1.87,4.16-4.48,3.92-2.28-.22-3.46-1.57-3.49-3.85v-2.08h-.01Z"/>
          <path d="M113.31,47.78c.8-.23,1.12.2,1.41.86,1.06,2.47,2.17,4.91,3.29,7.35.22.47.16.6-.37.59-1.52,0-1.54,0-2.13-1.41-.14-.34-.33-.47-.7-.46-1.01.03-2.01.03-3.03,0-.37,0-.56.1-.72.46-.63,1.49-.65,1.48-2.24,1.42-.36,0-.46-.07-.29-.43,1.19-2.67,2.4-5.33,3.56-8.01.29-.66.83-.23,1.21-.37h.01ZM113.37,50.02h-.14c-.39.93-.78,1.88-1.18,2.81-.1.24,0,.33.23.33h2.01c.3,0,.33-.11.23-.36-.39-.92-.76-1.85-1.15-2.79Z"/>
          <path d="M99.06,47.62c1.28,0,2.41.37,3.35,1.26.24.23.27.42-.01.6-.03.03-.06.06-.09.09-.27.26-.52.6-.85.73-.37.14-.55-.34-.85-.52-1.22-.7-2.87-.4-3.7.67-.82,1.08-.7,2.84.27,3.76,1.05.99,2.68,1.06,3.78.09.36-.32.57-.33.85.03.03.04.09.07.13.11.88.79.86.89-.13,1.52-2.53,1.64-6.81.7-7.47-2.9-.55-2.97,1.59-5.46,4.72-5.46Z"/>
          <path d="M51.69,52.16v-3.86c0-.42.13-.53.55-.55,1.55,0,1.55-.03,1.55,1.54v5.04c0,.49.16.6.6.59,1.09-.03,2.18,0,3.26,0,.42,0,.55.14.53.55-.04,1.39.17,1.15-1.16,1.16h-4.7c-.49,0-.66-.11-.65-.63.03-1.29,0-2.57,0-3.86v.04h.01Z"/>
          <path d="M104.73,52.16v-3.91c0-.34.07-.47.46-.49,1.59-.03,1.59-.04,1.59,1.54v6.76c0,.43-.09.59-.55.59q-1.49,0-1.49-1.46v-3.03s-.01,0-.01,0Z"/>
          <path d="M16.83,52.14c0-1.28.01-2.57,0-3.85,0-.42.13-.53.55-.53q1.52,0,1.52,1.49v6.82c0,.45-.13.57-.57.57q-1.49,0-1.49-1.48v-3.02h0Z"/>
          <path d="M48.79,63.93c0,.72-.03,1.44,0,2.15.03.5-.23.52-.62.53-.39,0-.56-.09-.56-.52.03-1.22,0-2.46,0-3.68,0-.23-.17-.59.2-.65.34-.06.73-.13,1.02.26.55.72,1.15,1.42,1.72,2.13.09.1.17.2.39.26,0-.72.03-1.44,0-2.15-.03-.52.26-.5.63-.52.4,0,.56.1.55.53-.03,1.22,0,2.46,0,3.68,0,.23.17.57-.2.65-.33.06-.69.11-.98-.24-.59-.75-1.19-1.48-1.81-2.2-.07-.09-.11-.22-.34-.2v-.03Z"/>
          <path d="M81.87,63.89c0,.72-.03,1.45,0,2.17.03.47-.17.56-.59.56s-.56-.1-.55-.53c.03-1.21,0-2.41,0-3.62,0-.24-.19-.62.2-.7.37-.09.76-.1,1.05.32.52.7,1.09,1.35,1.65,2.02.1.11.14.29.42.29,0-.73.03-1.45,0-2.17-.03-.47.22-.5.57-.49.34,0,.6,0,.59.49-.03,1.25,0,2.5,0,3.73,0,.22.13.55-.17.62-.33.07-.69.13-.98-.22-.59-.75-1.21-1.46-1.81-2.2-.09-.1-.16-.22-.23-.33-.06.03-.1.04-.16.07h0Z"/>
          <path d="M53.8,64.09v-1.95c0-.3.1-.42.4-.42.75,0,1.51,0,2.25.03,1.23.09,2.17.99,2.23,2.14.07,1.42-.66,2.4-2,2.63-.82.14-1.65.04-2.48.09-.32,0-.4-.14-.39-.43v-2.07h-.01ZM54.96,64.14v1.13c0,.24.07.37.34.36.39,0,.79.03,1.18-.07.75-.2,1.16-.88,1.03-1.69-.14-.89-.93-1.36-2.18-1.16-.78.11-.17.82-.36,1.21-.03.07,0,.16,0,.23h-.01Z"/>
          <path d="M76.73,61.63c1.54,0,2.64,1.11,2.63,2.56-.03,1.45-1.15,2.48-2.7,2.48s-2.61-1.06-2.63-2.5c0-1.48,1.13-2.56,2.7-2.54ZM76.72,62.61c-.83,0-1.49.65-1.52,1.49-.03.88.63,1.57,1.49,1.58.86,0,1.51-.66,1.51-1.55s-.63-1.51-1.48-1.52Z"/>
          <path d="M62.1,65.55h-.53c-.42-.06-.65.1-.78.5-.17.53-.56.67-1.11.53-.24-.06-.22-.19-.14-.34.63-1.42,1.26-2.86,1.91-4.28.17-.39,1.18-.36,1.35,0,.65,1.42,1.28,2.84,1.91,4.26.1.22.07.33-.2.33-.5,0-1.01.07-1.12-.63-.06-.36-.3-.46-.65-.42-.22.03-.43,0-.65,0v.03h0ZM62.75,64.62c-.13-.62-.39-1.18-.69-1.55-.07.14-.14.29-.2.42-.36.85-.07,1.22.89,1.12h0Z"/>
          <path d="M45.96,63.48v1.12c-.04,1.23-.8,2-2.01,2.02-1.44.04-2.28-.62-2.37-1.9-.06-.89,0-1.78-.03-2.67,0-.49.34-.33.57-.34.26,0,.57-.09.57.37v2.31c0,.45.07.88.5,1.13.66.39,1.49,0,1.57-.75.07-.85.07-1.69.06-2.54-.01-.5.22-.53.6-.53s.57.1.55.53c-.03.42,0,.83,0,1.25h-.01Z"/>
          <path d="M68.19,61.63c.57,0,1.11.13,1.57.47.16.11.55.24.26.52-.2.2-.34.73-.86.32-.57-.46-1.29-.43-1.87,0-.52.37-.7.98-.53,1.64.27.99,1.48,1.39,2.35.79.32-.22.88-.03.99.33.09.26-.16.33-.3.45-.86.67-2.33.69-3.23.04-.89-.63-1.25-1.77-.89-2.86.33-1.05,1.28-1.68,2.53-1.68h-.01Z"/>
          <path d="M36.6,64.17v-1.95c0-.34.07-.5.46-.5h2.79c.32,0,.46.09.46.43s-.1.5-.47.47c-.53-.03-1.06,0-1.59,0-.56-.03-.46.34-.46.66s-.09.66.45.6c.47-.04.95,0,1.42,0,.33,0,.39.14.39.43s0,.52-.4.5h-1.42c-.33,0-.46.11-.45.45.01.23,0,.47,0,.7.03.42-.04.65-.56.65s-.63-.2-.6-.66c.03-.59,0-1.19,0-1.78Z"/>
          <path d="M71.49,64.12c0-.65.03-1.31,0-1.95,0-.4.16-.49.49-.45.27.04.67-.16.66.39v4.09c0,.5-.34.37-.62.39-.29,0-.56.04-.53-.4.03-.69,0-1.38,0-2.07Z"/>
          <path d="M108.26,45.42c-.67.53-1.32,1.12-2.05,1.59-.43.27-.99.1-1.64.07.59-.63,1.09-1.18,1.61-1.69.19-.19.45-.1.67-.1h1.35s.04.1.06.16c0,0,0-.03,0-.03Z"/>
          <path d="M78.08,60.43c-.62.47-1.03,1.13-1.95.88.47-.65.95-1.22,1.95-.88Z"/>
        </g>
      </g>
    </g>
  </g>
</svg>