<?xml version="1.0" encoding="UTF-8"?>
<svg id="Capa_2" data-name="Capa 2" xmlns="http://www.w3.org/2000/svg" viewBox="0 0 133.45 23.96">
  <defs>
    <style>
      .cls-1 {
        fill: #fff7b3;
      }

      .cls-2 {
        fill: #ffe500;
      }

      .cls-3 {
        fill: #2f2b29;
      }
    </style>
  </defs>
  <g id="Capa_1-2" data-name="Capa 1">
    <g>
      <path class="cls-3" d="M0,23.28c.19-.99.4-1.99.58-2.98.48-2.62.95-5.25,1.42-7.88.46-2.61.92-5.23,1.38-7.84.13-.74.28-1.48.42-2.22.1,0,.19-.02.27-.02,3.26,0,6.52,0,9.79.02,1.12,0,2.21.27,3.16.9,1.47.96,1.91,2.43,1.74,4.06-.16,1.53-.42,3.05-.78,4.54-.61,2.52-2.39,3.97-4.76,4.78-1.03.35-2.11.46-3.2.46-1.02,0-2.05,0-3.08,0-.29,0-.41.07-.46.38-.34,2.01-.72,4.01-1.1,6.08H0v-.27ZM7.38,12.43c1.15,0,2.24.05,3.33-.02,1.09-.06,1.88-.79,2.12-1.85.13-.56.21-1.13.3-1.69.17-.93-.43-1.84-1.38-1.91-1.11-.08-2.24-.02-3.41-.02-.32,1.81-.65,3.65-.97,5.48Z"/>
      <path class="cls-3" d="M38.66,23.51c1.26-7.08,2.53-14.12,3.79-21.16.13,0,.22-.02.32-.02,3,0,5.99,0,8.99.02,1.14,0,2.23.26,3.25.78,1.69.88,2.47,2.33,2.63,4.17.1,1.18-.11,2.34-.33,3.5-.35,1.93-.62,3.86-1.05,5.77-.74,3.39-2.72,5.72-6.16,6.64-.63.17-1.3.3-1.95.3-3.09.03-6.19.02-9.28.02-.06,0-.11,0-.2-.02ZM44.88,18.9c1.21,0,2.36.02,3.5-.02.3,0,.61-.13.88-.26.97-.45,1.4-1.31,1.61-2.28.28-1.28.51-2.57.72-3.87.17-1.05.33-2.1.38-3.16.05-1.15-.7-2.09-1.85-2.27-.9-.14-1.81-.1-2.72-.16-.33-.02-.43.12-.48.42-.28,1.69-.58,3.39-.87,5.08-.38,2.16-.78,4.32-1.17,6.52h0Z"/>
      <path class="cls-3" d="M17.55,23.51c.44-1.22.86-2.39,1.29-3.57,2.07-5.72,4.15-11.43,6.2-17.14.13-.36.28-.49.68-.48,2.95.02,5.91,0,8.86,0h.54v21.18h-5.58c.06-1.52.12-3.02.18-4.56-.14-.02-.25-.04-.36-.04h-4.3c-.24,0-.36.06-.44.31-.44,1.43-.9,2.85-1.36,4.29,0,0-5.71,0-5.71,0ZM29.87,14.93c.11-2.51.22-4.98.33-7.48-.56,0-1.05.02-1.54,0-.28-.02-.39.1-.46.34-.53,1.72-1.07,3.44-1.62,5.16-.21.65-.41,1.3-.62,1.98h3.92,0Z"/>
      <path class="cls-3" d="M75.15,18.91c-.29,1.58-.56,3.08-.83,4.6h-15.01c.1-.63.21-1.24.31-1.84.35-1.95.71-3.91,1.06-5.86.35-1.97.7-3.93,1.05-5.9.38-2.16.77-4.32,1.15-6.48.02-.1.05-.19.06-.29.11-.55.44-.82.99-.82h14.17c-.28,1.54-.55,3.04-.83,4.58h-9.18c-.33,0-.49.06-.54.43-.18,1.18-.4,2.34-.61,3.56h7.96c-.28,1.55-.55,3.05-.83,4.59h-7.53c-.32,0-.46.07-.51.42-.14.99-.34,1.98-.52,3.03h9.63l.02-.02Z"/>
      <path class="cls-3" d="M93.26,18.91c-.29,1.58-.56,3.09-.84,4.61h-13.65c1.26-7.07,2.53-14.11,3.79-21.17h5.39c-.98,5.52-1.96,11.01-2.95,16.57h8.26Z"/>
      <path class="cls-3" d="M109.9,18.93c-.17.93-.32,1.78-.47,2.63-.1.54-.23,1.07-.29,1.61-.03.34-.18.38-.46.38-1.02-.02-2.05,0-3.08,0h-10.18c.1-.62.19-1.19.3-1.77.36-2.02.72-4.05,1.09-6.07.43-2.39.86-4.79,1.3-7.18.35-1.95.7-3.91,1.06-5.86.02-.13.17-.33.26-.33,1.7-.02,3.4-.02,5.18-.02-.98,5.55-1.97,11.05-2.95,16.61h8.26-.02Z"/>
      <g>
        <path class="cls-2" d="M125.43,5.46c.55,1.62,2.09,2.79,3.9,2.79,2.28,0,4.12-1.85,4.12-4.12,0-.89-.28-1.7-.76-2.38-2.78.31-4.92,5.26-7.27,3.71Z"/>
        <path class="cls-1" d="M129.33,0c-2.28,0-4.12,1.85-4.12,4.12,0,.47.08.91.22,1.33,2.35,1.55,4.48-3.4,7.27-3.71-.75-1.06-1.98-1.75-3.37-1.75Z"/>
      </g>
      <path class="cls-3" d="M129.33,8.25c-1.81,0-3.35-1.17-3.9-2.79-.14-.42-.22-.86-.22-1.33,0-.68.18-1.3.47-1.87-1.18-.06-2.29-.17-3.39-.15-1.57.02-3.13.31-4.56,1.02-2.66,1.32-3.97,3.61-4.53,6.4-.34,1.7-.62,3.41-.93,5.12-.26,1.42-.54,2.84-.42,4.29.11,1.42.57,2.68,1.73,3.6,1.07.85,2.35,1.17,3.67,1.32,1.42.16,2.84.14,4.25-.09,1.43-.22,2.78-.67,3.96-1.54,1.87-1.38,2.81-3.33,3.26-5.52.47-2.27.85-4.56,1.25-6.84.1-.55.14-1.12.2-1.7-.26.05-.54.08-.82.08ZM124.48,10.3c-.34,1.99-.71,3.97-1.08,5.94-.06.33-.16.65-.27.97-.61,1.76-1.97,2.25-3.61,2.18-.17,0-.34-.04-.5-.06-1.06-.16-1.73-.87-1.68-1.92.06-1.07.22-2.13.39-3.2.26-1.54.52-3.09.86-4.61.33-1.5,1.19-2.55,2.77-2.85.26-.05.53-.05.79-.07h.02c1.52-.03,2.25.7,2.39,1.79.07.6.02,1.24-.08,1.84Z"/>
    </g>
  </g>
</svg>