<?xml version="1.0" encoding="UTF-8"?>
<svg id="Capa_2" data-name="Capa 2" xmlns="http://www.w3.org/2000/svg" viewBox="0 0 109.29 109.25">
  <defs>
    <style>
      .cls-1 {
        fill: #ffde59;
      }

      .cls-2 {
        fill: #231f20;
      }
    </style>
  </defs>
  <g id="Capa_1-2" data-name="Capa 1">
    <g id="Layer_1-2" data-name="Layer 1-2">
      <g>
        <g>
          <path class="cls-2" d="M56.61,0c1.57.16,3.14.3,4.7.49,10.09,1.25,19.13,5.03,27.1,11.33,8.23,6.5,14.09,14.72,17.63,24.58,1.95,5.42,2.96,11.02,3.1,16.78,0,.41.09.81.14,1.21v1.14c-.11,1.35-.21,2.71-.33,4.05-1.04,11.42-5.27,21.54-12.67,30.29-7.1,8.4-15.96,14.15-26.52,17.21-8.01,2.32-16.14,2.77-24.4,1.37-10.82-1.84-20.24-6.54-28.18-14.04-8.47-8-13.89-17.76-16.13-29.24C-1.17,53.68.1,42.55,4.98,31.93c5.32-11.55,13.72-20.26,25.08-26.03C36.97,2.39,44.32.48,52.07.14c.31-.01.62-.09.93-.14h3.61Z"/>
          <path class="cls-1" d="M108.72,54.36C108.57,23.39,82.7-.28,53.14.52,23.57,1.31-.04,25.88.46,55.76c.5,29.67,25.29,53.57,54.98,53.05,29.66-.5,53.53-24.79,53.29-54.45h-.01Z"/>
        </g>
        <g>
          <path class="cls-2" d="M54.7,20.4c18.62,0,33.4,14.8,34.25,32.55.97,20.25-15.04,35.31-32.7,36.09-20.07.9-35.75-15.38-35.97-33.82-.24-19.15,15.44-34.99,34.41-34.81Z"/>
          <path class="cls-1" d="M20.85,54.31c-.27,17.21,13,33.64,33.07,34.19,17.85.48,33.64-13.12,34.49-32.35.82-18.69-13.38-34.29-32.33-35.18-18.46-.87-34.91,13.58-35.24,33.34h.01Z"/>
        </g>
        <path class="cls-2" d="M73.34,16.7c1.16-1.03,2.17-1.88,3.11-2.81.64-.63,1.18-.59,1.76.01-1.05.79-2.64,4.12-2.37,5.34-.65-.32-1.18-.58-1.79-.88,1.48-.79,1.49-2.33,2.15-3.52-1.14,1.01-2.28,2.03-3.41,3.04-.12-.06-.25-.12-.37-.18.09-1.49.17-2.97.26-4.47-.54,1.17-1.63,2.12-1.47,3.72-.44-.2-.85-.39-1.34-.61,1.13-.68,2.79-4.11,2.54-5.19.77.12,1.33.27,1.22,1.26-.14,1.35-.18,2.72-.28,4.32h-.01Z"/>
        <g>
          <path class="cls-2" d="M12.82,54.2c1-1.12,1-1.19.11-2.19.33.08.79.04.97.25.24.29.4.78.33,1.15-.06.35-.41.69-.68.99-.87.98-.86,1.19.12,1.9-.02.09-.04.16-.08.25-.42-.12-.83-.24-1.37-.4-.88.93-2.18.99-3.52.76-1.31-.21-2.04-1.13-2.04-2.45s.76-2.28,2.1-2.49c2.17-.34,3.44.33,4.05,2.22h.01Z"/>
          <path class="cls-1" d="M9.5,56.18c.56-.04.94-.04,1.31-.11.84-.14,1.39-.62,1.43-1.5.04-.84-.39-1.45-1.19-1.58-.89-.14-1.81-.15-2.71-.04-.64.08-1.12.53-1.18,1.29-.06.78.18,1.39.96,1.64.49.17,1.03.23,1.37.3h.01Z"/>
        </g>
        <g>
          <path class="cls-2" d="M41.87,15.28c-.62.64-1.22.45-1.81-.06-.82-.72-1.69-1.14-2.88-.3.32.58.65,1.18,1.05,1.9-.34.14-.87.35-1.45.59.16-1.3-1.21-4.81-2.27-5.53,1.29-.43,2.41-.94,3.58-1.17,1.13-.21,2.06,1.21,1.65,2.36-.09.24-.21.45-.35.73.82.49,1.61.97,2.47,1.48h.01Z"/>
          <path class="cls-1" d="M36.99,14.3c.83-.34,1.83-.34,1.96-1.33.06-.47-.23-1.21-.59-1.46-.77-.52-1.52.04-2.29.44.3.78.59,1.5.91,2.36h0Z"/>
        </g>
        <g>
          <path class="cls-2" d="M94.34,36.59c-.57.39-1.12.74-1.79,1.2-.18-.41-.43-.92-.72-1.56,1.28.26,4.74-1.23,5.49-2.37.47,1.21.99,2.3,1.27,3.44.11.42-.24,1.13-.6,1.44-.65.57-1.48.68-2.34.02-.47.83-.94,1.62-1.44,2.48-.49-.2-.54-.69-.33-1.21.12-.29.31-.56.52-.79.69-.81.77-1.62-.04-2.64h0Z"/>
          <path class="cls-1" d="M94.73,36.54c.64.72,1.07,1.41,1.7,1.79.26.16,1.08-.2,1.35-.56.62-.84-.1-1.57-.42-2.39-.81.35-1.57.69-2.63,1.16Z"/>
        </g>
        <path class="cls-2" d="M29.61,17.42c.19.28.52.73.73,1.05-.81.31-1.5.59-2.37.93.52.73.91,1.29,1.29,1.83,1.5-.59,2.07-1.18,2.3-2.31.9.62.92.84.15,1.39-1.04.74-2.1,1.46-3.09,2.16-.67-2-1.83-3.47-3.32-4.9,1.14-.79,2.37-1.68,3.7-2.61.27.4.47.71.68,1.01-1.52-.5-2.07.89-3.21,1.26.47.67.86,1.22,1.39,1.99.59-.6,1.12-1.13,1.76-1.78h0Z"/>
        <path class="cls-2" d="M14.69,34.64c.27-.88.48-1.58.73-2.42.29.15.78.42,1.16.61-.59.62-1.1,1.17-1.75,1.87.79.43,1.41.77,2.13,1.16.38-1.1,1.59-1.8.85-3.12,1.11.04,1.27.3.77,1.19-.61,1.1-1.22,2.19-1.81,3.25-1.43-1.48-3.11-2.3-5.1-2.91.14-.28.33-.72.56-1.14.37-.7.75-1.39,1.14-2.07.48-.86.69-.87,1.46-.02-1.47.14-1.51,1.47-2.22,2.39.68.39,1.27.72,2.09,1.19h0Z"/>
        <g>
          <path class="cls-2" d="M86.56,20.86c0,1.5-1.83,3.46-3.24,3.48-1.22.01-2.57-1.26-2.59-2.46-.02-1.5,1.88-3.53,3.31-3.52,1.26.01,2.52,1.27,2.51,2.5h.01Z"/>
          <path class="cls-1" d="M85.86,20.61c.02-1.17-1.29-2.03-2.25-1.35-.79.56-1.52,1.35-1.98,2.21-.61,1.16.42,2.38,1.66,2.17,1.02-.18,2.54-1.98,2.57-3.03Z"/>
        </g>
        <path class="cls-2" d="M24.19,25.94c0,.94-1.32,2.45-2.27,2.54-.24.02-.53-.02-.72-.15-.16-.12-.21-.39-.31-.59.19-.04.43-.18.57-.12.93.4,1.5-.13,1.83-.85.15-.33.06-.99-.17-1.25-.24-.25-.86-.3-1.23-.18-.53.16-.97.58-1.46.86-.67.38-1.29.25-1.81-.28-.55-.56-.6-1.23-.16-1.81.41-.54.92-1.03,1.49-1.39.27-.17.77-.01,1.15.08.12.03.16.33.25.52-.19.05-.44.2-.56.13-.54-.33-.97-.19-1.37.19-.45.43-.73.93-.31,1.51.41.56.93.39,1.44.09.46-.28.89-.6,1.39-.83,1.01-.45,2.28.41,2.28,1.51h0Z"/>
        <g>
          <path class="cls-2" d="M58.6,13.59h-1.47c-.15-.67-.15-1.56-.41-1.63-.63-.2-1.42-.13-2.08.02-.17.04-.16.83-.27,1.44h-1.2c1.01-1.74,1.96-3.45,2.23-5.64.69-.41.87-.35,1.22.61.38,1.01.71,2.03,1.08,3.03.27.71.58,1.42.89,2.17Z"/>
          <path class="cls-1" d="M54.86,11.27h1.79c-.26-.78-.48-1.47-.78-2.41-.39.91-.68,1.6-1.02,2.41h.01Z"/>
        </g>
        <path class="cls-2" d="M7.72,45.46c.13-.45.27-.98.41-1.49,1.33,1.03,2.83,1.3,4.35,1.43.73.06,1.11-.53,1.27-1.19.18-.73.12-1.49-.64-1.79-1.11-.44-2.28-.74-3.44-1.05-.19-.05-.45.15-.84.29.11-.52.2-.93.27-1.23.73.29,1.37.58,2.04.82.54.19,1.11.29,1.64.47,1.34.46,1.79,1.41,1.42,2.86-.34,1.3-1.33,1.92-2.66,1.63-.74-.16-1.46-.42-2.2-.58-.46-.1-.94-.1-1.6-.15h-.01Z"/>
        <path class="cls-2" d="M88.62,31.04c-.24-.31-.57-.76-.83-1.11.56-.28,1.05-.47,1.47-.76,1-.7,1.98-1.45,3.2-2.36-.68-.37-1.17-.62-1.74-.92.21-.17.48-.39.89-.71.84,1.13,1.71,2.16,2.41,3.3.41.67-.33.75-.7.97-.1-.6-.18-1.16-.27-1.71-.11-.02-.2-.05-.31-.08-1.31,1.14-2.94,1.9-4.12,3.38Z"/>
        <path class="cls-2" d="M102.25,52.8v1.52c-1.74-.62-3.47-.15-5.16-.29-.39,1.56-.21,2.47.56,3.17-.85.47-1.2.31-1.22-.6-.03-1.28,0-2.54,0-3.72,2,.49,3.85.41,5.85-.09h-.02Z"/>
        <path class="cls-2" d="M19.82,85.31c-.86,0-1.43-.57-1.43-1.41s.62-1.46,1.51-1.43c.87.02,1.39.58,1.36,1.46-.02.86-.57,1.39-1.45,1.37Z"/>
        <path class="cls-2" d="M89.87,82.48c.86-.02,1.44.53,1.46,1.36.02.85-.53,1.44-1.36,1.47-.92.03-1.48-.49-1.49-1.42,0-.87.53-1.41,1.4-1.43h0Z"/>
        <path class="cls-2" d="M45.8,8.5c.38-.08.93-.18,1.45-.28-.19,2.04.17,3.89.92,5.84-.4.08-.96.16-1.44.25.15-2.05-.23-3.9-.93-5.81Z"/>
        <path class="cls-2" d="M95.4,46.16c2.07-.05,3.92-.35,5.78-1.23.1.43.21.99.35,1.61-1.27-.44-4.95.35-5.77,1.31-.15-.7-.27-1.26-.37-1.69Z"/>
        <g>
          <path class="cls-2" d="M24.53,91.16c.3.23.6.45.9.68-.73.19-1.13-.15-1.37-.76-.13-.31-.24-.64-.41-.93-.5-.87-.45-1.66.19-2.34.59-.61,1.51-.73,2.25-.29.77.46,1.16,1.32.93,2.08-.27.91-1.04,1.47-1.99,1.42-.15,0-.3-.04-.44-.06-.02.08-.05.15-.08.23h0Z"/>
          <path class="cls-1" d="M23.83,89.09c0,.74.62,1.41,1.35,1.42.74.02,1.4-.62,1.41-1.36,0-.73-.62-1.39-1.36-1.41-.76-.02-1.39.58-1.4,1.35Z"/>
        </g>
        <g>
          <path class="cls-2" d="M75.33,96.49c-.56-1.08-1.08-2.1-1.66-3.22.62-.31,1.18-.58,1.74-.86.03-.01.06-.01.1-.02.57-.13,1.1,0,1.18.6.12.88,2.09,1.62.25,2.66-.48.28-1,.52-1.59.83h-.01Z"/>
          <path class="cls-1" d="M75.57,95.85c.44-.23.87-.39,1.19-.65.19-.16.21-.52.32-.78-.28-.08-.59-.26-.83-.19-.41.11-.78.38-1.21.6.19.37.34.67.53,1.03Z"/>
          <path class="cls-1" d="M74.92,94.57c.54-.48.96-.84,1.33-1.22.03-.04-.18-.44-.24-.43-.56.1-1.11.24-1.75.4.25.47.39.74.67,1.26h-.01Z"/>
        </g>
        <g>
          <path class="cls-2" d="M52.98,99.41c0-.06-.02-.13,0-.19.19-.57-.56-1.58.75-1.64,1.58-.09,2.53.48,2.68,1.62.13.96-.56,1.84-1.58,2.02-1.72.3-1.86.17-1.87-1.81h.01Z"/>
          <path class="cls-1" d="M53.58,98.1v2.63c.83.11,1.64.18,2.08-.57.21-.37.24-1.02.05-1.4-.42-.84-1.28-.76-2.14-.68h0Z"/>
        </g>
        <g>
          <path class="cls-2" d="M77.88,91c.87-.5,1.48-1.37,2.52-.97.78.3.87,1.01.64,1.76.38.21.71.41,1.3.74-1.03.19-1.95-.85-2.56.37.11.25.25.56.39.88-.11.06-.21.13-.31.2-.64-.97-1.29-1.93-1.99-2.97h0Z"/>
          <path class="cls-1" d="M79.58,92.65c.45-.65.82-1.08,1.06-1.58.05-.1-.33-.6-.47-.59-.54.09-1.06.3-1.7.49.41.6.65.99,1.11,1.66h0Z"/>
        </g>
        <g>
          <path class="cls-2" d="M42.54,99.68c-1.15,0-2-.77-1.98-1.84.02-1.01.82-1.83,1.8-1.84,1.04-.01,2.02.9,2,1.88-.02,1-.82,1.78-1.83,1.79Z"/>
          <path class="cls-1" d="M42.45,99.24c.78.01,1.39-.57,1.4-1.35,0-.74-.62-1.39-1.39-1.4-.75-.02-1.37.6-1.39,1.39-.01.76.59,1.35,1.39,1.36h-.01Z"/>
        </g>
        <path class="cls-2" d="M35.52,93.92c-.58-.26-1.16-.52-1.78-.79-.16.32-.3.59-.45.91.53.31,1.01.6,1.49.88-.04.09-.09.17-.12.25-.49-.19-.99-.39-1.58-.62-.16.27-.32.55-.53.9.64.38,1.21.7,1.79,1.03-.06.11-.12.23-.18.33-.73-.37-1.45-.72-2.25-1.12.49-1.01.91-1.92,1.39-2.8.09-.15.44-.3.58-.24.62.26,1.21.59,1.81.89-.05.12-.11.24-.16.35v.02Z"/>
        <path class="cls-2" d="M60.61,97.54c-.58.11-1.16.21-1.78.32v.98h1.86c-.43.79-2.32-.14-1.62,1.6h1.95v.33c-.78.04-1.57.09-2.35.12-.13-1.11-.26-2.22-.39-3.33.75-.14,1.5-.29,2.27-.43.02.14.04.27.06.41Z"/>
        <g>
          <path class="cls-2" d="M83.49,91.36c-.32-1.25-.64-2.48-.96-3.73.1-.09.19-.17.3-.26,1.16.58,2.31,1.15,3.47,1.73-1.49.27-2.34,1.01-2.56,2.21-.09.02-.16.03-.25.05h-.01Z"/>
          <path class="cls-1" d="M83.09,88.02c.19.7.32,1.16.48,1.74.42-.37.71-.61,1.07-.93-.53-.27-.93-.47-1.57-.79h.01Z"/>
        </g>
        <g>
          <path class="cls-2" d="M72.76,97.14c-1.27-.38-1.49-.29-2.33,1.32-.1,0-.18,0-.28-.01.09-1.28.17-2.54.28-4.1,1.03,1.23,1.86,2.23,2.32,2.79h.01Z"/>
          <path class="cls-1" d="M70.72,96.97c.53-.21.9-.37,1.15-.46-.31-.41-.59-.77-1-1.32-.05.68-.09,1.12-.14,1.78h-.01Z"/>
        </g>
        <path class="cls-2" d="M39.29,95.56c-.31-.16-.61-.39-.94-.47-.27-.06-.57.06-.86.11.1.27.13.58.29.78.2.27.56.42.78.68.47.52.31,1.21-.31,1.47-.71.3-1.77-.28-2.05-1.21.45.28.81.58,1.21.72.24.09.57-.09.85-.14-.11-.26-.18-.55-.34-.77-.12-.17-.42-.24-.5-.42-.19-.41-.29-.86-.43-1.3.47-.13.96-.39,1.41-.34.37.03.71.41,1.06.62-.05.09-.12.17-.17.27h.01Z"/>
        <path class="cls-2" d="M29.48,90.06c-.12.28-.23.58-.37.85-.21.39-.47.75-.68,1.14-.28.53-.16.99.34,1.31.52.32.98.2,1.33-.27.43-.59.82-1.2,1.35-2,.03,1.03-1.05,2.65-1.7,2.85-.98.3-2.22-.61-1.93-1.55.27-.88.85-1.68,1.3-2.5.12.05.24.11.35.17h-.01Z"/>
        <path class="cls-2" d="M48.44,97.78c-.39-.1-.77-.25-1.16-.25-.23,0-.45.25-.67.38.13.19.21.44.4.58.25.18.62.23.83.44.26.27.61.72.54.97-.11.33-.55.73-.9.79-.68.13-1.35-.05-1.8-.87.63.17,1.12.34,1.62.41.18.02.41-.2.61-.31-.12-.2-.18-.46-.35-.6-.25-.19-.63-.23-.83-.44-.27-.29-.63-.79-.54-1.04.13-.34.63-.71,1.02-.74.44-.04.92.25,1.39.4-.04.1-.1.2-.14.3h-.01Z"/>
        <path class="cls-2" d="M67.77,96.23c-.9.1-1.9.04-2.14,1.14-.1.43.15,1.12.48,1.41.74.65,1.51.2,2.27-.25-.09.68-.61.88-1.16,1-.86.18-1.65-.25-2-1.06-.34-.83-.18-1.56.53-2.13.62-.5,1.31-.63,2.02-.1h0Z"/>
        <path class="cls-2" d="M47.89,64.46c-.17-.09-.41-.21-.69-.37-.63.75-.76,1.59-.42,2.48.48,1.3.88,2.66,1.54,3.88.46.86,1.31,1.5,1.95,2.28.26.31.41.72.61,1.08-.39.14-.75.33-1.15.42-.43.09-.88.08-1.32.12-.52.04-.87-.08-.9-.69,0-.16-.13-.41-.25-.44-.93-.27-1.16-1.11-1.48-1.85-.68-1.57-1.37-3.12-2.01-4.71-.35-.89-.61-1.83-.91-2.76-.98.29-2.46,2.04-2.56,3.16-.02.31.03.64-.04.94-.6,2.36-.09,4.42,1.63,6.18.2.2.35.69.25.9-.11.23-.56.37-.87.4-.72.06-1.45.06-2.18.02-.25-.01-.65-.18-.7-.37-.32-1.15-.73-2.31-.79-3.48-.12-2.05-.06-4.12.02-6.17.03-.73.12-1.64.55-2.16,2.14-2.56,1.78-5.32.94-8.17-.18-.63-.39-1.28-.49-1.93-.24-1.3-.6-2.36-1.99-3.04-1.43-.7-2.17-3.35-1.6-5.01.28.33.53.59.73.88,1.08,1.46,2.32,1.93,4.06,1.49,1.44-.37,2.86-.86,4.32-1.12,1.35-.25,2.75-.41,4.12-.35,2.94.1,5.88.56,8.82.46,2.1-.08,4.2-.77,6.27-1.29.77-.19,1.43-2.35,1.16-3.15-.3-.88-.52-1.8-.81-2.82-.94.14-1.95-.27-2.5-1.42-.18-.38-.09-.88-.12-1.33.39,0,.78-.04,1.16.04.49.11.96.34,1.44.48.5.15,1.11.44,1.31-.38.17-.65-.43-1.48-1.07-1.52-.3-.02-.63.03-.92.12-.26.08-.49.24-.91.46.25-1.07.89-1.58,1.66-1.79.92-.26,1.85-.09,2.51.7.28.33.41.79.69,1.13.24.27.59.58.9.59.25.01.61-.35.74-.64.61-1.43,1.32-1.99,2.6-1.94.99.03,1.73.58,2.14,1.66-.34-.13-.62-.3-.91-.31-.43-.03-.98-.11-1.26.11-.37.3-.73.88-.7,1.3.05.55.63.69,1.21.52.63-.19,1.27-.42,1.92-.49.39-.04.92.05,1.17.3.16.17.03.77-.14,1.1-.63,1.17-1.63,1.62-2.88,1.31-.53,2.15-1.02,4.25-1.58,6.35-.14.53-.54.98-.77,1.47-.16.32-.34.68-.35,1.02-.09,2.28-.15,4.56-.18,6.84-.02,1.62-.56,3.16-1.58,4.27-1.13,1.22-1.54,2.53-1.68,4.08-.2,2.23-.41,4.48-.73,6.7-.24,1.61.24,2.91,1.2,4.13.27.33.31.84.46,1.27-.43.11-.85.26-1.29.3-.41.04-.83,0-1.23-.05-.74-.09-1.73.12-1.54-1.18-1.62-1.48-.81-3.48-1.1-5.25-.4-2.46-.71-4.94-1.12-7.4-.03-.23-.49-.53-.78-.54-.49-.03-1.01.09-1.49.2-2.16.52-4.34.46-6.52.19-.62-.08-.97.1-1.36.68-.54.78-1.37,1.35-2.19,2.13h-.03Z"/>
      </g>
    </g>
  </g>
</svg>