<?xml version="1.0" encoding="UTF-8"?>
<svg id="Capa_2" data-name="Capa 2" xmlns="http://www.w3.org/2000/svg" viewBox="0 0 178.39 62.42">
  <defs>
    <style>
      .cls-1 {
        fill: #f1b31a;
      }

      .cls-2 {
        fill: #0d4f41;
      }
    </style>
  </defs>
  <g id="Capa_1-2" data-name="Capa 1">
    <g>
      <path class="cls-1" d="M36.66,21.08c0,10.12-8.21,18.33-18.33,18.33S0,31.21,0,21.08,8.21,2.76,18.33,2.76s18.33,8.21,18.33,18.33"/>
      <path class="cls-2" d="M88.48,40.26c-.29.02-.57.05-.86.05-3.61,0-7.22-.02-10.83.02-.73,0-1.16-.22-1.39-.88-.79-2.24-1.59-4.48-2.36-6.72-.7-2.05-1.3-4.13-2.09-6.14-.82-2.1-2.01-2.72-4.18-2.41-.03.13-.09.28-.09.42,0,3.54-.05,7.09,0,10.63.03,2.12.94,3.82,3.09,4.99h-16.28c2.9-1.14,3.23-3.34,3.22-5.79-.04-7.4-.03-14.79,0-22.19.01-2.4-.41-4.47-3.01-5.47.22-.02.44-.07.66-.07,5.54,0,11.08-.11,16.61.05,2.29.07,4.62.48,6.83,1.12,2.85.82,4.83,2.71,5.3,5.81.51,3.38-1.04,5.78-3.73,7.57-1.76,1.17-3.73,1.79-5.84,1.93-.37.02-.74.1-1.09.36,1.07.12,2.16.18,3.21.39,3.53.7,6.06,2.61,7.23,6.12.48,1.45,1.02,2.87,1.49,4.32.77,2.36,1.46,4.77,4.12,5.88M66.72,22.91c2.06.37,3.82-.56,4.63-2.62.45-1.15.71-2.4.85-3.62.24-2.04.1-4.09-.69-6.03-.83-2.04-2.89-3.07-4.8-2.43v14.7Z"/>
      <path class="cls-2" d="M138.54,25.94c0-.87.11-1.68-.02-2.45-.6-3.5-3.16-4.32-6.32-3.89-2.1.28-3.45,1.57-4.29,3.45-.16.36-.34.72-.51,1.08-.09-.02-.17-.05-.26-.07.08-.48.14-.97.25-1.44,1.15-4.71,4.83-7.66,9.68-7.65,1.54,0,3.14.11,4.6.54,3.42,1,5.17,3.61,5.66,6.98.32,2.19.25,4.44.31,6.67.04,1.44,0,2.87.01,4.31,0,.36.05.73.08,1.09.08.91.51,1.56,1.42,1.81.78.22,1.76-.23,2.29-1.02.18-.27.33-.56.69-.8,0,.21.04.43,0,.64-.94,4.58-6.05,7.22-10.34,5.36-1.37-.59-1.97-1.34-2.96-3.69-.11.19-.21.33-.28.49-1.19,2.54-3.53,3.9-6.37,3.71-2.88-.19-4.86-1.59-5.67-4.01-.87-2.58-.02-5.48,2.17-7.38,2.08-1.8,4.6-2.59,7.23-3.13.89-.18,1.78-.38,2.64-.57M138.61,27.42c-1.91.03-3.35,1.05-3.97,2.7-.74,2.01-.38,4.55.83,5.59.71.61,1.55.9,2.46.56.29-.11.64-.53.64-.82.05-2.65.03-5.3.03-8.03"/>
      <path class="cls-2" d="M149.65,15.66h15.97c-.24.14-.36.23-.49.29-1.61.68-2.05,1.62-1.23,3.18.89,1.69,1.99,3.28,3.15,5.16,1.26-1.75,2.54-3.27,3.52-4.97.87-1.53.25-2.54-1.93-3.65h8.67c-4.4,2-6.49,6.26-9.57,9.64,1.97,3.04,3.91,6.04,5.86,9.03.67,1.02,1.27,2.1,2.04,3.04.86,1.04,1.87,1.95,2.75,2.85h-15.52s-.07-.06-.1-.08c.08-.03.15-.06.23-.07,1.61-.31,2.25-1.64,1.47-3.25-.98-2.01-2.25-3.89-3.49-5.99-1.41,1.77-2.77,3.31-3.92,4.98-1.27,1.85-.69,3.33,1.42,4.18.1.04.2.09.56.25h-9.07c0-.08,0-.17.03-.18,2.4-1.1,4.18-2.92,5.76-4.98,1.27-1.65,2.6-3.24,3.94-4.83.35-.42.35-.73.06-1.19-2.13-3.31-4.22-6.65-6.34-9.97-.94-1.46-1.86-2.96-3.74-3.44"/>
      <path class="cls-2" d="M124.24,40.27h-13.33c2-1.09,2.19-2.88,2.18-4.87-.05-7.58-.04-15.15,0-22.73.01-1.94-.3-3.6-2.6-4.44,3.97-1.2,7.69-2.33,11.57-3.5v1.17c0,9.99.01,19.98-.01,29.97,0,1.85.43,3.38,2.19,4.4"/>
      <path class="cls-2" d="M109,25.93h-13.64c.37,2.82,1.15,5.41,3.6,6.88,3.49,2.1,6.9,1.82,9.93-1.18-.56,3.52-1.99,6.48-5.23,8.22-5.1,2.75-11.58.69-14.07-4.7-2.59-5.6-2.15-11.16,1.48-16.21,3.37-4.69,10.69-5.45,14.82-1.73,2.02,1.82,2.83,4.22,3.1,6.84.06.57,0,1.15,0,1.88M101.13,24.46c.06-2.21.01-4.31-.7-6.32-.32-.91-.87-1.62-1.91-1.74-1-.12-1.74.34-2.22,1.15-1.26,2.15-1.2,4.51-1.12,6.92h5.95Z"/>
      <path class="cls-2" d="M11.03,10.24c.52.74,1.01,1.5,1.58,2.21,2.44,3.06,5.37,3.84,9.13,2.69,4.37-1.34,7.88-3.96,11.08-7.06,2.52-2.45,4.94-4.99,7.4-7.5.17-.17.3-.38.44-.57.08.04.17.09.25.13-.09.31-.17.63-.28.94-1.74,4.5-3.78,8.85-6.13,13.08-1.96,3.52-4.21,6.8-7.26,9.45-2.47,2.15-5.29,3.47-8.7,3.15-2.37-.23-4-1.54-5.15-3.51-1.32-2.25-1.9-4.75-2.26-7.3-.23-1.6-.29-3.22-.42-4.83-.02-.28.03-.56.05-.84.09-.01.18-.02.27-.03"/>
      <path class="cls-2" d="M133,53.88c.18-.94.82-.47,1.26-.55,0,2.3.13,4.55-.05,6.78-.12,1.42-1.21,2.15-2.69,2.3-1.28.13-2.44-.48-3.05-1.67.5-.34.91-.68,1.53-.05.55.56,1.31.61,2.05.25.68-.33.98-1.01.96-2.02-.78.17-1.61.58-2.35.45-.72-.13-1.52-.67-1.98-1.27-.92-1.18-.67-3.11.33-4.15,1.02-1.05,2.35-1.1,3.99-.09M131.3,54.43c-.92-.03-1.7.76-1.74,1.75-.05,1.08.73,1.99,1.7,1.99.94,0,1.75-.84,1.77-1.85.02-.99-.78-1.86-1.73-1.89"/>
      <path class="cls-2" d="M156.75,58.93c-.66.19-1.14.33-1.72.5v-9.18h1.26v3.66c1.07-.66,2.07-1.09,3.12-.56.52.26,1.03.68,1.35,1.16.82,1.22.57,3.18-.43,4.16-1.04,1.02-2.31,1.06-3.59.26M158.17,54.43c-.95-.02-1.78.82-1.8,1.82-.02,1.01.76,1.89,1.71,1.92.95.03,1.76-.8,1.8-1.83.04-1.02-.73-1.89-1.7-1.91"/>
      <path class="cls-2" d="M108.83,53.89v-3.63h1.27v9.11c-.52-.13-.99-.25-1.69-.43-1.33.81-2.73.72-3.75-.44-.99-1.13-1.02-3.15-.07-4.33.98-1.21,2.43-1.34,4.24-.28M105.32,56.25c-.01,1.04.75,1.91,1.68,1.93.94.01,1.77-.83,1.8-1.83.03-.98-.77-1.88-1.71-1.92-.95-.04-1.76.8-1.77,1.83"/>
      <path class="cls-2" d="M114.34,50.63c1.47-.18,1.46-.17,1.82,1.09.45,1.58.9,3.15,1.44,5.01.19-.48.29-.7.36-.93.39-1.35.76-2.7,1.14-4.05q.35-1.27,1.83-1.15c-.4,1.34-.79,2.67-1.19,3.99-.39,1.31-.81,2.62-1.19,3.93-.14.46-.25.8-.88.79-.59,0-.78-.25-.93-.74-.79-2.65-1.6-5.3-2.4-7.95"/>
      <path class="cls-2" d="M151.74,53.94c.09-1,.78-.52,1.33-.65v5.98c-.56-.03-1.24.41-1.33-.62-1.85,1.09-3.19,1.01-4.17-.21-.99-1.23-.9-3.35.18-4.48,1.02-1.07,2.43-1.1,4-.02M148.27,56.26c-.01,1.06.73,1.89,1.7,1.91.94.02,1.78-.85,1.8-1.84.02-.99-.79-1.88-1.74-1.91-.96-.03-1.75.79-1.76,1.84"/>
      <path class="cls-2" d="M95.05,59.3c-.59-.09-1.31.37-1.32-.45-.83.2-1.66.57-2.47.53-.58-.03-1.26-.48-1.68-.94-1.02-1.11-.96-3.18,0-4.32.99-1.18,2.4-1.27,3.81-.43.66-.2,1.11-.34,1.68-.51v6.12ZM90.24,56.33c.02,1.05.81,1.87,1.77,1.84.94-.03,1.75-.92,1.73-1.91-.02-1-.86-1.86-1.8-1.84-.97.02-1.71.85-1.7,1.91"/>
      <path class="cls-2" d="M171.4,56.8h-4.41c.27,1.57,1.65,1.85,3.3.7.25.2.53.41.8.62-.87,1.31-2.55,1.72-3.99,1.02-1.41-.69-2.03-2.38-1.46-4,.5-1.41,1.99-2.27,3.43-1.97,1.69.34,2.53,1.58,2.35,3.63M166.92,55.87h3.16c-.24-1.05-.69-1.47-1.48-1.51-.87-.04-1.38.39-1.68,1.51"/>
      <path class="cls-2" d="M137.39,56.79c.35,1.59,1.69,1.84,3.33.72.26.2.53.42.8.64-.93,1.33-2.69,1.71-4.11.96-1.35-.72-1.93-2.51-1.32-4.07.55-1.38,2.06-2.17,3.5-1.82,1.66.4,2.44,1.59,2.21,3.58h-4.42ZM140.45,55.81c-.12-.96-.61-1.43-1.45-1.45-.87-.02-1.38.43-1.61,1.45h3.07Z"/>
      <path class="cls-2" d="M125.87,57.52c.25.19.51.4.77.6-.8,1.29-2.51,1.73-3.97,1.04-1.44-.68-2.07-2.44-1.46-4.08.54-1.46,2.1-2.24,3.64-1.83,1.58.42,2.36,1.72,2.06,3.54h-4.34c.18,1.57,1.54,1.85,3.3.74M122.5,55.83h3.11c-.05-.93-.58-1.35-1.39-1.45-.89-.11-1.46.37-1.72,1.45"/>
      <path class="cls-2" d="M56.75,55.61v3.63h-1.4v-8.63h5.1v1.24c-.9,0-1.83.04-2.76-.01-.69-.04-.98.15-.98.9,0,1.6-.04,1.6,1.56,1.6.45,0,.9,0,1.42,0v1.27h-2.94Z"/>
      <path class="cls-2" d="M102.43,59.25h-1.26c0-1.02,0-1.99,0-2.96-.01-1.23-.44-1.81-1.32-1.82-.96-.01-1.52.65-1.54,1.86-.02.94,0,1.89,0,2.9h-1.29v-5.9c.54.05,1.2-.37,1.39.6.22-.16.4-.31.6-.43,1.42-.88,3.15-.25,3.39,1.39.2,1.4.04,2.85.04,4.35"/>
      <path class="cls-2" d="M69.99,58.72c-.48.24-.86.5-1.29.64-1.37.44-2.62-.42-2.83-1.92-.04-.3-.03-.61-.04-.92,0-1.03,0-2.07,0-3.16h1.31c0,.75,0,1.53,0,2.31,0,.43.03.85.08,1.28.09.73.5,1.21,1.25,1.21.73,0,1.36-.34,1.46-1.13.11-.97.09-1.95.13-2.92,0-.24.03-.48.05-.76h1.18v5.9c-.5-.05-1.15.42-1.31-.54"/>
      <path class="cls-2" d="M80.41,57.34c.44.24.87.55,1.34.71.43.14.91.15,1.36.12.14-.01.35-.37.35-.56,0-.18-.22-.44-.4-.52-.42-.18-.88-.25-1.31-.41-.84-.3-1.43-.81-1.39-1.8.04-.85.54-1.4,1.55-1.66,1.39-.36,2.53.31,2.76,1.89-.61-.26-1.08-.49-1.57-.64-.32-.1-.7-.12-1.03-.05-.15.03-.36.47-.3.56.16.26.43.49.7.61.44.2,1.03.18,1.36.47.44.39.96.97.97,1.49.01.51-.43,1.23-.89,1.53-1.51.97-3.48.15-3.7-1.44.06-.1.12-.2.18-.3"/>
      <path class="cls-2" d="M172.39,57.57c.62-.08,1.11-.18,1.56.45.18.25.87.18,1.32.15.14,0,.37-.36.37-.55,0-.18-.2-.45-.38-.54-.38-.18-.81-.24-1.22-.37-1.07-.34-1.54-.96-1.49-1.91.05-.84.66-1.43,1.7-1.64,1.3-.26,2.34.4,2.63,1.93-.62-.25-1.08-.47-1.57-.61-.33-.1-.7-.14-1.02-.08-.15.03-.38.45-.33.55.15.26.41.5.68.63.41.19.87.26,1.3.42.74.28,1.13.84,1.12,1.62,0,.74-.41,1.25-1.07,1.57-1.58.76-3.32.03-3.6-1.61"/>
      <path class="cls-2" d="M76.93,54.47c-.43-.06-.72-.1-1.07-.15v-.95c.32-.04.64-.08,1.04-.14v-2.07h1.33c.03.67.06,1.35.1,2.09.39.03.75.06,1.18.09.02.31.03.6.05.94-.41.06-.76.11-1.23.17v4.77h-1.4v-4.76Z"/>
      <path class="cls-2" d="M144.95,51.16v2.09c.44.03.79.06,1.23.09.02.31.03.6.05.87q-1.28.37-1.28,1.75v3.27h-1.34v-4.71c-.38-.08-.69-.15-1.08-.23-.01-.28-.03-.57-.04-.91.37-.05.69-.09,1.09-.15v-2.07h1.38Z"/>
      <rect class="cls-2" x="162.76" y="50.21" width="1.23" height="9.02"/>
      <path class="cls-2" d="M61.36,53.32h1.21c.06.26.11.52.17.82.08-.04.16-.06.21-.11.26-.24.49-.62.79-.71.43-.13.96-.14,1.38,0,.14.05.06.73.08,1.12-1.94.08-2.43.57-2.48,2.44-.02.76,0,1.52,0,2.34h-1.35v-5.9Z"/>
      <rect class="cls-2" x="73.28" y="53.35" width="1.26" height="5.88"/>
      <path class="cls-2" d="M73.94,52.49c-.44-.59-.89-.93-.86-1.23.04-.32.52-.83.8-.83.31,0,.81.46.86.78.05.29-.39.66-.81,1.27"/>
    </g>
  </g>
</svg>