<?xml version="1.0" encoding="UTF-8"?>
<svg id="Capa_2" data-name="Capa 2" xmlns="http://www.w3.org/2000/svg" viewBox="0 0 160.21 33.4">
  <defs>
    <style>
      .cls-1 {
        fill: #9b9ca2;
      }

      .cls-2 {
        fill: #0b0b0b;
      }

      .cls-3 {
        fill: #fdf641;
      }
    </style>
  </defs>
  <g id="Capa_1-2" data-name="Capa 1">
    <g id="Layer_2" data-name="Layer 2">
      <g>
        <path class="cls-3" d="M71.59,31.22c-8.21,0-14.89-6.45-14.89-14.39,0-1.03.11-2.04.33-3.01-.2-.18-.38-.38-.53-.61-.15-.08-.59-.25-1.49-.25-.78,0-1.53,1.32-1.88,2.13v11.77c0,2.04-1.65,3.68-3.68,3.68h-3.18c-2.04,0-3.68-1.65-3.68-3.68V6.52c0-2.04,1.65-3.68,3.68-3.68h3.18c.65,0,1.26.17,1.79.46,1.07-.33,2.35-.56,3.92-.66.24-.02.49-.02.74-.02,3.12,0,5.55,1.25,7.16,2.45,2.42-1.64,5.37-2.61,8.55-2.61s6.42,1.08,8.93,2.9c.07-.21.16-.41.26-.6.65-1.18,1.89-1.92,3.23-1.92h3.74c1.23,0,2.37.61,3.05,1.62l1.39,2.07,1.25-1.98c.68-1.07,1.85-1.71,3.12-1.71h4.02c.3,0,.6.04.89.11.28-.07.58-.11.89-.11h3.18c.69,0,1.34.19,1.89.52,1.32-.46,2.74-.69,4.22-.69,2.93,0,5.6.97,7.59,2.56,2.13-1.59,5-2.56,8.21-2.56h.12c.07,0,.17,0,.28,0,.1,0,.21,0,.31.01,0,0,.17.01.23.01.1,0,.2.01.3.02.01,0,.05,0,.06,0,3.56.34,6.64,2.17,8.56,4.86,2.3-2.96,5.7-4.83,9.49-4.83h9.69c2.04,0,3.68,1.65,3.68,3.68v20.35c0,2.04-1.65,3.68-3.68,3.68h-3.18c-.32,0-.63-.04-.93-.12-.29.08-.61.12-.93.12h-4.66c-2.81,0-5.4-1.03-7.49-2.76-.38,1.63-1.84,2.85-3.59,2.85h-3.18c-2.04,0-3.68-1.65-3.68-3.68v-11.63c0-1.25-1.02-2.27-2.27-2.27s-2.27,1.02-2.27,2.27v11.63c0,2.04-1.65,3.68-3.68,3.68h-3.18c-2.04,0-3.68-1.65-3.68-3.68v-11.63c0-1.25-1.01-2.26-2.26-2.26s-2.26,1.01-2.26,2.26c0,.07,0,.15.01.23.03.32.02.63-.03.94v10.46c0,2.04-1.65,3.68-3.68,3.68h-3.18c-2.04,0-3.68-1.65-3.68-3.68v-10.7l-1.16,1.77v8.94c0,2.04-1.65,3.68-3.68,3.68h-3.22c-2.04,0-3.68-1.65-3.68-3.68v-8.96l-.47-.73c-.02.63-.07,1.25-.17,1.86-.16.98-.7,1.82-1.45,2.38.2.91.06,1.89-.45,2.73-2.67,4.36-7.58,7.06-12.82,7.06h-.01Z"/>
        <path class="cls-2" d="M135.67,13.07c.05.33.07.67.07,1.01v12.79h-3.18v-11.63c0-3.29-2.67-5.95-5.96-5.95s-5.96,2.67-5.96,5.95v11.63h-3.18v-11.63c0-3.28-2.66-5.94-5.95-5.94s-5.95,2.66-5.95,5.94c0,.19.01.38.03.57-.02-.02-.04-.04-.05-.06v11.12h-3.18V6.52h3.18v2.31c1.36-1.51,3.59-2.49,6.11-2.49,4.15,0,7.51,2.66,7.51,5.94,0-3.28,3.71-5.94,8.29-5.94h.12c.08,0,.16,0,.23,0h.09c.1,0,.19.01.28.02.08,0,.15.01.23.02,3.76.36,6.76,3.15,7.26,6.68h0ZM55.39,6.31c-4.35.28-5.32,1.68-5.95,2.52v-2.31h-3.18v20.35h3.18v-12.41s1.5-5.17,5.56-5.17c3.6,0,4.51,1.82,4.51,1.82l2.9-1.61s-2.68-3.46-7.03-3.18h0ZM71.59,6.14c-6.19,0-11.21,4.79-11.21,10.7s5.02,10.7,11.21,10.7c4.13,0,7.73-2.13,9.67-5.3l-2.32-2.51c-1.19,2.76-4.04,4.7-7.35,4.7-4.39,0-7.95-3.4-7.95-7.59s3.56-7.59,7.95-7.59c3.83,0,7.03,2.59,7.78,6.04h-13.01v3.18h16.3c.09-.53.13-1.08.13-1.63s-.04-1.05-.12-1.55c-.79-5.17-5.45-9.14-11.09-9.14h0ZM92.31,13.27l-4.55-6.75h-3.74l6.61,10.31v10.04h3.22v-10.04l6.75-10.31h-4.02s-4.27,6.75-4.27,6.75ZM146.83,6.44c-4.88,0-8.84,4.56-8.84,10.18s3.96,10.17,8.84,10.17h4.66v-2.87h-4.2c-3.42,0-6.19-3.26-6.19-7.28s2.77-7.28,6.19-7.28h6.06v17.42h3.18V6.44h-9.69,0ZM144.24,16.64c0,2.3,1.59,4.16,3.55,4.16h2.4v-8.33h-2.4c-1.96,0-3.55,1.87-3.55,4.17Z"/>
        <g>
          <path class="cls-1" d="M17.98,2.2c1.69,0,3.36.42,4.81,1.3,1.63.99,3.26,2.67,3.26,5.41,0,1.54-.43,2.83-1.06,3.88-1.44,2.43-4.11,3.84-6.92,3.84h-3.25l19.78,16.76h.49V0H0v2.2h17.98Z"/>
          <path class="cls-2" d="M18.07,14.62c2.16,0,4.15-1.1,5.19-2.86.52-.88.78-1.81.78-2.85,0-1.69-.97-2.81-2.04-3.54-1.16-.78-2.55-1.16-3.96-1.16H0v29.18h31.5l-17.97-15.23-4.18-3.54s8.73,0,8.73,0Z"/>
        </g>
      </g>
    </g>
  </g>
</svg>