<?xml version="1.0" encoding="UTF-8"?>
<svg id="Capa_2" data-name="Capa 2" xmlns="http://www.w3.org/2000/svg" viewBox="0 0 106.58 89.99">
  <defs>
    <style>
      .cls-1 {
        fill: #db091d;
      }

      .cls-2 {
        fill: #666;
      }
    </style>
  </defs>
  <g id="Capa_1-2" data-name="Capa 1">
    <g id="Layer_1-2" data-name="Layer 1-2">
      <g>
        <g>
          <path class="cls-1" d="M35,61.91c.09,5.02-4.24,9.55-9.56,9.5-5.12-.05-9.49-4.06-9.48-9.51,0-5.4,4.16-9.51,9.6-9.52,5.31-.01,9.53,4.49,9.44,9.53ZM30.67,61.9c-.01-1.57-.39-2.73-1.33-4.01-1.82-2.5-5.81-2.52-7.66-.07-1.42,1.88-1.73,3.94-1.07,6.14.92,3.02,4.24,5.01,7.27,3.17,1.94-1.18,2.73-3.02,2.79-5.22h-.01Z"/>
          <path class="cls-1" d="M53.19,61.9c-.13-5.01,4.09-9.54,9.49-9.53,5.34.02,9.54,4.35,9.55,9.54,0,5.21-4.45,9.58-9.67,9.51-5.1-.07-9.5-4.38-9.37-9.52ZM62.7,55.98c-1.04,0-1.83.24-2.61.74-3.13,2.05-3.33,6.78-1.19,9.26,2.08,2.41,5.14,2.45,7.36.17,1.81-1.86,2.15-5.1.76-7.47-.97-1.65-2.34-2.67-4.33-2.7Z"/>
          <path class="cls-1" d="M96.96,53.06c.59,0,1.18.03,1.77,0,.55-.04.8.21.99.69,1.34,3.32,2.69,6.63,4.05,9.95.89,2.2,1.78,4.41,2.7,6.6.24.57.09.71-.47.7-1.16-.02-2.31-.02-3.47,0-.48.01-.72-.17-.87-.62-.35-1-.75-1.98-1.1-2.98-.13-.37-.35-.51-.73-.5-2.01.01-4.01.01-6.02,0-.43,0-.63.15-.77.55-.35,1-.76,1.97-1.11,2.98-.15.44-.41.58-.84.58-1.13-.01-2.27,0-3.4,0-.73,0-.8-.11-.51-.79.92-2.17,1.83-4.34,2.75-6.51,1.37-3.25,2.77-6.5,4.11-9.76.26-.64.6-.95,1.31-.87.53.05,1.09.01,1.63.01h0ZM96.93,57.58c-.79,2.03-1.53,3.9-2.25,5.78-.1.24-.12.47.27.47h3.89c.32,0,.43-.13.31-.45-.72-1.89-1.44-3.76-2.21-5.8h-.01Z"/>
          <path class="cls-1" d="M44.01,60.49c1.33-2.2,2.65-4.34,3.9-6.52.39-.68.81-.99,1.61-.92.89.08,1.79.01,2.69.02.21,0,.48-.08.6.11.15.23-.07.45-.19.63-1.76,2.76-3.51,5.52-5.28,8.28-.32.49-.61,1.01-.95,1.48-.26.37-.36.74-.36,1.19.01,1.81-.01,3.63.01,5.44,0,.58-.19.81-.77.79-.85-.03-1.7-.04-2.55,0-.64.03-.83-.27-.83-.84,0-1.72-.01-3.45,0-5.16,0-.59-.14-1.09-.47-1.58-2.04-3.16-4.07-6.35-6.09-9.52-.13-.21-.41-.44-.28-.69.13-.25.47-.12.72-.13.99-.01,1.98.05,2.98-.02.77-.07,1.13.28,1.47.91,1.15,2.08,2.33,4.13,3.51,6.21.05.1.13.19.24.34h.02Z"/>
          <path class="cls-1" d="M80.85,53.06c2.25,0,4.48.02,6.73-.01.63,0,.92.17.86.84-.04.57-.04,1.13,0,1.7.05.68-.24.85-.86.83-1.22-.03-2.45.03-3.69-.02-.71-.03-.87.23-.86.89.02,4.22.01,8.44.01,12.66q0,1.03-1.01,1.03c-.77,0-1.56-.03-2.33,0-.65.03-.85-.21-.85-.85.02-4.22.01-8.44.01-12.66,0-.71-.36-1.06-1.09-1.06-1.25,0-2.51-.03-3.75.01-.67.02-.87-.23-.83-.86.04-.59.03-1.18,0-1.77-.03-.56.2-.74.74-.73,2.31.02,4.62,0,6.94,0h-.01Z"/>
          <path class="cls-1" d="M7.6,53.06h6.45q.96,0,.97.99c0,.57-.02,1.13,0,1.7.02.49-.19.67-.67.65-1.3-.02-2.6.02-3.89-.02-.64-.02-.86.17-.85.84.02,4.22.01,8.44.01,12.66,0,.72-.37,1.08-1.11,1.08s-1.52-.03-2.27,0c-.62.03-.82-.2-.82-.82.02-3.3.01-6.61,0-9.9,0-1.06-.02-2.13,0-3.18.01-.53-.2-.7-.71-.69-1.32.02-2.64-.01-3.97.02-.56.01-.76-.2-.74-.74.03-.61.03-1.23,0-1.84-.03-.58.19-.79.77-.79,2.27.02,4.54,0,6.79,0l.03.03Z"/>
        </g>
        <g>
          <path d="M56.15,82.96c-.32.55-.6,1.09-.94,1.61-.51.79-.99,1.59-2.15,1.59-1.07,0-1.63-.61-2.08-1.42-.34-.59-.67-1.19-1.09-1.93-.02.36-.04.56-.04.75,0,1.79-.01,3.59,0,5.38,0,.51-.11.79-.7.76-2.17-.05-1.79.28-1.8-1.78-.02-3.06,0-6.13-.02-9.19,0-.65.16-.85.85-.93,1.18-.12,1.79.36,2.27,1.37.64,1.35,1.44,2.64,2.19,3.95.38.67.56.65.93-.01.89-1.6,1.8-3.2,2.67-4.81.21-.37.46-.48.84-.47,1.98.03,1.67-.23,1.68,1.61.02,3.14,0,6.27.02,9.41,0,.65-.21.86-.85.84-1.95-.07-1.65.24-1.67-1.64-.02-1.69,0-3.38,0-5.07-.04-.01-.08-.02-.12-.04h.01Z"/>
          <path d="M16.64,89.97c-3.17-.01-5.33-1.92-5.62-5.2-.15-1.78.02-3.45,1.04-4.91,1.28-1.84,3.14-2.43,5.31-2.22.56.05,1.11.12,1.65.33,1.57.62,2.6,1.72,3.09,3.35.48,1.6.51,3.2.04,4.79-.73,2.48-2.73,3.87-5.5,3.87h-.01ZM13.7,83.75c0,1.36.19,2.06.75,2.87,1.05,1.51,3.56,1.53,4.54-.02,1.09-1.72,1.09-3.59.17-5.35-.87-1.7-3.16-1.93-4.49-.56-.84.85-1.03,1.93-.97,3.06Z"/>
          <path d="M71.67,83.75c.03,2.19-.58,4.12-2.52,5.35-2.82,1.79-8.18.99-8.79-3.76-.26-2.04-.16-3.98,1.1-5.73.64-.88,1.52-1.41,2.51-1.74,1.18-.39,2.41-.4,3.62-.12,2.5.58,3.87,2.6,4.07,5.15.02.28,0,.57,0,.85h.01ZM69.02,83.74c.05-.76-.13-1.51-.44-2.22-.49-1.16-1.45-1.7-2.63-1.69-1.1.01-2.05.46-2.55,1.57-.71,1.59-.72,3.17.01,4.77.49,1.06,1.35,1.55,2.48,1.58,1.16.03,2.05-.5,2.61-1.52.41-.75.57-1.59.52-2.49Z"/>
          <path d="M85.67,77.84c.82.08,1.81-.1,2.79.12,1.46.33,2.4,1.1,2.58,2.36.22,1.51-.07,2.87-1.39,3.84-.77.57-.79.56-.15,1.27.75.84,1.48,1.69,2.25,2.53.37.4.34.68-.13,1.01-1.41,1.01-1.36,1.03-2.48-.32-.8-.96-1.65-1.86-2.48-2.79-.12-.14-.27-.27-.44-.36-.87-.46-1.24-.23-1.25.74,0,.92-.02,1.84,0,2.76.01.51-.15.72-.69.71-2.19-.04-1.8.27-1.82-1.76-.02-3.09,0-6.17-.02-9.26,0-.63.17-.89.84-.85.73.04,1.46.01,2.36.01h.02ZM85,81.56c0,1.23.61,1.78,1.82,1.65,1.09-.12,1.8-.82,1.76-1.74-.05-1-.69-1.54-1.88-1.55-1.13-.01-1.7.53-1.7,1.65Z"/>
          <path d="M40.49,77.56c1.3.1,2.34.41,2.84,1.98.97,3.1,1.89,6.21,2.84,9.3.11.35.07.55-.31.61-.04,0-.09.03-.13.05-1.29.37-2.13-.09-2.51-1.37-.38-1.29-1.2-1.9-2.45-1.85-.69,0-1.37.01-2.05,0-.39-.01-.6.13-.71.51-.23.84-.55,1.66-.74,2.5-.13.53-.39.6-.85.51-1.84-.37-1.85-.37-1.32-2.16.77-2.58,1.54-5.18,2.36-7.75.59-1.82,1.25-2.12,3.03-2.34h.01ZM40.4,84.21c.38,0,.75-.01,1.13,0,.37.02.53-.09.41-.48-.33-1.12-.64-2.26-.96-3.39-.09-.29-.22-.55-.56-.53-.34,0-.46.27-.53.57-.21.74-.45,1.48-.67,2.22-.33,1.08.07,1.61,1.18,1.61h-.01Z"/>
          <path d="M23.81,83.7c0-1.7.02-3.39,0-5.09,0-.58.17-.77.76-.79,1.9,0,1.9-.03,1.9,1.83v2.48c0,.47.21.58.63.45.31-.1.56-.24.75-.49,1.08-1.33,2.19-2.64,3.24-4,.33-.41.57-.4.93-.12.19.14.38.27.57.41.92.69.91.68.13,1.57-.87.99-1.69,2.02-2.57,3-.47.52-.27.88.13,1.31,1.13,1.2,2.24,2.43,3.37,3.62.32.33.36.55-.03.83-.36.26-.71.55-1.01.88-.38.41-.62.22-.91-.1-1.25-1.4-2.52-2.79-3.8-4.19-.14-.15-.32-.28-.5-.38-.72-.37-.91-.25-.91.57,0,1.16-.02,2.31,0,3.47,0,.5-.13.73-.68.72-2.4-.05-1.93.34-1.97-1.89-.02-1.36,0-2.74,0-4.1h-.03Z"/>
          <path d="M4.1,87.65c0-.24-.02-.47,0-.71.07-.71,0-1.33-.73-1.73-.26-.14-.45-.48-.6-.76-.91-1.73-1.66-3.53-2.46-5.31-.21-.45-.05-.65.34-.81,2.06-.76,1.47-1.04,2.46.93.59,1.18,1.11,2.39,1.67,3.59.15.32.27.68.73.68s.59-.4.75-.74c.71-1.52,1.43-3.02,2.13-4.54.2-.44.4-.53.86-.37,1.7.59,1.72.59,1.01,2.18-.59,1.33-1.23,2.65-1.85,3.96-.28.6-.68,1.15-1.24,1.51-.34.21-.4.48-.4.83.01.92-.01,1.84,0,2.76,0,.46-.17.63-.62.62-2.5-.05-1.95.38-2.03-2.05v-.02Z"/>
          <path d="M76.65,77.84c1.36,0,2.74.01,4.1,0,.51,0,.71.17.7.7-.03,1.77.15,1.51-1.49,1.53-.45,0-.89.03-1.34,0-.58-.04-.72.2-.72.74.02,2.68,0,5.38.02,8.06,0,.63-.17.87-.84.85-1.98-.07-1.66.25-1.68-1.69-.02-2.33,0-4.67,0-7,0-.63-.33-.95-.98-.95s-1.28-.01-1.91,0c-.44,0-.65-.13-.65-.6.02-1.95-.16-1.58,1.54-1.6,1.08-.02,2.17,0,3.26,0v-.03Z"/>
          <path d="M97.65,83.77c0-1.72.02-3.45,0-5.16,0-.59.19-.79.77-.77,2.06.05,1.73-.26,1.74,1.69.02,2.38.02,4.77,0,7.14,0,.61.16.83.8.82,1.58-.04,3.16,0,4.74-.02.51,0,.72.15.71.69-.03,1.81.15,1.53-1.47,1.54-2.17.02-4.34-.01-6.51.01-.59,0-.79-.2-.77-.77.03-1.72,0-3.45,0-5.16h-.01Z"/>
          <path d="M93.11,83.69c0-1.7.02-3.39,0-5.09,0-.58.19-.77.77-.77,1.89,0,1.89-.02,1.89,1.84,0,3.06-.01,6.13.01,9.19,0,.64-.2.85-.84.85-1.81-.02-1.82,0-1.82-1.77v-4.24h-.01Z"/>
        </g>
        <path class="cls-2" d="M53.66,43.41h-1.12c-.82-.02-1.64-.05-2.44-.1-.8-.04-1.59-.11-2.39-.19-2.08-.21-4.14-.51-6.17-1.01-1.33-.33-2.65-.69-3.95-1.12-1.41-.47-2.78-1-4.13-1.63-1.59-.74-3.13-1.58-4.58-2.55-.98-.67-1.93-1.39-2.81-2.18-.41-.37-.84-.73-1.22-1.13-1.22-1.29-2.32-2.67-3.18-4.24-.85-1.56-1.44-3.2-1.72-4.95-.1-.62-.15-1.25-.2-1.89-.11-1.88.16-3.7.75-5.46.65-1.95,1.67-3.72,2.98-5.32.58-.71,1.18-1.4,1.84-2.02,1.46-1.39,3.05-2.6,4.77-3.64.87-.53,1.77-1.04,2.68-1.48,1.43-.69,2.89-1.3,4.38-1.82,1.56-.55,3.13-1,4.73-1.39,1.17-.27,2.36-.49,3.54-.67.98-.14,1.97-.25,2.97-.36.71-.08,1.42-.11,2.13-.16,1.33-.1,2.67-.11,4-.08,1.01.02,2.04.09,3.05.17.84.07,1.69.15,2.52.26,1.21.15,2.42.37,3.62.64,1.89.43,3.75.91,5.57,1.55,1.17.41,2.31.86,3.45,1.36.59.26,1.18.51,1.74.81,1.6.8,3.09,1.78,4.52,2.85.7.52,1.35,1.1,2,1.69,1.2,1.09,2.24,2.31,3.14,3.64,1.23,1.82,2.1,3.81,2.51,5.98.11.6.17,1.22.22,1.83.03.48.03.95.03,1.43,0,1.18-.2,2.33-.5,3.47-.29,1.09-.71,2.14-1.23,3.13-.58,1.11-1.28,2.15-2.06,3.12-.55.68-1.11,1.32-1.73,1.92-.93.88-1.9,1.69-2.94,2.43-1.52,1.08-3.11,2.02-4.79,2.81-1.29.62-2.61,1.15-3.95,1.63-1.54.53-3.09,1-4.67,1.37-1.04.24-2.07.43-3.13.57-.88.12-1.77.26-2.65.36-.72.08-1.43.14-2.15.22-1.13.11-2.28.15-3.42.13v.02ZM78.5,11.59c-.07.03-.08.11-.11.17-.15.38-.29.77-.47,1.15-.69,1.41-1.71,2.54-2.92,3.52-1.16.93-2.42,1.7-3.76,2.34-1.56.75-3.2,1.31-4.86,1.74-1.4.36-2.81.59-4.22.89-.34.08-.41.13-.41.49,0,1.19-.03,2.38-.09,3.57-.02.48-.07.96-.12,1.44-.11.96-.25,1.93-.41,2.88-.24,1.42-.55,2.82-1,4.19-.28.86-.62,1.71-1,2.54-.46,1.01-.98,2.01-1.66,2.9-.27.37-.57.72-.85,1.08-.04.05-.12.11-.1.19.03.09.14.04.22.04.17.01.35-.03.52-.04.93-.07,1.84-.19,2.75-.33,1.74-.27,3.47-.67,5.15-1.19,2.19-.68,4.31-1.55,6.3-2.69,1.69-.96,3.27-2.06,4.7-3.37.81-.74,1.57-1.53,2.25-2.39.84-1.07,1.59-2.21,2.17-3.45.38-.82.71-1.66.95-2.53.28-1.03.48-2.06.53-3.13.03-.67.03-1.33-.03-2-.09-1.04-.29-2.05-.6-3.04-.59-1.9-1.63-3.54-2.94-5.02l.03.03ZM50.25,40.79c-.26-.31-.51-.56-.73-.83-.72-.91-1.32-1.89-1.82-2.94-.74-1.55-1.31-3.15-1.73-4.81-.27-1.07-.43-2.17-.59-3.26-.16-1.08-.29-2.16-.4-3.24-.08-.75-.11-1.52-.11-2.28v-1.59c0-.21-.07-.37-.31-.4-1.53-.23-3.03-.53-4.53-.95-2-.57-3.94-1.27-5.76-2.27-1.47-.82-2.84-1.79-3.99-3.03-.63-.68-1.17-1.42-1.58-2.25-.2-.38-.33-.79-.49-1.19-.08-.19-.13-.14-.23-.03-.12.14-.22.28-.34.43-.91,1.06-1.63,2.21-2.15,3.51-.63,1.59-.97,3.24-.99,4.95,0,.39,0,.77.03,1.17.05.75.16,1.49.33,2.22.34,1.46.85,2.85,1.58,4.16.82,1.49,1.84,2.84,3.01,4.08.56.59,1.17,1.11,1.8,1.63,1.58,1.27,3.27,2.37,5.08,3.27,1.19.6,2.4,1.15,3.65,1.61,1.21.45,2.45.8,3.72,1.07,1.2.25,2.41.47,3.62.65.64.1,1.28.21,1.93.26.32.02.63,0,1,.08h-.01ZM53.17,2.92c-.62.03-1.37,0-2.14.03-.91.04-1.8.09-2.7.16-.36.03-.71.04-1.06.11-.97.16-1.93.33-2.89.51-1.24.24-2.49.49-3.69.88-1.23.39-2.42.89-3.56,1.52-.92.5-1.76,1.1-2.39,1.95-.33.45-.58.93-.63,1.49-.08.89.29,1.64.87,2.28.69.79,1.55,1.33,2.45,1.81,1.12.59,2.3,1.03,3.51,1.39,1.36.4,2.77.65,4.17.95.17.03.29-.02.33-.22.08-.39.16-.79.24-1.19.24-1.17.53-2.32.92-3.46.44-1.3.98-2.54,1.68-3.72.73-1.24,1.61-2.34,2.86-3.13,1.08-.69,2.24-.84,3.46-.43,1.22.4,2.08,1.27,2.87,2.24.81.99,1.4,2.13,1.9,3.3.85,1.96,1.4,4.01,1.77,6.12.09.49.12.52.62.44,1.54-.27,3.05-.61,4.54-1.1,1.21-.39,2.38-.87,3.48-1.52.81-.47,1.54-1.04,2.1-1.78.5-.67.76-1.4.59-2.25-.16-.81-.6-1.45-1.22-1.95-1.15-.92-2.42-1.65-3.78-2.2s-2.78-.95-4.23-1.25c-1.08-.23-2.17-.4-3.27-.55-.8-.1-1.58-.19-2.38-.25-.97-.09-1.94-.17-2.91-.19h-1.49ZM48.87,21.91h-.36c-.29,0-.33.03-.34.33,0,.43.05.85.09,1.28.08.98.2,1.96.39,2.93.36,1.83.86,3.61,1.74,5.27.41.76.89,1.48,1.59,2.02.58.44,1.2.67,1.93.37.6-.24,1.07-.65,1.47-1.15.46-.56.8-1.18,1.09-1.83.43-.92.77-1.85,1.05-2.82.27-.99.45-2.01.55-3.03.05-.51.13-1.01.19-1.53s.11-1.03.14-1.54c.02-.25-.14-.39-.38-.35-.36.08-.73.04-1.09.08-.67.05-1.33.09-2,.1-1.05.01-2.09.02-3.14-.02-.97-.04-1.95-.08-2.92-.11h0ZM57.16,16.53c.19-.02.38-.03.57-.05.12-.01.17-.09.17-.22,0-.17-.08-.33-.11-.48-.31-1.28-.58-2.56-1.07-3.78-.46-1.16-1.06-2.21-2.02-3.02-.35-.29-.75-.48-1.22-.51-.88-.07-1.52.38-2.08.97-.47.48-.8,1.06-1.09,1.66-.69,1.37-1.13,2.84-1.45,4.33-.04.23-.1.45-.14.68-.05.28,0,.36.27.4.4.05.8.1,1.21.09,2.32-.02,4.65.05,6.96-.04h0Z"/>
      </g>
    </g>
  </g>
</svg>