<?xml version="1.0" encoding="UTF-8"?>
<svg id="Capa_2" data-name="Capa 2" xmlns="http://www.w3.org/2000/svg" viewBox="0 0 1229.38 693.83">
  <defs>
    <style>
      .cls-1 {
        fill: #0077bd;
      }
    </style>
  </defs>
  <g id="Capa_1-2" data-name="Capa 1">
    <path class="cls-1" d="M823.68,277.04L621.29,26.69c-13.71-16.96-34.09-26.69-55.92-26.69-16.36,0-32.39,5.67-45.13,15.97-17.82,14.4-25.43,30.6-25.44,54.18,0,13.75,6.34,32.4,7.44,35.55l25.05,98.49h0s0,0,0,0l16.2,63.62s0,0,0,0v.04c.16.61.24,1.24.24,1.9,0,4.2-3.66,7.21-7.86,7.2-3.73-.01-7.74-5-7.74-5l-55.67-68.86c-7.71-9.53-19.16-14.99-31.42-14.99-9.21,0-18.22,3.19-25.37,8.97-11.93,9.62-17.33,24.89-14.12,39.84.01.05,27.44,100.34,27.44,100.34l-6.88-9.63c-6.3-7.8-17.78-9.03-25.59-2.73-3.79,3.06-6.15,7.4-6.67,12.24-.51,4.84.89,9.58,3.95,13.35l29.75,36.81c3.47,4.31,8.63,6.79,14.17,6.79,4.12,0,8.17-1.43,11.41-4.02l.02-.02c4.74-3.83,7.25-9.88,6.66-15.92v-.68l-6.28-23.96h-.02c-.02-.06-.02-.12-.03-.18l-.04-.14s0-.03-.01-.04l-.14-.54h0c-.02-.06-.03-.12-.05-.18l-14.92-56.94c-.04-.15-.08-.29-.13-.44,0-.01,0-.03-.01-.04h0c-.06-.27-.07-.46-.07-.56,0-1.23,1.01-2.23,2.25-2.23.76,0,1.26.33,1.62.69.07.06.17.19.26.33l.26.41,72.3,89.45c6.78,8.39,16.43,13.64,27.16,14.78,1.45.15,2.89.23,4.33.23,9.21,0,18.07-3.12,25.33-8.99,11.02-8.89,16.58-23.06,14.6-37.09v-.47l-21.41-84.06s-.01-.04-.02-.07h0s0-.01,0-.01c0,0,0,0,0,0h0l-16.06-63.09c-.11-.7-.18-1.42-.18-2.16,0-7.39,6.01-13.41,13.41-13.41,3.59,0,6.96,1.4,9.59,4.01.58.58,1.14,1.28,1.72,2.15l.22.33,142.4,176.18c14.18,17.53,34.98,26.64,55.95,26.64,15.87,0,31.83-5.22,45.11-15.94h0c30.8-24.91,35.6-70.24,10.7-101.05Z"/>
    <g>
      <g>
        <path class="cls-1" d="M74.29,668.14c-1.56.89-3.28,1.72-5.11,2.48-1.82.76-3.74,1.41-5.71,1.96-1.97.54-4.04.98-6.15,1.28-2.08.31-4.22.46-6.35.46-4.68,0-8.91-.61-12.56-1.81-3.6-1.18-6.67-2.83-9.13-4.9-2.41-2.04-4.28-4.49-5.54-7.28-1.27-2.81-1.92-5.95-1.92-9.35s.62-6.28,1.85-8.98c1.21-2.67,3.01-5.01,5.35-6.94,2.39-1.98,5.4-3.55,8.94-4.66,3.62-1.14,7.84-1.72,12.52-1.72,1.94,0,3.94.12,5.94.37,2.01.25,3.98.61,5.86,1.05,1.86.44,3.62.99,5.25,1.63,1.57.62,2.96,1.32,4.15,2.1l2.41,1.58,10.17-16.72-2.47-1.42c-4.71-2.72-9.88-4.76-15.35-6.08-5.43-1.31-11.46-1.98-17.93-1.98-7.45,0-14.23,1.07-20.17,3.17-5.99,2.12-11.14,5.08-15.31,8.8-4.21,3.75-7.47,8.24-9.69,13.33-2.21,5.08-3.34,10.62-3.34,16.46s1.09,11.61,3.24,16.81c2.17,5.25,5.46,9.86,9.75,13.72,4.27,3.83,9.63,6.87,15.94,9.04,6.25,2.14,13.56,3.23,21.75,3.23,6.43,0,12.6-.81,18.34-2.39,5.76-1.59,10.93-3.84,15.35-6.67l2.29-1.46-10.01-16.45-2.35,1.34Z"/>
        <rect class="cls-1" x="95.31" y="610.17" width="21.28" height="82.59"/>
        <path class="cls-1" d="M188.6,655.38c0,3.15-.43,5.97-1.27,8.37-.81,2.3-2.02,4.25-3.6,5.82-1.58,1.57-3.6,2.78-6,3.61-2.5.86-5.47,1.3-8.83,1.3s-6.36-.44-8.85-1.3c-2.38-.83-4.39-2.04-5.98-3.61-1.58-1.57-2.79-3.52-3.6-5.82-.84-2.4-1.27-5.21-1.27-8.37v-45.21h-21.18v47.08c0,5.4.93,10.4,2.77,14.86,1.86,4.5,4.6,8.42,8.14,11.64,3.52,3.2,7.87,5.7,12.92,7.42,4.98,1.7,10.71,2.56,17.04,2.56s12.06-.86,17.04-2.56c5.05-1.72,9.4-4.22,12.92-7.42,3.54-3.22,6.28-7.14,8.14-11.64,1.84-4.46,2.77-9.46,2.77-14.86v-47.08h-21.18v45.21Z"/>
        <path class="cls-1" d="M302.34,634.18c-2.12-5.12-5.39-9.52-9.72-13.1-4.27-3.53-9.68-6.27-16.1-8.14-6.3-1.84-13.79-2.77-22.27-2.77h-31.02v82.58l31.12.05c8.5,0,16.01-1.03,22.34-3.07,6.41-2.06,11.81-4.98,16.06-8.68,4.29-3.74,7.52-8.24,9.62-13.37,2.07-5.06,3.11-10.63,3.11-16.55,0-6.22-1.06-11.92-3.14-16.96ZM258.11,673.69h-13.68v-44.36h13.68c4.35,0,8.19.53,11.41,1.59,3.13,1.02,5.75,2.48,7.8,4.32,2.01,1.82,3.55,4.07,4.57,6.68,1.05,2.7,1.59,5.8,1.59,9.22s-.54,6.67-1.59,9.46c-1.03,2.71-2.57,5.04-4.6,6.94-2.05,1.92-4.67,3.43-7.79,4.5-3.21,1.09-7.03,1.65-11.37,1.65Z"/>
        <path class="cls-1" d="M342.88,610.17l-38.78,82.59h22.62l5.96-12.96h41.46l6.16,12.96h22.6l-39.94-82.59h-20.07ZM365.33,661.37h-24.12l11.9-25.67,12.22,25.67Z"/>
        <path class="cls-1" d="M477.04,621.08c-4.27-3.53-9.68-6.27-16.1-8.14-6.3-1.84-13.79-2.77-22.27-2.77h-31.02v82.58l31.12.05c8.5,0,16.01-1.03,22.34-3.07,6.41-2.06,11.81-4.98,16.06-8.68,4.29-3.74,7.52-8.24,9.62-13.37,2.07-5.06,3.11-10.63,3.11-16.55,0-6.22-1.06-11.92-3.14-16.96-2.12-5.12-5.39-9.52-9.72-13.1ZM442.52,673.69h-13.68v-44.36h13.68c4.35,0,8.19.53,11.41,1.59,3.13,1.02,5.75,2.48,7.8,4.32,2.01,1.82,3.55,4.07,4.57,6.68,1.05,2.7,1.59,5.8,1.59,9.22s-.54,6.67-1.59,9.46c-1.03,2.71-2.57,5.04-4.6,6.94-2.05,1.92-4.67,3.43-7.79,4.5-3.21,1.09-7.03,1.65-11.37,1.65Z"/>
        <path class="cls-1" d="M602.91,621.08c-4.27-3.53-9.68-6.27-16.1-8.14-6.3-1.84-13.79-2.77-22.27-2.77h-31.02v82.58l31.12.05c8.5,0,16.01-1.03,22.34-3.07,6.41-2.06,11.81-4.98,16.06-8.68,4.29-3.74,7.52-8.24,9.62-13.37,2.07-5.06,3.11-10.63,3.11-16.55,0-6.22-1.06-11.92-3.14-16.96-2.12-5.12-5.39-9.52-9.72-13.1ZM568.39,673.69h-13.68v-44.36h13.68c4.35,0,8.19.53,11.41,1.59,3.13,1.02,5.75,2.48,7.8,4.32,2.01,1.82,3.55,4.07,4.57,6.68,1.05,2.7,1.59,5.8,1.59,9.22s-.54,6.67-1.59,9.46c-1.03,2.71-2.57,5.04-4.6,6.94-2.05,1.92-4.67,3.43-7.79,4.5-3.21,1.09-7.03,1.65-11.37,1.65Z"/>
        <polygon class="cls-1" points="647.06 657.66 691.32 657.66 691.32 639.24 647.06 639.24 647.06 629.42 697.03 629.42 697.03 610.17 625.88 610.17 625.88 692.75 698.07 692.75 698.07 673.54 647.06 673.54 647.06 657.66"/>
        <polygon class="cls-1" points="789.81 637.1 762.97 610.17 743.42 610.17 743.42 692.75 764.6 692.75 764.6 641.11 789.81 665.39 815.02 641.11 815.02 692.75 836.21 692.75 836.21 610.17 816.65 610.17 789.81 637.1"/>
        <path class="cls-1" d="M928.6,620.76h0c-4.12-3.69-9.11-6.59-14.86-8.61-5.69-2-12.04-3.02-18.86-3.02s-13.21,1.02-18.89,3.02c-5.73,2.02-10.72,4.92-14.83,8.61-4.14,3.71-7.39,8.22-9.68,13.39-2.28,5.16-3.44,10.91-3.44,17.09s1.16,12,3.44,17.21c2.28,5.22,5.54,9.77,9.67,13.53,4.11,3.75,9.1,6.69,14.82,8.76,5.68,2.06,12.05,3.1,18.91,3.1s13.18-1.04,18.88-3.1c5.74-2.07,10.74-5.02,14.85-8.76,4.13-3.76,7.38-8.31,9.67-13.53,2.28-5.21,3.44-11,3.44-17.21s-1.16-11.93-3.44-17.09c-2.29-5.17-5.54-9.67-9.68-13.39ZM894.88,674.38c-3.74,0-7.24-.56-10.39-1.66-3.11-1.09-5.83-2.66-8.1-4.66-2.23-1.97-4.01-4.4-5.27-7.21-1.26-2.81-1.9-6.05-1.9-9.61s.64-6.77,1.9-9.55c1.25-2.77,3.02-5.14,5.24-7.05,2.25-1.94,4.97-3.44,8.08-4.47,3.17-1.05,6.68-1.58,10.44-1.58s7.27.53,10.43,1.58c3.1,1.03,5.81,2.53,8.05,4.47,2.21,1.91,3.98,4.29,5.25,7.06,1.27,2.77,1.92,5.98,1.92,9.54s-.65,6.79-1.92,9.6c-1.28,2.82-3.05,5.25-5.28,7.23-2.25,2-4.96,3.57-8.07,4.66-3.15,1.1-6.65,1.66-10.39,1.66Z"/>
        <polygon class="cls-1" points="948.28 629.42 976.72 629.42 976.72 692.75 997.9 692.75 997.9 629.42 1026.34 629.42 1026.34 610.17 948.28 610.17 948.28 629.42"/>
        <path class="cls-1" d="M1106.14,663.31c2.4-1.87,4.42-4.04,6.01-6.45h0c1.59-2.41,2.78-5.08,3.54-7.93.75-2.8,1.13-5.79,1.13-8.88,0-4.59-.78-8.78-2.31-12.45-1.57-3.76-3.99-7-7.19-9.61-3.14-2.56-7.11-4.54-11.79-5.87-4.56-1.3-9.99-1.95-16.14-1.95h-41.96v82.59h21.18v-21.92l19.83.04,14.49,21.88h25.87l-17.83-26.22c1.89-.94,3.62-2.02,5.17-3.23ZM1094.8,640.05c0,1.83-.3,3.48-.9,4.93h0c-.57,1.38-1.41,2.52-2.56,3.49-1.2,1-2.76,1.81-4.61,2.39-1.94.6-4.28.91-6.94.91h-21.17v-22.43h21.17c5.27,0,9.19.98,11.63,2.92,2.28,1.81,3.38,4.36,3.38,7.8Z"/>
        <rect class="cls-1" x="1127.77" y="610.17" width="21.28" height="82.59"/>
        <polygon class="cls-1" points="1184.58 673.49 1184.58 610.17 1163.4 610.17 1163.4 692.75 1229.38 692.75 1229.38 673.49 1184.58 673.49"/>
      </g>
      <g>
        <polygon class="cls-1" points="36.63 516.19 64.45 542.98 92.27 516.19 92.27 573.16 115.64 573.16 115.64 482.04 94.06 482.04 64.45 511.75 34.83 482.04 13.26 482.04 13.26 573.16 36.63 573.16 36.63 516.19"/>
        <polygon class="cls-1" points="213.35 551.97 157.07 551.97 157.07 534.44 205.9 534.44 205.9 514.12 157.07 514.12 157.07 503.29 212.21 503.29 212.21 482.04 133.7 482.04 133.7 573.16 213.35 573.16 213.35 551.97"/>
        <path class="cls-1" d="M285.34,569.83c7.07-2.27,13.03-5.5,17.72-9.58,4.73-4.13,8.3-9.09,10.61-14.75,2.28-5.58,3.44-11.73,3.44-18.26,0-6.86-1.17-13.16-3.47-18.71-2.34-5.64-5.95-10.51-10.72-14.46-4.71-3.89-10.68-6.92-17.76-8.98-6.95-2.03-15.22-3.06-24.57-3.06h-34.22v91.12l34.33.06c9.38,0,17.67-1.14,24.65-3.38ZM264.82,552.13h-15.1v-48.95h15.1c4.8,0,9.03.59,12.59,1.75,3.45,1.13,6.35,2.73,8.6,4.77,2.22,2,3.92,4.49,5.04,7.37,1.16,2.98,1.75,6.4,1.75,10.17s-.59,7.36-1.76,10.44c-1.13,2.99-2.84,5.56-5.08,7.66-2.26,2.12-5.15,3.79-8.6,4.96-3.54,1.21-7.76,1.82-12.55,1.82Z"/>
        <rect class="cls-1" x="326.09" y="482.04" width="23.48" height="91.12"/>
        <path class="cls-1" d="M384.24,558.86h45.74l6.8,14.3h24.93l-44.07-91.12h-22.14l-42.79,91.12h24.95l6.58-14.3ZM393.66,538.53l13.13-28.33,13.48,28.33h-26.61Z"/>
        <polygon class="cls-1" points="606.39 573.16 606.39 482.04 584.81 482.04 555.2 511.75 525.59 482.04 504.01 482.04 504.01 573.16 527.38 573.16 527.38 516.19 555.2 542.98 583.02 516.19 583.02 573.16 606.39 573.16"/>
        <path class="cls-1" d="M720.77,573.16l-44.07-91.12h-22.14l-42.79,91.12h24.95l6.58-14.3h45.74l6.8,14.3h24.93ZM679.32,538.53h-26.61l13.13-28.33,13.48,28.33Z"/>
        <path class="cls-1" d="M857.98,482.04l-42.54,90.59-19.31-28.39c2.09-1.04,3.99-2.23,5.7-3.56,2.64-2.06,4.87-4.46,6.63-7.12h0c1.75-2.66,3.07-5.6,3.91-8.75.83-3.09,1.25-6.39,1.25-9.79,0-5.06-.86-9.68-2.55-13.74-1.73-4.15-4.4-7.72-7.93-10.6-3.46-2.83-7.84-5.01-13.01-6.47-5.03-1.43-11.02-2.15-17.8-2.15h-46.3v91.12h23.37v-24.19l21.88.05,15.99,24.15h52.88l6.58-14.3h45.74l6.8,14.3h24.93l-44.07-91.12h-22.14ZM789.32,515.01c0,2.02-.33,3.85-.99,5.44h0c-.63,1.53-1.55,2.78-2.83,3.85-1.33,1.11-3.04,1.99-5.09,2.63-2.14.67-4.72,1-7.65,1h-23.36v-24.75h23.36c5.82,0,10.14,1.08,12.83,3.22,2.51,1.99,3.73,4.81,3.73,8.61ZM882.75,538.53h-26.61l13.13-28.33,13.48,28.33Z"/>
        <polygon class="cls-1" points="955.06 573.16 978.43 573.16 978.43 503.29 1009.81 503.29 1009.81 482.04 923.69 482.04 923.69 503.29 955.06 503.29 955.06 573.16"/>
        <path class="cls-1" d="M1066.01,574.36c7.54,0,14.55-1.15,20.83-3.42,6.33-2.28,11.84-5.54,16.39-9.67,4.56-4.15,8.15-9.17,10.67-14.93,2.52-5.75,3.79-12.14,3.79-18.98s-1.28-13.16-3.8-18.86c-2.52-5.7-6.12-10.67-10.68-14.77h0c-4.54-4.08-10.06-7.28-16.39-9.5-6.28-2.21-13.28-3.33-20.81-3.33s-14.57,1.12-20.84,3.33c-6.32,2.23-11.82,5.42-16.36,9.5-4.56,4.1-8.16,9.07-10.68,14.77-2.52,5.69-3.8,12.04-3.8,18.86s1.28,13.24,3.79,18.98c2.52,5.76,6.11,10.78,10.67,14.93,4.54,4.13,10.04,7.39,16.35,9.67,6.27,2.27,13.29,3.42,20.86,3.42ZM1066.01,502.36c4.14,0,8.02.59,11.51,1.75,3.42,1.14,6.41,2.8,8.89,4.93,2.44,2.11,4.39,4.73,5.8,7.79,1.4,3.06,2.11,6.6,2.11,10.52s-.71,7.49-2.12,10.59c-1.41,3.11-3.37,5.79-5.82,7.97-2.48,2.21-5.47,3.93-8.9,5.14-3.48,1.22-7.33,1.84-11.46,1.84s-7.99-.62-11.46-1.84c-3.43-1.2-6.44-2.93-8.94-5.14-2.47-2.18-4.42-4.86-5.81-7.95-1.39-3.1-2.1-6.67-2.1-10.6s.7-7.47,2.09-10.53c1.38-3.05,3.33-5.67,5.79-7.78,2.49-2.14,5.49-3.8,8.92-4.94,3.5-1.16,7.37-1.75,11.51-1.75Z"/>
        <polygon class="cls-1" points="1200.79 573.16 1224.16 573.16 1224.16 482.04 1200.79 482.04 1200.79 507.77 1151.65 482.04 1130.59 482.04 1130.59 573.16 1153.96 573.16 1153.96 508.59 1200.79 532.97 1200.79 573.16"/>
        <polygon class="cls-1" points="1091.01 435.32 1107.2 451.5 1082.55 473.7 1068.82 459.97 1091.01 435.32"/>
      </g>
    </g>
  </g>
</svg>