<?xml version="1.0" encoding="UTF-8"?>
<svg id="Capa_2" data-name="Capa 2" xmlns="http://www.w3.org/2000/svg" viewBox="0 0 16.04 10.61">
  <defs>
    <style>
      .cls-1 {
        fill: #fff;
      }
    </style>
  </defs>
  <g id="Capa_2-2" data-name="Capa 2">
    <g>
      <path class="cls-1" d="M7.66,0c2.78-.13,5.49,1.36,7.42,3.71.13.16.85,1.13.9,1.26.08.24.05.51-.05.74-.19.43-1.17,1.55-1.51,1.91-4.14,4.35-9.87,3.85-13.62-.9-.13-.17-.71-.94-.76-1.09-.07-.2-.07-.46,0-.66.05-.15.65-.95.79-1.12C2.61,1.64,5.09.13,7.66,0ZM7.55,1.72c-4.6.5-4.03,7.72.95,7.2,4.54-.48,4.04-7.73-.95-7.2Z"/>
      <path class="cls-1" d="M7.72,3.13c2.85-.4,3.32,4.05.55,4.37s-3.27-3.99-.55-4.37Z"/>
    </g>
  </g>
</svg>