<?xml version="1.0" encoding="UTF-8"?>
<svg id="Capa_2" data-name="Capa 2" xmlns="http://www.w3.org/2000/svg" viewBox="0 0 16.03 16.17">
  <defs>
    <style>
      .cls-1 {
        fill: #fff;
      }
    </style>
  </defs>
  <g id="Capa_2-2" data-name="Capa 2">
    <g>
      <path class="cls-1" d="M13.03,1.78c.26,1.71-.28,3.36-1.56,4.69-.44.46-.92.78-1.37,1.09-.43.29-.83.56-1.15.92-1.83,2.04-1.76,5.04.16,6.98l.41.42c2.25-.4,4.26-1.84,5.41-3.8,2.02-3.46,1.16-7.84-1.91-10.3Z"/>
      <path class="cls-1" d="M8.39,16.16c-1.3.06-2.62-.17-3.79-.73-.95-.45-1.6-1.47-1.97-2.44-1.04-2.75.01-5.44,2.22-7.22,1.83-1.48,5.35-1.58,5.54-4.6.02-.35-.07-.58-.09-.89,0-.07,0-.07.06-.06.2.03,1.26.45,1.36.6.09.13.22.59.26.76.36,1.58-.13,3.06-1.23,4.2-.77.8-1.78,1.18-2.55,2.03-2.18,2.43-2.09,6.04.19,8.36Z"/>
      <path class="cls-1" d="M4.23,4.99c.7-.57,1.55-.94,2.38-1.29,1.67-.72,2.7-1.24,2.79-2.59,0-.1,0-.18-.03-.34-.02-.14-.04-.27-.05-.43l-.02-.26c-.1-.01-.22-.02-.37-.04C6.19-.27,3.4.91,1.72,3.06c-2.23,2.84-2.29,6.8-.2,9.65-.78-2.8.21-5.71,2.71-7.72Z"/>
    </g>
  </g>
</svg>